<?xml version="1.0" encoding="UTF-8"?>
<svg version="1.1" xmlns="http://www.w3.org/2000/svg" width="1024" height="1024">
<path d="M0,0 L1024,0 L1024,1024 L0,1024 Z " fill="#FCFCFB" transform="translate(0,0)"/>
<path d="M0,0 L7,0 L7,1 L10,1 L10,2 L12,2 L12,3 L14,3 L14,4 L15,4 L15,5 L16,5 L16,6 L18,6 L18,8 L19,8 L19,9 L20,9 L20,11 L21,11 L21,13 L22,13 L22,15 L23,15 L23,20 L31,20 L31,21 L37,21 L37,22 L44,22 L44,23 L48,23 L48,24 L53,24 L53,25 L57,25 L57,26 L61,26 L61,27 L64,27 L64,28 L68,28 L68,29 L71,29 L71,30 L74,30 L74,31 L77,31 L77,32 L80,32 L80,33 L83,33 L83,34 L85,34 L85,35 L89,35 L89,33 L90,33 L90,32 L91,32 L91,31 L92,31 L92,30 L93,30 L93,29 L95,29 L95,28 L97,28 L97,27 L99,27 L99,26 L102,26 L102,25 L108,25 L108,26 L112,26 L112,27 L115,27 L115,28 L117,28 L117,29 L118,29 L118,30 L119,30 L119,31 L120,31 L120,32 L121,32 L121,33 L122,33 L122,34 L123,34 L123,36 L124,36 L124,38 L125,38 L125,40 L126,40 L126,51 L125,51 L125,54 L127,54 L127,55 L128,55 L128,56 L130,56 L130,57 L131,57 L131,58 L133,58 L133,59 L134,59 L134,60 L135,60 L135,61 L137,61 L137,62 L138,62 L138,63 L140,63 L140,64 L141,64 L141,65 L142,65 L142,66 L144,66 L144,67 L145,67 L145,68 L146,68 L146,69 L148,69 L148,70 L149,70 L149,71 L150,71 L150,72 L151,72 L151,73 L153,73 L153,74 L154,74 L154,75 L155,75 L155,76 L157,76 L157,77 L158,77 L158,78 L159,78 L159,79 L160,79 L160,80 L161,80 L161,81 L162,81 L162,82 L164,82 L164,83 L165,83 L165,84 L166,84 L166,85 L167,85 L167,86 L168,86 L168,87 L169,87 L169,88 L170,88 L170,89 L171,89 L171,90 L172,90 L172,91 L173,91 L173,92 L175,92 L175,93 L176,93 L176,94 L177,94 L177,95 L178,95 L178,96 L179,96 L179,97 L180,97 L180,98 L181,98 L181,99 L184,99 L184,98 L224,98 L224,99 L225,99 L225,100 L226,100 L226,101 L227,101 L227,225 L165,225 L165,222 L164,222 L164,219 L163,219 L163,216 L162,216 L162,214 L161,214 L161,212 L160,212 L160,210 L159,210 L159,208 L158,208 L158,206 L157,206 L157,205 L156,205 L156,203 L155,203 L155,201 L154,201 L154,200 L153,200 L153,198 L152,198 L152,196 L151,196 L151,195 L150,195 L150,193 L149,193 L149,192 L148,192 L148,191 L147,191 L147,189 L146,189 L146,188 L145,188 L145,187 L144,187 L144,185 L143,185 L143,184 L142,184 L142,183 L141,183 L141,181 L140,181 L140,180 L139,180 L139,179 L138,179 L138,178 L137,178 L137,176 L136,176 L136,175 L135,175 L135,174 L134,174 L134,173 L133,173 L133,172 L132,172 L132,171 L131,171 L131,170 L130,170 L130,169 L129,169 L129,168 L128,168 L128,167 L127,167 L127,166 L126,166 L126,165 L125,165 L125,164 L124,164 L124,163 L123,163 L123,162 L122,162 L122,161 L121,161 L121,160 L120,160 L120,159 L119,159 L119,158 L118,158 L118,157 L117,157 L117,156 L116,156 L116,155 L115,155 L115,154 L113,154 L113,153 L112,153 L112,152 L111,152 L111,151 L110,151 L110,150 L108,150 L108,149 L107,149 L107,148 L106,148 L106,147 L104,147 L104,146 L103,146 L103,145 L101,145 L101,144 L100,144 L100,143 L98,143 L98,142 L97,142 L97,141 L95,141 L95,140 L94,140 L94,139 L92,139 L92,138 L90,138 L90,137 L89,137 L89,136 L87,136 L87,135 L85,135 L85,134 L83,134 L83,133 L81,133 L81,132 L79,132 L79,131 L77,131 L77,130 L75,130 L75,129 L73,129 L73,128 L71,128 L71,127 L68,127 L68,126 L66,126 L66,125 L63,125 L63,124 L60,124 L60,123 L57,123 L57,122 L54,122 L54,121 L51,121 L51,120 L48,120 L48,119 L43,119 L43,118 L38,118 L38,117 L34,117 L34,116 L29,116 L29,115 L16,115 L16,114 L-14,114 L-14,115 L-21,115 L-21,116 L-28,116 L-28,117 L-33,117 L-33,118 L-38,118 L-38,119 L-43,119 L-43,120 L-46,120 L-46,121 L-49,121 L-49,122 L-52,122 L-52,123 L-55,123 L-55,124 L-58,124 L-58,125 L-60,125 L-60,126 L-63,126 L-63,127 L-65,127 L-65,128 L-68,128 L-68,129 L-70,129 L-70,130 L-72,130 L-72,131 L-74,131 L-74,132 L-76,132 L-76,133 L-78,133 L-78,134 L-80,134 L-80,135 L-82,135 L-82,136 L-83,136 L-83,137 L-85,137 L-85,138 L-87,138 L-87,139 L-88,139 L-88,140 L-90,140 L-90,141 L-91,141 L-91,142 L-93,142 L-93,143 L-94,143 L-94,144 L-96,144 L-96,145 L-97,145 L-97,146 L-98,146 L-98,147 L-100,147 L-100,148 L-101,148 L-101,149 L-102,149 L-102,150 L-104,150 L-104,151 L-105,151 L-105,152 L-106,152 L-106,153 L-107,153 L-107,154 L-109,154 L-109,155 L-110,155 L-110,156 L-111,156 L-111,157 L-112,157 L-112,158 L-113,158 L-113,159 L-114,159 L-114,160 L-115,160 L-115,161 L-116,161 L-116,162 L-117,162 L-117,163 L-118,163 L-118,164 L-119,164 L-119,165 L-120,165 L-120,166 L-121,166 L-121,167 L-122,167 L-122,168 L-123,168 L-123,169 L-124,169 L-124,170 L-125,170 L-125,171 L-126,171 L-126,172 L-127,172 L-127,173 L-128,173 L-128,174 L-129,174 L-129,175 L-130,175 L-130,176 L-131,176 L-131,178 L-132,178 L-132,179 L-133,179 L-133,180 L-134,180 L-134,181 L-135,181 L-135,182 L-136,182 L-136,184 L-137,184 L-137,185 L-138,185 L-138,186 L-139,186 L-139,188 L-140,188 L-140,189 L-141,189 L-141,191 L-142,191 L-142,192 L-143,192 L-143,193 L-144,193 L-144,195 L-145,195 L-145,196 L-146,196 L-146,198 L-147,198 L-147,200 L-148,200 L-148,201 L-149,201 L-149,203 L-150,203 L-150,205 L-151,205 L-151,206 L-152,206 L-152,208 L-153,208 L-153,210 L-154,210 L-154,212 L-155,212 L-155,214 L-156,214 L-156,216 L-157,216 L-157,218 L-158,218 L-158,221 L-159,221 L-159,223 L-160,223 L-160,224 L-220,224 L-220,102 L-219,102 L-219,100 L-218,100 L-218,99 L-217,99 L-217,98 L-178,98 L-178,99 L-176,99 L-176,100 L-174,100 L-174,99 L-173,99 L-173,98 L-172,98 L-172,97 L-171,97 L-171,96 L-170,96 L-170,95 L-169,95 L-169,94 L-168,94 L-168,93 L-167,93 L-167,92 L-166,92 L-166,91 L-165,91 L-165,90 L-164,90 L-164,89 L-163,89 L-163,88 L-162,88 L-162,87 L-161,87 L-161,86 L-160,86 L-160,85 L-159,85 L-159,84 L-158,84 L-158,83 L-157,83 L-157,82 L-156,82 L-156,81 L-154,81 L-154,80 L-153,80 L-153,79 L-152,79 L-152,78 L-151,78 L-151,77 L-150,77 L-150,76 L-148,76 L-148,75 L-147,75 L-147,74 L-146,74 L-146,73 L-145,73 L-145,72 L-143,72 L-143,71 L-142,71 L-142,70 L-141,70 L-141,69 L-140,69 L-140,68 L-138,68 L-138,67 L-137,67 L-137,66 L-136,66 L-136,65 L-134,65 L-134,64 L-133,64 L-133,63 L-131,63 L-131,62 L-130,62 L-130,61 L-129,61 L-129,60 L-127,60 L-127,59 L-126,59 L-126,58 L-124,58 L-124,57 L-123,57 L-123,56 L-122,56 L-122,55 L-120,55 L-120,54 L-119,54 L-119,53 L-118,53 L-118,40 L-117,40 L-117,37 L-116,37 L-116,35 L-115,35 L-115,34 L-114,34 L-114,33 L-113,33 L-113,32 L-112,32 L-112,31 L-111,31 L-111,30 L-110,30 L-110,29 L-109,29 L-109,28 L-107,28 L-107,27 L-105,27 L-105,26 L-102,26 L-102,25 L-95,25 L-95,26 L-91,26 L-91,27 L-89,27 L-89,28 L-88,28 L-88,29 L-86,29 L-86,30 L-85,30 L-85,31 L-84,31 L-84,32 L-83,32 L-83,33 L-82,33 L-82,35 L-80,35 L-80,34 L-78,34 L-78,33 L-75,33 L-75,32 L-72,32 L-72,31 L-70,31 L-70,30 L-67,30 L-67,29 L-63,29 L-63,28 L-60,28 L-60,27 L-56,27 L-56,26 L-52,26 L-52,25 L-48,25 L-48,24 L-44,24 L-44,23 L-38,23 L-38,22 L-33,22 L-33,21 L-25,21 L-25,20 L-17,20 L-17,16 L-16,16 L-16,13 L-15,13 L-15,11 L-14,11 L-14,9 L-13,9 L-13,8 L-12,8 L-12,7 L-11,7 L-11,6 L-10,6 L-10,5 L-9,5 L-9,4 L-8,4 L-8,3 L-6,3 L-6,2 L-4,2 L-4,1 L0,1 Z " fill="#0076B0" transform="translate(506,330)"/>
<path d="M0,0 L5,0 L5,1 L6,1 L6,3 L7,3 L7,4 L8,4 L8,6 L9,6 L9,7 L11,7 L11,8 L12,8 L12,9 L13,9 L13,10 L15,10 L15,11 L18,11 L18,12 L28,12 L28,11 L31,11 L31,10 L33,10 L33,9 L35,9 L35,8 L36,8 L36,7 L37,7 L37,6 L38,6 L38,5 L39,5 L39,4 L40,4 L40,2 L41,2 L41,0 L46,0 L46,1 L52,1 L52,2 L58,2 L58,3 L63,3 L63,4 L68,4 L68,5 L73,5 L73,6 L77,6 L77,7 L81,7 L81,8 L84,8 L84,9 L88,9 L88,10 L91,10 L91,11 L94,11 L94,12 L96,12 L96,13 L99,13 L99,14 L102,14 L102,15 L104,15 L104,16 L105,16 L105,22 L106,22 L106,25 L107,25 L107,27 L108,27 L108,28 L109,28 L109,29 L110,29 L110,31 L111,31 L111,32 L113,32 L113,33 L114,33 L114,34 L116,34 L116,35 L118,35 L118,36 L121,36 L121,37 L129,37 L129,36 L132,36 L132,35 L135,35 L135,34 L137,34 L137,33 L138,33 L138,32 L140,32 L140,33 L141,33 L141,34 L143,34 L143,35 L144,35 L144,36 L146,36 L146,37 L147,37 L147,38 L149,38 L149,39 L150,39 L150,40 L152,40 L152,41 L153,41 L153,42 L155,42 L155,43 L156,43 L156,44 L157,44 L157,45 L159,45 L159,46 L160,46 L160,47 L161,47 L161,48 L162,48 L162,49 L164,49 L164,50 L165,50 L165,51 L166,51 L166,52 L167,52 L167,53 L169,53 L169,54 L170,54 L170,55 L171,55 L171,56 L172,56 L172,57 L173,57 L173,58 L174,58 L174,59 L176,59 L176,60 L177,60 L177,61 L178,61 L178,62 L179,62 L179,63 L180,63 L180,64 L181,64 L181,65 L182,65 L182,66 L183,66 L183,67 L184,67 L184,68 L185,68 L185,69 L186,69 L186,70 L187,70 L187,71 L188,71 L188,72 L189,72 L189,73 L190,73 L190,74 L191,74 L191,75 L192,75 L192,76 L193,76 L193,77 L194,77 L194,78 L195,78 L195,79 L196,79 L196,80 L197,80 L197,81 L198,81 L198,82 L199,82 L199,132 L197,132 L197,130 L196,130 L196,129 L195,129 L195,128 L194,128 L194,127 L193,127 L193,126 L192,126 L192,125 L191,125 L191,124 L190,124 L190,123 L189,123 L189,122 L188,122 L188,121 L187,121 L187,120 L186,120 L186,119 L184,119 L184,118 L183,118 L183,117 L182,117 L182,116 L181,116 L181,115 L180,115 L180,114 L179,114 L179,113 L178,113 L178,112 L177,112 L177,111 L175,111 L175,110 L174,110 L174,109 L173,109 L173,108 L172,108 L172,107 L171,107 L171,106 L169,106 L169,105 L168,105 L168,104 L167,104 L167,103 L165,103 L165,102 L164,102 L164,101 L163,101 L163,100 L161,100 L161,99 L160,99 L160,98 L158,98 L158,97 L157,97 L157,96 L155,96 L155,95 L154,95 L154,94 L153,94 L153,93 L151,93 L151,92 L149,92 L149,91 L148,91 L148,90 L146,90 L146,89 L145,89 L145,88 L143,88 L143,87 L141,87 L141,86 L140,86 L140,85 L138,85 L138,84 L136,84 L136,83 L134,83 L134,82 L133,82 L133,81 L131,81 L131,80 L129,80 L129,79 L127,79 L127,78 L125,78 L125,77 L123,77 L123,76 L121,76 L121,75 L119,75 L119,74 L116,74 L116,73 L114,73 L114,72 L112,72 L112,71 L110,71 L110,70 L107,70 L107,69 L104,69 L104,68 L102,68 L102,67 L99,67 L99,66 L96,66 L96,65 L93,65 L93,64 L90,64 L90,63 L86,63 L86,62 L83,62 L83,61 L79,61 L79,60 L76,60 L76,59 L71,59 L71,58 L66,58 L66,57 L62,57 L62,56 L55,56 L55,55 L47,55 L47,54 L35,54 L35,53 L7,53 L7,54 L-3,54 L-3,55 L-12,55 L-12,56 L-19,56 L-19,57 L-24,57 L-24,58 L-28,58 L-28,59 L-33,59 L-33,60 L-36,60 L-36,61 L-40,61 L-40,62 L-43,62 L-43,63 L-46,63 L-46,64 L-49,64 L-49,65 L-52,65 L-52,66 L-55,66 L-55,67 L-58,67 L-58,68 L-61,68 L-61,69 L-63,69 L-63,70 L-65,70 L-65,71 L-68,71 L-68,72 L-70,72 L-70,73 L-72,73 L-72,74 L-74,74 L-74,75 L-76,75 L-76,76 L-78,76 L-78,77 L-80,77 L-80,78 L-82,78 L-82,79 L-84,79 L-84,80 L-86,80 L-86,81 L-88,81 L-88,82 L-89,82 L-89,83 L-91,83 L-91,84 L-93,84 L-93,85 L-94,85 L-94,86 L-96,86 L-96,87 L-98,87 L-98,88 L-99,88 L-99,89 L-101,89 L-101,90 L-103,90 L-103,91 L-104,91 L-104,92 L-105,92 L-105,93 L-107,93 L-107,94 L-108,94 L-108,95 L-110,95 L-110,96 L-111,96 L-111,97 L-113,97 L-113,98 L-114,98 L-114,99 L-115,99 L-115,100 L-117,100 L-117,101 L-118,101 L-118,102 L-119,102 L-119,103 L-121,103 L-121,104 L-122,104 L-122,105 L-123,105 L-123,106 L-124,106 L-124,107 L-126,107 L-126,108 L-127,108 L-127,109 L-128,109 L-128,110 L-129,110 L-129,111 L-130,111 L-130,112 L-132,112 L-132,113 L-133,113 L-133,114 L-134,114 L-134,115 L-135,115 L-135,116 L-136,116 L-136,117 L-137,117 L-137,118 L-138,118 L-138,119 L-139,119 L-139,120 L-140,120 L-140,121 L-141,121 L-141,122 L-142,122 L-142,123 L-143,123 L-143,124 L-144,124 L-144,125 L-145,125 L-145,126 L-146,126 L-146,127 L-147,127 L-147,128 L-148,128 L-148,129 L-149,129 L-149,130 L-150,130 L-150,131 L-151,131 L-151,81 L-150,81 L-150,80 L-149,80 L-149,79 L-148,79 L-148,78 L-147,78 L-147,77 L-146,77 L-146,76 L-145,76 L-145,75 L-144,75 L-144,74 L-143,74 L-143,73 L-142,73 L-142,72 L-141,72 L-141,71 L-140,71 L-140,70 L-139,70 L-139,69 L-138,69 L-138,68 L-137,68 L-137,67 L-136,67 L-136,66 L-135,66 L-135,65 L-134,65 L-134,64 L-133,64 L-133,63 L-132,63 L-132,62 L-131,62 L-131,61 L-130,61 L-130,60 L-129,60 L-129,59 L-127,59 L-127,58 L-126,58 L-126,57 L-125,57 L-125,56 L-124,56 L-124,55 L-123,55 L-123,54 L-122,54 L-122,53 L-120,53 L-120,52 L-119,52 L-119,51 L-118,51 L-118,50 L-117,50 L-117,49 L-115,49 L-115,48 L-114,48 L-114,47 L-113,47 L-113,46 L-112,46 L-112,45 L-110,45 L-110,44 L-109,44 L-109,43 L-108,43 L-108,42 L-106,42 L-106,41 L-105,41 L-105,40 L-103,40 L-103,39 L-102,39 L-102,38 L-101,38 L-101,37 L-99,37 L-99,36 L-98,36 L-98,35 L-96,35 L-96,34 L-95,34 L-95,33 L-93,33 L-93,32 L-92,32 L-92,31 L-91,31 L-91,32 L-90,32 L-90,33 L-89,33 L-89,34 L-87,34 L-87,35 L-85,35 L-85,36 L-82,36 L-82,37 L-73,37 L-73,36 L-70,36 L-70,35 L-68,35 L-68,34 L-66,34 L-66,33 L-65,33 L-65,32 L-64,32 L-64,31 L-63,31 L-63,30 L-62,30 L-62,29 L-61,29 L-61,28 L-60,28 L-60,26 L-59,26 L-59,24 L-58,24 L-58,20 L-57,20 L-57,14 L-54,14 L-54,13 L-51,13 L-51,12 L-48,12 L-48,11 L-45,11 L-45,10 L-43,10 L-43,9 L-39,9 L-39,8 L-36,8 L-36,7 L-32,7 L-32,6 L-28,6 L-28,5 L-24,5 L-24,4 L-19,4 L-19,3 L-14,3 L-14,2 L-8,2 L-8,1 L0,1 Z " fill="#FBFBFB" transform="translate(486,361)"/>
<path d="M0,0 L7,0 L7,1 L10,1 L10,2 L12,2 L12,3 L14,3 L14,4 L15,4 L15,5 L16,5 L16,6 L18,6 L18,8 L19,8 L19,9 L20,9 L20,11 L21,11 L21,13 L22,13 L22,15 L23,15 L23,20 L31,20 L31,21 L37,21 L37,22 L44,22 L44,23 L48,23 L48,24 L53,24 L53,25 L57,25 L57,26 L61,26 L61,27 L64,27 L64,28 L68,28 L68,29 L71,29 L71,30 L74,30 L74,31 L77,31 L77,32 L80,32 L80,33 L83,33 L83,34 L85,34 L85,35 L89,35 L89,33 L90,33 L90,32 L91,32 L91,31 L92,31 L92,30 L93,30 L93,29 L95,29 L95,28 L97,28 L97,27 L99,27 L99,26 L102,26 L102,25 L108,25 L108,26 L112,26 L112,27 L115,27 L115,28 L117,28 L117,29 L118,29 L118,30 L119,30 L119,31 L120,31 L120,32 L121,32 L121,33 L122,33 L122,34 L123,34 L123,36 L124,36 L124,38 L125,38 L125,40 L126,40 L126,51 L125,51 L125,54 L127,54 L127,55 L128,55 L128,56 L130,56 L130,57 L131,57 L131,58 L133,58 L133,59 L134,59 L134,60 L135,60 L135,61 L137,61 L137,62 L138,62 L138,63 L140,63 L140,64 L141,64 L141,65 L142,65 L142,66 L144,66 L144,67 L145,67 L145,68 L146,68 L146,69 L148,69 L148,70 L149,70 L149,71 L150,71 L150,72 L151,72 L151,73 L153,73 L153,74 L154,74 L154,75 L155,75 L155,76 L157,76 L157,77 L158,77 L158,78 L159,78 L159,79 L160,79 L160,80 L161,80 L161,81 L162,81 L162,82 L164,82 L164,83 L165,83 L165,84 L166,84 L166,85 L167,85 L167,86 L168,86 L168,87 L169,87 L169,88 L170,88 L170,89 L171,89 L171,90 L172,90 L172,91 L173,91 L173,92 L175,92 L175,93 L176,93 L176,94 L177,94 L177,95 L178,95 L178,96 L179,96 L179,97 L180,97 L180,98 L181,98 L181,99 L183,99 L183,100 L182,100 L182,101 L181,101 L181,102 L180,102 L180,103 L179,103 L179,112 L177,112 L177,111 L176,111 L176,110 L175,110 L175,109 L174,109 L174,108 L173,108 L173,107 L172,107 L172,106 L171,106 L171,105 L170,105 L170,104 L169,104 L169,103 L168,103 L168,102 L167,102 L167,101 L166,101 L166,100 L165,100 L165,99 L164,99 L164,98 L163,98 L163,97 L162,97 L162,96 L161,96 L161,95 L160,95 L160,94 L159,94 L159,93 L158,93 L158,92 L157,92 L157,91 L156,91 L156,90 L154,90 L154,89 L153,89 L153,88 L152,88 L152,87 L151,87 L151,86 L150,86 L150,85 L149,85 L149,84 L147,84 L147,83 L146,83 L146,82 L145,82 L145,81 L144,81 L144,80 L142,80 L142,79 L141,79 L141,78 L140,78 L140,77 L139,77 L139,76 L137,76 L137,75 L136,75 L136,74 L135,74 L135,73 L133,73 L133,72 L132,72 L132,71 L130,71 L130,70 L129,70 L129,69 L127,69 L127,68 L126,68 L126,67 L124,67 L124,66 L123,66 L123,65 L121,65 L121,64 L120,64 L120,63 L118,63 L118,64 L117,64 L117,65 L115,65 L115,66 L112,66 L112,67 L109,67 L109,68 L101,68 L101,67 L98,67 L98,66 L96,66 L96,65 L94,65 L94,64 L93,64 L93,63 L91,63 L91,62 L90,62 L90,60 L89,60 L89,59 L88,59 L88,58 L87,58 L87,56 L86,56 L86,53 L85,53 L85,47 L84,47 L84,46 L82,46 L82,45 L79,45 L79,44 L76,44 L76,43 L74,43 L74,42 L71,42 L71,41 L68,41 L68,40 L64,40 L64,39 L61,39 L61,38 L57,38 L57,37 L53,37 L53,36 L48,36 L48,35 L43,35 L43,34 L38,34 L38,33 L32,33 L32,32 L26,32 L26,31 L21,31 L21,33 L20,33 L20,35 L19,35 L19,36 L18,36 L18,37 L17,37 L17,38 L16,38 L16,39 L15,39 L15,40 L13,40 L13,41 L11,41 L11,42 L8,42 L8,43 L-2,43 L-2,42 L-5,42 L-5,41 L-7,41 L-7,40 L-8,40 L-8,39 L-9,39 L-9,38 L-11,38 L-11,37 L-12,37 L-12,35 L-13,35 L-13,34 L-14,34 L-14,32 L-15,32 L-15,31 L-20,31 L-20,32 L-28,32 L-28,33 L-34,33 L-34,34 L-39,34 L-39,35 L-44,35 L-44,36 L-48,36 L-48,37 L-52,37 L-52,38 L-56,38 L-56,39 L-59,39 L-59,40 L-63,40 L-63,41 L-65,41 L-65,42 L-68,42 L-68,43 L-71,43 L-71,44 L-74,44 L-74,45 L-77,45 L-77,51 L-78,51 L-78,55 L-79,55 L-79,57 L-80,57 L-80,59 L-81,59 L-81,60 L-82,60 L-82,61 L-83,61 L-83,62 L-84,62 L-84,63 L-85,63 L-85,64 L-86,64 L-86,65 L-88,65 L-88,66 L-90,66 L-90,67 L-93,67 L-93,68 L-102,68 L-102,67 L-105,67 L-105,66 L-107,66 L-107,65 L-109,65 L-109,64 L-110,64 L-110,63 L-111,63 L-111,62 L-112,62 L-112,63 L-113,63 L-113,64 L-115,64 L-115,65 L-116,65 L-116,66 L-118,66 L-118,67 L-119,67 L-119,68 L-121,68 L-121,69 L-122,69 L-122,70 L-123,70 L-123,71 L-125,71 L-125,72 L-126,72 L-126,73 L-128,73 L-128,74 L-129,74 L-129,75 L-130,75 L-130,76 L-132,76 L-132,77 L-133,77 L-133,78 L-134,78 L-134,79 L-135,79 L-135,80 L-137,80 L-137,81 L-138,81 L-138,82 L-139,82 L-139,83 L-140,83 L-140,84 L-142,84 L-142,85 L-143,85 L-143,86 L-144,86 L-144,87 L-145,87 L-145,88 L-146,88 L-146,89 L-147,89 L-147,90 L-149,90 L-149,91 L-150,91 L-150,92 L-151,92 L-151,93 L-152,93 L-152,94 L-153,94 L-153,95 L-154,95 L-154,96 L-155,96 L-155,97 L-156,97 L-156,98 L-157,98 L-157,99 L-158,99 L-158,100 L-159,100 L-159,101 L-160,101 L-160,102 L-161,102 L-161,103 L-162,103 L-162,104 L-163,104 L-163,105 L-164,105 L-164,106 L-165,106 L-165,107 L-166,107 L-166,108 L-167,108 L-167,109 L-168,109 L-168,110 L-169,110 L-169,111 L-170,111 L-170,112 L-171,112 L-171,105 L-172,105 L-172,103 L-173,103 L-173,102 L-174,102 L-174,101 L-175,101 L-175,100 L-174,100 L-174,99 L-173,99 L-173,98 L-172,98 L-172,97 L-171,97 L-171,96 L-170,96 L-170,95 L-169,95 L-169,94 L-168,94 L-168,93 L-167,93 L-167,92 L-166,92 L-166,91 L-165,91 L-165,90 L-164,90 L-164,89 L-163,89 L-163,88 L-162,88 L-162,87 L-161,87 L-161,86 L-160,86 L-160,85 L-159,85 L-159,84 L-158,84 L-158,83 L-157,83 L-157,82 L-156,82 L-156,81 L-154,81 L-154,80 L-153,80 L-153,79 L-152,79 L-152,78 L-151,78 L-151,77 L-150,77 L-150,76 L-148,76 L-148,75 L-147,75 L-147,74 L-146,74 L-146,73 L-145,73 L-145,72 L-143,72 L-143,71 L-142,71 L-142,70 L-141,70 L-141,69 L-140,69 L-140,68 L-138,68 L-138,67 L-137,67 L-137,66 L-136,66 L-136,65 L-134,65 L-134,64 L-133,64 L-133,63 L-131,63 L-131,62 L-130,62 L-130,61 L-129,61 L-129,60 L-127,60 L-127,59 L-126,59 L-126,58 L-124,58 L-124,57 L-123,57 L-123,56 L-122,56 L-122,55 L-120,55 L-120,54 L-119,54 L-119,53 L-118,53 L-118,40 L-117,40 L-117,37 L-116,37 L-116,35 L-115,35 L-115,34 L-114,34 L-114,33 L-113,33 L-113,32 L-112,32 L-112,31 L-111,31 L-111,30 L-110,30 L-110,29 L-109,29 L-109,28 L-107,28 L-107,27 L-105,27 L-105,26 L-102,26 L-102,25 L-95,25 L-95,26 L-91,26 L-91,27 L-89,27 L-89,28 L-88,28 L-88,29 L-86,29 L-86,30 L-85,30 L-85,31 L-84,31 L-84,32 L-83,32 L-83,33 L-82,33 L-82,35 L-80,35 L-80,34 L-78,34 L-78,33 L-75,33 L-75,32 L-72,32 L-72,31 L-70,31 L-70,30 L-67,30 L-67,29 L-63,29 L-63,28 L-60,28 L-60,27 L-56,27 L-56,26 L-52,26 L-52,25 L-48,25 L-48,24 L-44,24 L-44,23 L-38,23 L-38,22 L-33,22 L-33,21 L-25,21 L-25,20 L-17,20 L-17,16 L-16,16 L-16,13 L-15,13 L-15,11 L-14,11 L-14,9 L-13,9 L-13,8 L-12,8 L-12,7 L-11,7 L-11,6 L-10,6 L-10,5 L-9,5 L-9,4 L-8,4 L-8,3 L-6,3 L-6,2 L-4,2 L-4,1 L0,1 Z " fill="#3CC19B" transform="translate(506,330)"/>
<path d="M0,0 L40,0 L40,1 L41,1 L41,2 L42,2 L42,3 L43,3 L43,127 L-19,127 L-19,124 L-20,124 L-20,121 L-21,121 L-21,118 L-22,118 L-22,116 L-23,116 L-23,114 L-24,114 L-24,112 L-25,112 L-25,110 L-26,110 L-26,108 L-27,108 L-27,107 L-28,107 L-28,105 L-29,105 L-29,103 L-30,103 L-30,102 L-31,102 L-31,100 L-32,100 L-32,98 L-33,98 L-33,97 L-34,97 L-34,95 L-35,95 L-35,94 L-36,94 L-36,93 L-37,93 L-37,91 L-38,91 L-38,90 L-39,90 L-39,89 L-40,89 L-40,87 L-41,87 L-41,86 L-42,86 L-42,85 L-43,85 L-43,83 L-44,83 L-44,82 L-45,82 L-45,81 L-46,81 L-46,80 L-47,80 L-47,78 L-48,78 L-48,77 L-49,77 L-49,76 L-50,76 L-50,75 L-51,75 L-51,74 L-52,74 L-52,73 L-53,73 L-53,72 L-54,72 L-54,71 L-55,71 L-55,70 L-56,70 L-56,69 L-57,69 L-57,68 L-58,68 L-58,67 L-59,67 L-59,66 L-60,66 L-60,65 L-61,65 L-61,64 L-62,64 L-62,63 L-63,63 L-63,62 L-64,62 L-64,61 L-65,61 L-65,60 L-66,60 L-66,59 L-67,59 L-67,58 L-68,58 L-68,57 L-69,57 L-69,56 L-67,56 L-67,57 L-66,57 L-66,58 L-65,58 L-65,59 L-64,59 L-64,60 L-63,60 L-63,61 L-62,61 L-62,62 L-61,62 L-61,63 L-60,63 L-60,64 L-56,64 L-56,66 L-57,66 L-57,67 L-56,67 L-56,68 L-55,68 L-55,67 L-52,67 L-52,68 L-53,68 L-53,69 L-52,69 L-52,70 L-50,70 L-50,71 L-49,71 L-49,75 L-47,75 L-47,76 L-46,76 L-46,79 L-43,79 L-43,80 L-41,80 L-41,83 L-40,83 L-40,84 L-39,84 L-39,85 L-38,85 L-38,84 L-37,84 L-37,83 L-36,83 L-36,87 L-37,87 L-37,88 L-35,88 L-35,89 L-34,89 L-34,92 L-33,92 L-33,93 L-32,93 L-32,94 L-31,94 L-31,95 L-32,95 L-32,96 L-31,96 L-31,97 L-30,97 L-30,98 L-29,98 L-29,101 L-26,101 L-26,104 L-27,104 L-27,105 L-25,105 L-25,106 L-24,106 L-24,108 L-23,108 L-23,110 L-22,110 L-22,111 L-19,111 L-19,112 L-21,112 L-21,113 L-20,113 L-20,115 L-19,115 L-19,116 L-20,116 L-20,117 L-19,117 L-19,119 L-17,119 L-17,120 L-18,120 L-18,121 L-19,121 L-19,122 L-16,122 L-16,124 L-10,124 L-10,123 L-9,123 L-9,124 L-5,124 L-5,120 L-6,120 L-6,117 L-5,117 L-5,113 L-6,113 L-6,109 L-7,109 L-7,108 L-8,108 L-8,107 L-7,107 L-7,106 L-5,106 L-5,102 L-6,102 L-6,89 L-7,89 L-7,87 L-6,87 L-6,85 L-7,85 L-7,79 L-8,79 L-8,78 L-7,78 L-7,76 L-6,76 L-6,75 L-7,75 L-7,73 L-6,73 L-6,72 L-7,72 L-7,69 L-6,69 L-6,68 L-7,68 L-7,67 L-8,67 L-8,66 L-9,66 L-9,64 L-10,64 L-10,62 L-11,62 L-11,61 L-12,61 L-12,60 L-13,60 L-13,59 L-17,59 L-17,56 L-21,56 L-21,53 L-22,53 L-22,51 L-23,51 L-23,50 L-24,50 L-24,49 L-25,49 L-25,48 L-26,48 L-26,47 L-27,47 L-27,46 L-29,46 L-29,45 L-32,45 L-32,42 L-33,42 L-33,41 L-34,41 L-34,40 L-36,40 L-36,39 L-37,39 L-37,38 L-39,38 L-39,36 L-37,36 L-37,37 L-36,37 L-36,38 L-35,38 L-35,39 L-33,39 L-33,40 L-32,40 L-32,41 L-31,41 L-31,42 L-30,42 L-30,43 L-29,43 L-29,44 L-27,44 L-27,45 L-26,45 L-26,46 L-25,46 L-25,47 L-24,47 L-24,48 L-23,48 L-23,49 L-22,49 L-22,50 L-21,50 L-21,51 L-20,51 L-20,52 L-18,52 L-18,53 L-17,53 L-17,54 L-16,54 L-16,55 L-15,55 L-15,56 L-14,56 L-14,57 L-13,57 L-13,58 L-12,58 L-12,59 L-11,59 L-11,60 L-10,60 L-10,61 L-9,61 L-9,62 L-8,62 L-8,63 L-7,63 L-7,65 L-5,65 L-5,15 L-6,15 L-6,14 L-5,14 L-5,5 L-4,5 L-4,4 L-3,4 L-3,3 L-2,3 L-2,2 L-1,2 L-1,1 L0,1 Z M-36,89 L-36,90 L-35,90 L-35,89 Z " fill="#073B57" transform="translate(690,428)"/>
<path d="M0,0 L39,0 L39,1 L41,1 L41,2 L42,2 L42,3 L43,3 L43,4 L44,4 L44,5 L45,5 L45,7 L46,7 L46,126 L-3,126 L-3,4 L-2,4 L-2,2 L-1,2 L-1,1 L0,1 Z " fill="#073955" transform="translate(289,428)"/>
<path d="M0,0 L40,0 L40,1 L45,1 L45,2 L48,2 L48,3 L50,3 L50,4 L52,4 L52,5 L54,5 L54,6 L55,6 L55,7 L56,7 L56,8 L57,8 L57,9 L58,9 L58,10 L59,10 L59,12 L60,12 L60,14 L61,14 L61,16 L62,16 L62,19 L63,19 L63,29 L62,29 L62,31 L61,31 L61,33 L60,33 L60,35 L59,35 L59,36 L58,36 L58,37 L57,37 L57,38 L56,38 L56,39 L55,39 L55,40 L53,40 L53,41 L51,41 L51,42 L48,42 L48,43 L47,43 L47,44 L50,44 L50,45 L54,45 L54,46 L56,46 L56,47 L57,47 L57,48 L59,48 L59,49 L60,49 L60,50 L61,50 L61,51 L62,51 L62,53 L63,53 L63,55 L64,55 L64,57 L65,57 L65,71 L64,71 L64,74 L63,74 L63,76 L62,76 L62,78 L61,78 L61,79 L60,79 L60,80 L59,80 L59,82 L58,82 L58,83 L56,83 L56,84 L55,84 L55,85 L53,85 L53,86 L51,86 L51,87 L49,87 L49,88 L45,88 L45,89 L42,89 L42,90 L0,90 Z " fill="#09344F" transform="translate(387,598)"/>
<path d="M0,0 L10,0 L10,1 L14,1 L14,2 L17,2 L17,3 L18,3 L18,4 L20,4 L20,5 L21,5 L21,6 L22,6 L22,7 L23,7 L23,8 L24,8 L24,10 L26,10 L26,2 L40,2 L40,66 L39,66 L39,71 L38,71 L38,74 L37,74 L37,76 L36,76 L36,78 L35,78 L35,80 L34,80 L34,81 L33,81 L33,82 L32,82 L32,83 L31,83 L31,84 L30,84 L30,85 L29,85 L29,86 L27,86 L27,87 L25,87 L25,88 L23,88 L23,89 L20,89 L20,90 L15,90 L15,91 L0,91 L0,90 L-4,90 L-4,89 L-7,89 L-7,88 L-9,88 L-9,87 L-11,87 L-11,86 L-13,86 L-13,85 L-14,85 L-14,84 L-15,84 L-15,83 L-16,83 L-16,82 L-17,82 L-17,81 L-18,81 L-18,79 L-19,79 L-19,78 L-20,78 L-20,75 L-21,75 L-21,71 L-6,71 L-6,72 L-5,72 L-5,74 L-4,74 L-4,75 L-3,75 L-3,76 L-2,76 L-2,77 L0,77 L0,78 L14,78 L14,77 L16,77 L16,76 L18,76 L18,75 L19,75 L19,74 L20,74 L20,73 L21,73 L21,72 L22,72 L22,70 L23,70 L23,67 L24,67 L24,64 L25,64 L25,55 L24,55 L24,56 L23,56 L23,57 L22,57 L22,58 L21,58 L21,59 L20,59 L20,60 L19,60 L19,61 L18,61 L18,62 L16,62 L16,63 L13,63 L13,64 L9,64 L9,65 L1,65 L1,64 L-3,64 L-3,63 L-6,63 L-6,62 L-8,62 L-8,61 L-9,61 L-9,60 L-11,60 L-11,59 L-12,59 L-12,58 L-13,58 L-13,57 L-14,57 L-14,56 L-15,56 L-15,55 L-16,55 L-16,54 L-17,54 L-17,52 L-18,52 L-18,50 L-19,50 L-19,48 L-20,48 L-20,46 L-21,46 L-21,42 L-22,42 L-22,23 L-21,23 L-21,20 L-20,20 L-20,17 L-19,17 L-19,15 L-18,15 L-18,13 L-17,13 L-17,11 L-16,11 L-16,10 L-15,10 L-15,9 L-14,9 L-14,8 L-13,8 L-13,7 L-12,7 L-12,6 L-11,6 L-11,5 L-9,5 L-9,4 L-8,4 L-8,3 L-6,3 L-6,2 L-4,2 L-4,1 L0,1 Z " fill="#08314C" transform="translate(634,623)"/>
<path d="M0,0 L16,0 L16,90 L1,90 L1,86 L0,86 L0,81 L-1,81 L-1,82 L-2,82 L-2,83 L-3,83 L-3,84 L-4,84 L-4,85 L-5,85 L-5,86 L-6,86 L-6,87 L-7,87 L-7,88 L-9,88 L-9,89 L-12,89 L-12,90 L-15,90 L-15,91 L-25,91 L-25,90 L-29,90 L-29,89 L-32,89 L-32,88 L-34,88 L-34,87 L-35,87 L-35,86 L-37,86 L-37,85 L-38,85 L-38,84 L-39,84 L-39,83 L-40,83 L-40,82 L-41,82 L-41,81 L-42,81 L-42,79 L-43,79 L-43,78 L-44,78 L-44,76 L-45,76 L-45,74 L-46,74 L-46,71 L-47,71 L-47,67 L-48,67 L-48,51 L-47,51 L-47,46 L-46,46 L-46,43 L-45,43 L-45,41 L-44,41 L-44,39 L-43,39 L-43,37 L-42,37 L-42,36 L-41,36 L-41,34 L-40,34 L-40,33 L-39,33 L-39,32 L-38,32 L-38,31 L-37,31 L-37,30 L-35,30 L-35,29 L-33,29 L-33,28 L-31,28 L-31,27 L-29,27 L-29,26 L-26,26 L-26,25 L-14,25 L-14,26 L-11,26 L-11,27 L-8,27 L-8,28 L-7,28 L-7,29 L-5,29 L-5,30 L-4,30 L-4,31 L-3,31 L-3,32 L-2,32 L-2,34 L0,34 Z " fill="#08344F" transform="translate(586,598)"/>
<path d="M0,0 L19,0 L19,2 L20,2 L20,5 L21,5 L21,8 L22,8 L22,11 L23,11 L23,13 L24,13 L24,16 L25,16 L25,19 L26,19 L26,22 L27,22 L27,24 L28,24 L28,27 L29,27 L29,30 L30,30 L30,33 L31,33 L31,35 L32,35 L32,38 L33,38 L33,41 L34,41 L34,44 L35,44 L35,47 L36,47 L36,49 L37,49 L37,52 L38,52 L38,55 L39,55 L39,58 L40,58 L40,60 L41,60 L41,63 L42,63 L42,66 L43,66 L43,69 L44,69 L44,72 L45,72 L45,74 L46,74 L46,77 L47,77 L47,80 L48,80 L48,82 L49,82 L49,85 L50,85 L50,88 L51,88 L51,90 L34,90 L34,88 L33,88 L33,85 L32,85 L32,82 L31,82 L31,79 L30,79 L30,76 L29,76 L29,73 L28,73 L28,71 L27,71 L27,68 L-7,68 L-7,70 L-8,70 L-8,73 L-9,73 L-9,76 L-10,76 L-10,79 L-11,79 L-11,82 L-12,82 L-12,84 L-13,84 L-13,87 L-14,87 L-14,90 L-30,90 L-30,87 L-29,87 L-29,84 L-28,84 L-28,81 L-27,81 L-27,78 L-26,78 L-26,75 L-25,75 L-25,72 L-24,72 L-24,69 L-23,69 L-23,66 L-22,66 L-22,64 L-21,64 L-21,61 L-20,61 L-20,58 L-19,58 L-19,55 L-18,55 L-18,52 L-17,52 L-17,49 L-16,49 L-16,46 L-15,46 L-15,43 L-14,43 L-14,40 L-13,40 L-13,38 L-12,38 L-12,35 L-11,35 L-11,32 L-10,32 L-10,29 L-9,29 L-9,26 L-8,26 L-8,23 L-7,23 L-7,20 L-6,20 L-6,17 L-5,17 L-5,14 L-4,14 L-4,11 L-3,11 L-3,9 L-2,9 L-2,6 L-1,6 L-1,3 L0,3 Z " fill="#1CAFA2" transform="translate(804,598)"/>
<path d="M0,0 L15,0 L15,1 L20,1 L20,2 L22,2 L22,3 L25,3 L25,4 L27,4 L27,5 L28,5 L28,6 L29,6 L29,7 L31,7 L31,8 L32,8 L32,9 L33,9 L33,11 L34,11 L34,12 L35,12 L35,14 L36,14 L36,16 L37,16 L37,18 L38,18 L38,23 L39,23 L39,26 L23,26 L23,22 L22,22 L22,20 L21,20 L21,19 L20,19 L20,18 L19,18 L19,17 L18,17 L18,16 L16,16 L16,15 L13,15 L13,14 L2,14 L2,15 L-1,15 L-1,16 L-2,16 L-2,17 L-3,17 L-3,18 L-4,18 L-4,19 L-5,19 L-5,20 L-6,20 L-6,22 L-7,22 L-7,28 L-6,28 L-6,30 L-5,30 L-5,32 L-4,32 L-4,33 L-2,33 L-2,34 L-1,34 L-1,35 L1,35 L1,36 L4,36 L4,37 L6,37 L6,38 L10,38 L10,39 L14,39 L14,40 L17,40 L17,41 L20,41 L20,42 L23,42 L23,43 L26,43 L26,44 L28,44 L28,45 L29,45 L29,46 L31,46 L31,47 L32,47 L32,48 L33,48 L33,49 L35,49 L35,51 L36,51 L36,52 L37,52 L37,54 L38,54 L38,56 L39,56 L39,59 L40,59 L40,71 L39,71 L39,75 L38,75 L38,77 L37,77 L37,79 L36,79 L36,80 L35,80 L35,81 L34,81 L34,82 L33,82 L33,83 L32,83 L32,84 L31,84 L31,85 L30,85 L30,86 L29,86 L29,87 L27,87 L27,88 L25,88 L25,89 L23,89 L23,90 L20,90 L20,91 L15,91 L15,92 L-2,92 L-2,91 L-5,91 L-5,90 L-8,90 L-8,89 L-10,89 L-10,88 L-12,88 L-12,87 L-14,87 L-14,86 L-15,86 L-15,85 L-17,85 L-17,84 L-18,84 L-18,83 L-19,83 L-19,82 L-20,82 L-20,80 L-21,80 L-21,79 L-22,79 L-22,77 L-23,77 L-23,75 L-24,75 L-24,71 L-25,71 L-25,64 L-9,64 L-9,69 L-8,69 L-8,71 L-7,71 L-7,73 L-6,73 L-6,74 L-5,74 L-5,75 L-4,75 L-4,76 L-2,76 L-2,77 L0,77 L0,78 L14,78 L14,77 L17,77 L17,76 L18,76 L18,75 L19,75 L19,74 L20,74 L20,73 L21,73 L21,72 L22,72 L22,70 L23,70 L23,63 L22,63 L22,61 L21,61 L21,60 L20,60 L20,59 L19,59 L19,58 L18,58 L18,57 L16,57 L16,56 L14,56 L14,55 L11,55 L11,54 L8,54 L8,53 L4,53 L4,52 L1,52 L1,51 L-3,51 L-3,50 L-5,50 L-5,49 L-8,49 L-8,48 L-10,48 L-10,47 L-12,47 L-12,46 L-14,46 L-14,45 L-15,45 L-15,44 L-16,44 L-16,43 L-17,43 L-17,42 L-18,42 L-18,41 L-19,41 L-19,40 L-20,40 L-20,39 L-21,39 L-21,37 L-22,37 L-22,34 L-23,34 L-23,30 L-24,30 L-24,22 L-23,22 L-23,19 L-22,19 L-22,17 L-21,17 L-21,15 L-20,15 L-20,13 L-19,13 L-19,12 L-18,12 L-18,10 L-17,10 L-17,9 L-16,9 L-16,8 L-15,8 L-15,7 L-13,7 L-13,6 L-12,6 L-12,5 L-10,5 L-10,4 L-9,4 L-9,3 L-6,3 L-6,2 L-3,2 L-3,1 L0,1 Z " fill="#09334E" transform="translate(178,597)"/>
<path d="M0,0 L8,0 L8,1 L14,1 L14,2 L21,2 L21,3 L25,3 L25,4 L30,4 L30,5 L34,5 L34,6 L38,6 L38,7 L41,7 L41,8 L45,8 L45,9 L48,9 L48,10 L51,10 L51,11 L54,11 L54,12 L57,12 L57,13 L60,13 L60,14 L62,14 L62,15 L66,15 L66,13 L67,13 L67,12 L68,12 L68,11 L69,11 L69,10 L70,10 L70,9 L72,9 L72,8 L74,8 L74,7 L76,7 L76,6 L79,6 L79,5 L85,5 L85,6 L89,6 L89,7 L92,7 L92,8 L94,8 L94,9 L95,9 L95,10 L96,10 L96,11 L97,11 L97,12 L98,12 L98,13 L99,13 L99,14 L100,14 L100,16 L101,16 L101,18 L102,18 L102,20 L103,20 L103,31 L102,31 L102,34 L104,34 L104,35 L105,35 L105,36 L107,36 L107,37 L108,37 L108,38 L110,38 L110,39 L111,39 L111,40 L112,40 L112,41 L114,41 L114,42 L115,42 L115,43 L117,43 L117,44 L118,44 L118,45 L119,45 L119,46 L121,46 L121,47 L122,47 L122,48 L123,48 L123,49 L125,49 L125,50 L126,50 L126,51 L127,51 L127,52 L128,52 L128,53 L130,53 L130,54 L131,54 L131,55 L132,55 L132,56 L134,56 L134,57 L135,57 L135,58 L136,58 L136,59 L137,59 L137,60 L138,60 L138,61 L139,61 L139,62 L141,62 L141,63 L142,63 L142,64 L143,64 L143,65 L144,65 L144,66 L145,66 L145,67 L146,67 L146,68 L147,68 L147,69 L148,69 L148,70 L149,70 L149,71 L150,71 L150,72 L152,72 L152,73 L153,73 L153,74 L154,74 L154,75 L155,75 L155,76 L156,76 L156,77 L157,77 L157,78 L158,78 L158,79 L160,79 L160,80 L159,80 L159,81 L158,81 L158,82 L157,82 L157,83 L156,83 L156,92 L154,92 L154,91 L153,91 L153,90 L152,90 L152,89 L151,89 L151,88 L150,88 L150,87 L149,87 L149,86 L148,86 L148,85 L147,85 L147,84 L146,84 L146,83 L145,83 L145,82 L144,82 L144,81 L143,81 L143,80 L142,80 L142,79 L141,79 L141,78 L140,78 L140,77 L139,77 L139,76 L138,76 L138,75 L137,75 L137,74 L136,74 L136,73 L135,73 L135,72 L134,72 L134,71 L133,71 L133,70 L131,70 L131,69 L130,69 L130,68 L129,68 L129,67 L128,67 L128,66 L127,66 L127,65 L126,65 L126,64 L124,64 L124,63 L123,63 L123,62 L122,62 L122,61 L121,61 L121,60 L119,60 L119,59 L118,59 L118,58 L117,58 L117,57 L116,57 L116,56 L114,56 L114,55 L113,55 L113,54 L112,54 L112,53 L110,53 L110,52 L109,52 L109,51 L107,51 L107,50 L106,50 L106,49 L104,49 L104,48 L103,48 L103,47 L101,47 L101,46 L100,46 L100,45 L98,45 L98,44 L97,44 L97,43 L95,43 L95,44 L94,44 L94,45 L92,45 L92,46 L89,46 L89,47 L86,47 L86,48 L78,48 L78,47 L75,47 L75,46 L73,46 L73,45 L71,45 L71,44 L70,44 L70,43 L68,43 L68,42 L67,42 L67,40 L66,40 L66,39 L65,39 L65,38 L64,38 L64,36 L63,36 L63,33 L62,33 L62,27 L61,27 L61,26 L59,26 L59,25 L56,25 L56,24 L53,24 L53,23 L51,23 L51,22 L48,22 L48,21 L45,21 L45,20 L41,20 L41,19 L38,19 L38,18 L34,18 L34,17 L30,17 L30,16 L25,16 L25,15 L20,15 L20,14 L15,14 L15,13 L9,13 L9,12 L3,12 L3,11 L-2,11 L-2,10 L5,10 L5,9 L1,9 L1,8 L2,8 L2,7 L1,7 L1,6 L2,6 L2,4 L1,4 L1,3 L2,3 L2,1 L0,1 Z " fill="#18A4B1" transform="translate(529,350)"/>
<path d="M0,0 L12,0 L12,1 L17,1 L17,2 L20,2 L20,3 L22,3 L22,4 L23,4 L23,5 L25,5 L25,6 L26,6 L26,7 L27,7 L27,8 L28,8 L28,9 L29,9 L29,10 L30,10 L30,12 L31,12 L31,13 L32,13 L32,15 L33,15 L33,17 L34,17 L34,20 L35,20 L35,23 L36,23 L36,38 L-8,38 L-8,43 L-7,43 L-7,46 L-6,46 L-6,47 L-5,47 L-5,49 L-4,49 L-4,50 L-2,50 L-2,51 L-1,51 L-1,52 L1,52 L1,53 L12,53 L12,52 L15,52 L15,51 L17,51 L17,50 L18,50 L18,49 L19,49 L19,47 L35,47 L35,48 L34,48 L34,51 L33,51 L33,53 L32,53 L32,55 L31,55 L31,56 L30,56 L30,57 L29,57 L29,58 L28,58 L28,59 L27,59 L27,60 L26,60 L26,61 L24,61 L24,62 L23,62 L23,63 L21,63 L21,64 L18,64 L18,65 L14,65 L14,66 L-1,66 L-1,65 L-5,65 L-5,64 L-7,64 L-7,63 L-9,63 L-9,62 L-11,62 L-11,61 L-13,61 L-13,60 L-14,60 L-14,59 L-15,59 L-15,58 L-16,58 L-16,57 L-17,57 L-17,56 L-18,56 L-18,54 L-19,54 L-19,53 L-20,53 L-20,51 L-21,51 L-21,49 L-22,49 L-22,46 L-23,46 L-23,41 L-24,41 L-24,25 L-23,25 L-23,21 L-22,21 L-22,18 L-21,18 L-21,16 L-20,16 L-20,14 L-19,14 L-19,13 L-18,13 L-18,11 L-17,11 L-17,10 L-16,10 L-16,9 L-15,9 L-15,8 L-14,8 L-14,7 L-13,7 L-13,6 L-12,6 L-12,5 L-10,5 L-10,4 L-8,4 L-8,3 L-6,3 L-6,2 L-4,2 L-4,1 L0,1 Z " fill="#08314B" transform="translate(709,623)"/>
<path d="M0,0 L16,0 L16,52 L18,52 L18,50 L19,50 L19,49 L20,49 L20,48 L21,48 L21,47 L22,47 L22,46 L23,46 L23,45 L24,45 L24,44 L25,44 L25,43 L26,43 L26,42 L27,42 L27,41 L28,41 L28,40 L29,40 L29,39 L30,39 L30,38 L31,38 L31,37 L32,37 L32,36 L33,36 L33,35 L34,35 L34,34 L35,34 L35,33 L36,33 L36,32 L37,32 L37,30 L38,30 L38,29 L39,29 L39,28 L58,28 L58,29 L57,29 L57,30 L56,30 L56,31 L55,31 L55,32 L54,32 L54,33 L53,33 L53,34 L52,34 L52,35 L51,35 L51,36 L50,36 L50,37 L49,37 L49,38 L48,38 L48,39 L47,39 L47,40 L46,40 L46,41 L45,41 L45,42 L44,42 L44,44 L43,44 L43,45 L42,45 L42,46 L41,46 L41,47 L40,47 L40,48 L39,48 L39,49 L38,49 L38,50 L37,50 L37,51 L36,51 L36,52 L35,52 L35,53 L34,53 L34,54 L33,54 L33,56 L34,56 L34,57 L35,57 L35,59 L36,59 L36,60 L37,60 L37,61 L38,61 L38,63 L39,63 L39,64 L40,64 L40,65 L41,65 L41,66 L42,66 L42,68 L43,68 L43,69 L44,69 L44,70 L45,70 L45,72 L46,72 L46,73 L47,73 L47,74 L48,74 L48,75 L49,75 L49,77 L50,77 L50,78 L51,78 L51,79 L52,79 L52,80 L53,80 L53,82 L54,82 L54,83 L55,83 L55,84 L56,84 L56,86 L57,86 L57,87 L58,87 L58,88 L59,88 L59,89 L60,89 L60,91 L42,91 L42,90 L41,90 L41,89 L40,89 L40,88 L39,88 L39,87 L38,87 L38,85 L37,85 L37,84 L36,84 L36,83 L35,83 L35,82 L34,82 L34,80 L33,80 L33,79 L32,79 L32,78 L31,78 L31,77 L30,77 L30,75 L29,75 L29,74 L28,74 L28,73 L27,73 L27,72 L26,72 L26,70 L25,70 L25,69 L24,69 L24,68 L23,68 L23,67 L22,67 L22,65 L21,65 L21,64 L20,64 L20,63 L19,63 L19,62 L18,62 L18,60 L16,60 L16,61 L17,61 L17,91 L0,91 Z " fill="#08324D" transform="translate(228,597)"/>
<path d="M0,0 L7,0 L7,1 L10,1 L10,2 L12,2 L12,3 L14,3 L14,4 L15,4 L15,5 L16,5 L16,6 L18,6 L18,8 L19,8 L19,9 L20,9 L20,11 L21,11 L21,13 L22,13 L22,15 L23,15 L23,21 L25,21 L25,23 L24,23 L24,24 L25,24 L25,26 L24,26 L24,27 L25,27 L25,28 L24,28 L24,29 L28,29 L28,30 L21,30 L21,33 L20,33 L20,35 L19,35 L19,36 L18,36 L18,37 L17,37 L17,38 L16,38 L16,39 L15,39 L15,40 L13,40 L13,41 L11,41 L11,42 L8,42 L8,43 L-2,43 L-2,42 L-5,42 L-5,41 L-7,41 L-7,40 L-8,40 L-8,39 L-9,39 L-9,38 L-11,38 L-11,37 L-12,37 L-12,35 L-13,35 L-13,34 L-14,34 L-14,32 L-15,32 L-15,31 L-20,31 L-20,32 L-28,32 L-28,33 L-34,33 L-34,34 L-39,34 L-39,35 L-44,35 L-44,36 L-48,36 L-48,37 L-52,37 L-52,38 L-56,38 L-56,39 L-59,39 L-59,40 L-63,40 L-63,41 L-65,41 L-65,42 L-68,42 L-68,43 L-71,43 L-71,44 L-74,44 L-74,45 L-77,45 L-77,51 L-78,51 L-78,53 L-79,53 L-79,46 L-78,46 L-78,40 L-79,40 L-79,36 L-82,36 L-82,35 L-80,35 L-80,34 L-78,34 L-78,33 L-75,33 L-75,32 L-72,32 L-72,31 L-70,31 L-70,30 L-67,30 L-67,29 L-63,29 L-63,28 L-60,28 L-60,27 L-56,27 L-56,26 L-52,26 L-52,25 L-48,25 L-48,24 L-44,24 L-44,23 L-38,23 L-38,22 L-33,22 L-33,21 L-25,21 L-25,20 L-17,20 L-17,16 L-16,16 L-16,13 L-15,13 L-15,11 L-14,11 L-14,9 L-13,9 L-13,8 L-12,8 L-12,7 L-11,7 L-11,6 L-10,6 L-10,5 L-9,5 L-9,4 L-8,4 L-8,3 L-6,3 L-6,2 L-4,2 L-4,1 L0,1 Z " fill="#22B39F" transform="translate(506,330)"/>
<path d="M0,0 L17,0 L17,90 L0,90 Z " fill="#26B6AC" transform="translate(863,598)"/>
<path d="M0,0 L16,0 L16,91 L0,91 Z " fill="#0A354F" transform="translate(356,597)"/>
<path d="M0,0 L16,0 L16,90 L0,90 Z " fill="#07304A" transform="translate(325,597)"/>
<path d="M0,0 L10,0 L10,16 L-3,16 L-3,17 L-5,17 L-5,18 L-6,18 L-6,19 L-8,19 L-8,20 L-9,20 L-9,21 L-10,21 L-10,23 L-11,23 L-11,24 L-12,24 L-12,65 L-29,65 L-29,2 L-15,2 L-15,6 L-14,6 L-14,13 L-13,13 L-13,11 L-12,11 L-12,9 L-11,9 L-11,8 L-10,8 L-10,7 L-9,7 L-9,6 L-8,6 L-8,5 L-7,5 L-7,4 L-6,4 L-6,3 L-4,3 L-4,2 L-3,2 L-3,1 L0,1 Z " fill="#093752" transform="translate(492,623)"/>
<path d="M0,0 L13,0 L13,50 L17,50 L17,52 L18,52 L18,53 L16,53 L16,56 L14,56 L14,57 L13,57 L13,87 L0,87 Z " fill="#083954" transform="translate(230,599)"/>
<path d="M0,0 L17,0 L17,63 L0,63 Z " fill="#083955" transform="translate(295,625)"/>
<path d="M0,0 L16,0 L16,63 L0,63 Z " fill="#06304B" transform="translate(511,625)"/>
<path d="M0,0 L12,0 L12,1 L14,1 L14,2 L15,2 L15,3 L17,3 L17,5 L18,5 L18,6 L19,6 L19,8 L20,8 L20,10 L21,10 L21,13 L22,13 L22,23 L21,23 L21,28 L20,28 L20,30 L19,30 L19,32 L18,32 L18,33 L17,33 L17,34 L16,34 L16,35 L15,35 L15,36 L13,36 L13,37 L10,37 L10,38 L1,38 L1,37 L-2,37 L-2,36 L-3,36 L-3,35 L-4,35 L-4,34 L-6,34 L-6,32 L-7,32 L-7,31 L-8,31 L-8,29 L-9,29 L-9,25 L-10,25 L-10,12 L-9,12 L-9,9 L-8,9 L-8,7 L-7,7 L-7,6 L-6,6 L-6,4 L-5,4 L-5,3 L-3,3 L-3,2 L-2,2 L-2,1 L0,1 Z " fill="#F9FAFA" transform="translate(564,637)"/>
<path d="M0,0 L5,0 L5,1 L9,1 L9,2 L11,2 L11,3 L12,3 L12,4 L13,4 L13,5 L14,5 L14,6 L15,6 L15,7 L16,7 L16,9 L17,9 L17,12 L18,12 L18,26 L17,26 L17,29 L16,29 L16,31 L15,31 L15,33 L14,33 L14,34 L13,34 L13,35 L11,35 L11,36 L10,36 L10,37 L7,37 L7,38 L-3,38 L-3,37 L-5,37 L-5,36 L-7,36 L-7,35 L-8,35 L-8,34 L-9,34 L-9,33 L-10,33 L-10,32 L-11,32 L-11,30 L-12,30 L-12,28 L-13,28 L-13,23 L-14,23 L-14,15 L-13,15 L-13,11 L-12,11 L-12,9 L-11,9 L-11,7 L-10,7 L-10,6 L-9,6 L-9,5 L-8,5 L-8,4 L-7,4 L-7,3 L-6,3 L-6,2 L-4,2 L-4,1 L0,1 Z " fill="#F9FAFA" transform="translate(641,636)"/>
<path d="M0,0 L1,0 L1,8 L2,8 L2,11 L1,11 L1,13 L2,13 L2,17 L3,17 L3,18 L4,18 L4,19 L7,19 L7,20 L6,20 L6,21 L5,21 L5,22 L3,22 L3,23 L2,23 L2,24 L0,24 L0,25 L-1,25 L-1,26 L-3,26 L-3,27 L-4,27 L-4,28 L-5,28 L-5,29 L-7,29 L-7,30 L-8,30 L-8,31 L-10,31 L-10,32 L-11,32 L-11,33 L-12,33 L-12,34 L-14,34 L-14,35 L-15,35 L-15,36 L-16,36 L-16,37 L-17,37 L-17,38 L-19,38 L-19,39 L-20,39 L-20,40 L-21,40 L-21,41 L-22,41 L-22,42 L-24,42 L-24,43 L-25,43 L-25,44 L-26,44 L-26,45 L-27,45 L-27,46 L-28,46 L-28,47 L-29,47 L-29,48 L-31,48 L-31,49 L-32,49 L-32,50 L-33,50 L-33,51 L-34,51 L-34,52 L-35,52 L-35,53 L-36,53 L-36,54 L-37,54 L-37,55 L-38,55 L-38,56 L-39,56 L-39,57 L-40,57 L-40,58 L-41,58 L-41,59 L-42,59 L-42,60 L-43,60 L-43,61 L-44,61 L-44,62 L-45,62 L-45,63 L-46,63 L-46,64 L-47,64 L-47,65 L-48,65 L-48,66 L-49,66 L-49,67 L-50,67 L-50,68 L-51,68 L-51,69 L-52,69 L-52,70 L-53,70 L-53,63 L-54,63 L-54,61 L-55,61 L-55,60 L-56,60 L-56,59 L-57,59 L-57,58 L-56,58 L-56,57 L-55,57 L-55,56 L-54,56 L-54,55 L-53,55 L-53,54 L-52,54 L-52,53 L-51,53 L-51,52 L-50,52 L-50,51 L-49,51 L-49,50 L-48,50 L-48,49 L-47,49 L-47,48 L-46,48 L-46,47 L-45,47 L-45,46 L-44,46 L-44,45 L-43,45 L-43,44 L-42,44 L-42,43 L-41,43 L-41,42 L-40,42 L-40,41 L-39,41 L-39,40 L-38,40 L-38,39 L-36,39 L-36,38 L-35,38 L-35,37 L-34,37 L-34,36 L-33,36 L-33,35 L-32,35 L-32,34 L-30,34 L-30,33 L-29,33 L-29,32 L-28,32 L-28,31 L-27,31 L-27,30 L-25,30 L-25,29 L-24,29 L-24,28 L-23,28 L-23,27 L-22,27 L-22,26 L-20,26 L-20,25 L-19,25 L-19,24 L-18,24 L-18,23 L-16,23 L-16,22 L-15,22 L-15,21 L-13,21 L-13,20 L-12,20 L-12,19 L-11,19 L-11,18 L-9,18 L-9,17 L-8,17 L-8,16 L-6,16 L-6,15 L-5,15 L-5,14 L-4,14 L-4,13 L-2,13 L-2,12 L-1,12 L-1,11 L0,11 Z " fill="#27B6AC" transform="translate(388,372)"/>
<path d="M0,0 L1,0 L1,4 L3,4 L3,5 L4,5 L4,6 L6,6 L6,7 L7,7 L7,8 L9,8 L9,9 L10,9 L10,10 L11,10 L11,11 L13,11 L13,12 L14,12 L14,13 L16,13 L16,14 L17,14 L17,15 L18,15 L18,16 L20,16 L20,17 L21,17 L21,18 L22,18 L22,19 L24,19 L24,20 L25,20 L25,21 L26,21 L26,22 L27,22 L27,23 L29,23 L29,24 L30,24 L30,25 L31,25 L31,26 L33,26 L33,27 L34,27 L34,28 L35,28 L35,29 L36,29 L36,30 L37,30 L37,31 L38,31 L38,32 L40,32 L40,33 L41,33 L41,34 L42,34 L42,35 L43,35 L43,36 L44,36 L44,37 L45,37 L45,38 L46,38 L46,39 L47,39 L47,40 L48,40 L48,41 L49,41 L49,42 L51,42 L51,43 L52,43 L52,44 L53,44 L53,45 L54,45 L54,46 L55,46 L55,47 L56,47 L56,48 L57,48 L57,49 L59,49 L59,50 L58,50 L58,51 L57,51 L57,52 L56,52 L56,53 L55,53 L55,62 L53,62 L53,61 L52,61 L52,60 L51,60 L51,59 L50,59 L50,58 L49,58 L49,57 L48,57 L48,56 L47,56 L47,55 L46,55 L46,54 L45,54 L45,53 L44,53 L44,52 L43,52 L43,51 L42,51 L42,50 L41,50 L41,49 L40,49 L40,48 L39,48 L39,47 L38,47 L38,46 L37,46 L37,45 L36,45 L36,44 L35,44 L35,43 L34,43 L34,42 L33,42 L33,41 L32,41 L32,40 L30,40 L30,39 L29,39 L29,38 L28,38 L28,37 L27,37 L27,36 L26,36 L26,35 L25,35 L25,34 L23,34 L23,33 L22,33 L22,32 L21,32 L21,31 L20,31 L20,30 L18,30 L18,29 L17,29 L17,28 L16,28 L16,27 L15,27 L15,26 L13,26 L13,25 L12,25 L12,24 L11,24 L11,23 L9,23 L9,22 L8,22 L8,21 L6,21 L6,20 L5,20 L5,19 L3,19 L3,18 L2,18 L2,17 L0,17 L0,16 L-1,16 L-1,15 L-3,15 L-3,14 L-4,14 L-4,13 L-7,13 L-7,12 L-5,12 L-5,11 L-3,11 L-3,10 L-2,10 L-2,9 L-1,9 L-1,7 L0,7 L0,6 L1,6 L1,5 L0,5 Z " fill="#0690B8" transform="translate(630,380)"/>
<path d="M0,0 L18,0 L18,1 L23,1 L23,2 L25,2 L25,3 L27,3 L27,4 L28,4 L28,5 L29,5 L29,6 L30,6 L30,8 L31,8 L31,18 L30,18 L30,20 L29,20 L29,22 L28,22 L28,23 L26,23 L26,24 L24,24 L24,25 L21,25 L21,26 L0,26 Z " fill="#F9FAFA" transform="translate(404,648)"/>
<path d="M0,0 L20,0 L20,1 L23,1 L23,2 L24,2 L24,3 L26,3 L26,4 L27,4 L27,6 L28,6 L28,8 L29,8 L29,16 L28,16 L28,18 L27,18 L27,19 L26,19 L26,20 L25,20 L25,21 L24,21 L24,22 L22,22 L22,23 L18,23 L18,24 L0,24 Z " fill="#FAFBFB" transform="translate(404,612)"/>
<path d="M0,0 L2,0 L2,4 L3,4 L3,7 L4,7 L4,9 L5,9 L5,12 L6,12 L6,15 L7,15 L7,18 L8,18 L8,21 L9,21 L9,24 L10,24 L10,26 L11,26 L11,29 L12,29 L12,32 L13,32 L13,34 L14,34 L14,36 L-11,36 L-11,33 L-10,33 L-10,30 L-9,30 L-9,27 L-8,27 L-8,24 L-7,24 L-7,21 L-6,21 L-6,18 L-5,18 L-5,15 L-4,15 L-4,12 L-3,12 L-3,9 L-2,9 L-2,6 L-1,6 L-1,3 L0,3 Z " fill="#F7FBFA" transform="translate(812,617)"/>
<path d="M0,0 L1,0 L1,1 L2,1 L2,2 L3,2 L3,126 L-59,126 L-59,122 L-58,122 L-58,124 L1,124 L1,2 L0,2 Z " fill="#001F3F" transform="translate(730,429)"/>
<path d="M0,0 L12,0 L12,1 L14,1 L14,2 L16,2 L16,3 L17,3 L17,4 L18,4 L18,6 L19,6 L19,8 L20,8 L20,15 L-8,15 L-8,10 L-7,10 L-7,7 L-6,7 L-6,5 L-5,5 L-5,4 L-4,4 L-4,3 L-3,3 L-3,2 L-2,2 L-2,1 L0,1 Z " fill="#F4F7F8" transform="translate(709,636)"/>
<path d="M0,0 L16,0 L16,52 L15,52 L15,2 L2,2 L2,89 L15,89 L15,59 L16,59 L16,61 L17,61 L17,91 L0,91 Z " fill="#1E3348" transform="translate(228,597)"/>
<path d="M0,0 L8,0 L8,1 L10,1 L10,2 L11,2 L11,3 L12,3 L12,5 L13,5 L13,7 L14,7 L14,11 L13,11 L13,14 L12,14 L12,15 L11,15 L11,17 L9,17 L9,18 L7,18 L7,19 L0,19 L0,18 L-2,18 L-2,17 L-3,17 L-3,16 L-4,16 L-4,14 L-5,14 L-5,12 L-6,12 L-6,6 L-5,6 L-5,4 L-4,4 L-4,3 L-3,3 L-3,2 L-2,2 L-2,1 L0,1 Z " fill="#0A324C" transform="translate(300,598)"/>
<path d="M0,0 L8,0 L8,1 L10,1 L10,2 L11,2 L11,3 L12,3 L12,4 L13,4 L13,6 L14,6 L14,13 L13,13 L13,15 L12,15 L12,16 L11,16 L11,17 L10,17 L10,18 L8,18 L8,19 L1,19 L1,18 L-1,18 L-1,17 L-2,17 L-2,16 L-3,16 L-3,15 L-4,15 L-4,13 L-5,13 L-5,5 L-4,5 L-4,4 L-3,4 L-3,2 L-1,2 L-1,1 L0,1 Z " fill="#08304A" transform="translate(515,598)"/>
<path d="M0,0 L7,0 L7,1 L9,1 L9,2 L10,2 L10,3 L11,3 L11,4 L12,4 L12,6 L13,6 L13,12 L12,12 L12,14 L11,14 L11,16 L10,16 L10,17 L9,17 L9,18 L7,18 L7,19 L0,19 L0,18 L-2,18 L-2,17 L-3,17 L-3,16 L-4,16 L-4,15 L-5,15 L-5,13 L-6,13 L-6,6 L-5,6 L-5,4 L-4,4 L-4,3 L-3,3 L-3,2 L-2,2 L-2,1 L0,1 Z " fill="#12A192" transform="translate(755,669)"/>
<path d="M0,0 L17,0 L17,63 L0,63 Z M2,1 L2,61 L15,61 L15,1 Z " fill="#2B4053" transform="translate(295,625)"/>
<path d="M0,0 L16,0 L16,90 L1,90 L1,83 L2,83 L2,88 L14,88 L14,1 L1,1 L1,34 L0,34 Z " fill="#1D3246" transform="translate(586,598)"/>
<path d="M0,0 L14,0 L14,8 L13,8 L13,1 L2,1 L2,61 L15,61 L15,24 L16,24 L16,22 L17,22 L17,63 L0,63 Z " fill="#1B3146" transform="translate(463,625)"/>
<path d="M0,0 L16,0 L16,1 L2,1 L2,2 L3,2 L3,88 L15,88 L15,89 L2,89 L2,30 L1,30 L1,89 L0,89 Z " fill="#1C455F" transform="translate(325,597)"/>
<path d="M0,0 L1,0 L1,4 L3,4 L3,5 L4,5 L4,6 L6,6 L6,7 L7,7 L7,8 L9,8 L9,9 L10,9 L10,10 L11,10 L11,11 L13,11 L13,12 L14,12 L14,13 L16,13 L16,14 L17,14 L17,15 L18,15 L18,16 L16,16 L16,15 L15,15 L15,16 L14,16 L14,19 L13,19 L13,20 L12,20 L12,21 L10,21 L10,22 L11,22 L11,23 L9,23 L9,22 L8,22 L8,21 L6,21 L6,20 L5,20 L5,19 L3,19 L3,18 L2,18 L2,17 L0,17 L0,16 L-1,16 L-1,15 L-3,15 L-3,14 L-4,14 L-4,13 L-7,13 L-7,12 L-5,12 L-5,11 L-3,11 L-3,10 L-2,10 L-2,9 L-1,9 L-1,7 L0,7 L0,6 L1,6 L1,5 L0,5 Z " fill="#0B96B3" transform="translate(630,380)"/>
<path d="M0,0 L1,0 L1,89 L-14,89 L-14,87 L-1,87 L-1,1 L0,1 Z " fill="#13B1A3" transform="translate(879,599)"/>
<path d="M0,0 L2,0 L2,1 L3,1 L3,2 L4,2 L4,3 L5,3 L5,4 L6,4 L6,5 L7,5 L7,6 L8,6 L8,7 L9,7 L9,8 L13,8 L13,10 L12,10 L12,11 L13,11 L13,12 L14,12 L14,11 L17,11 L17,12 L16,12 L16,13 L17,13 L17,14 L19,14 L19,15 L20,15 L20,19 L22,19 L22,20 L23,20 L23,23 L26,23 L26,24 L28,24 L28,27 L29,27 L29,28 L30,28 L30,29 L31,29 L31,28 L32,28 L32,27 L33,27 L33,31 L32,31 L32,32 L34,32 L34,33 L35,33 L35,36 L36,36 L36,37 L37,37 L37,38 L38,38 L38,39 L37,39 L37,40 L38,40 L38,41 L39,41 L39,42 L40,42 L40,45 L43,45 L43,48 L42,48 L42,49 L44,49 L44,50 L45,50 L45,52 L46,52 L46,54 L47,54 L47,55 L50,55 L50,56 L48,56 L48,57 L49,57 L49,59 L50,59 L50,60 L49,60 L49,61 L48,61 L48,59 L47,59 L47,57 L46,57 L46,55 L45,55 L45,53 L44,53 L44,51 L43,51 L43,50 L42,50 L42,51 L41,51 L41,49 L40,49 L40,47 L39,47 L39,46 L38,46 L38,44 L37,44 L37,42 L36,42 L36,41 L35,41 L35,39 L34,39 L34,38 L33,38 L33,37 L32,37 L32,35 L31,35 L31,34 L30,34 L30,33 L29,33 L29,31 L28,31 L28,30 L27,30 L27,29 L26,29 L26,27 L25,27 L25,26 L24,26 L24,25 L23,25 L23,24 L22,24 L22,22 L21,22 L21,21 L20,21 L20,20 L19,20 L19,19 L18,19 L18,18 L17,18 L17,17 L16,17 L16,16 L15,16 L15,15 L14,15 L14,14 L13,14 L13,13 L12,13 L12,12 L11,12 L11,11 L10,11 L10,10 L9,10 L9,9 L8,9 L8,8 L7,8 L7,7 L6,7 L6,6 L5,6 L5,5 L4,5 L4,4 L3,4 L3,3 L2,3 L2,2 L1,2 L1,1 L0,1 Z M33,33 L33,34 L34,34 L34,33 Z " fill="#0A4C80" transform="translate(621,484)"/>
<path d="M0,0 L2,0 L2,1 L3,1 L3,2 L4,2 L4,3 L6,3 L6,4 L7,4 L7,5 L8,5 L8,6 L9,6 L9,7 L10,7 L10,8 L12,8 L12,9 L13,9 L13,10 L14,10 L14,11 L15,11 L15,12 L16,12 L16,13 L17,13 L17,14 L18,14 L18,15 L19,15 L19,16 L21,16 L21,17 L22,17 L22,18 L23,18 L23,19 L24,19 L24,20 L25,20 L25,21 L26,21 L26,22 L27,22 L27,23 L28,23 L28,24 L29,24 L29,25 L30,25 L30,26 L31,26 L31,27 L32,27 L32,29 L34,29 L34,30 L33,30 L33,31 L34,31 L34,66 L33,66 L33,53 L32,53 L32,51 L33,51 L33,49 L32,49 L32,43 L31,43 L31,42 L32,42 L32,40 L33,40 L33,39 L32,39 L32,37 L33,37 L33,36 L32,36 L32,33 L33,33 L33,32 L32,32 L32,31 L31,31 L31,30 L30,30 L30,28 L29,28 L29,26 L28,26 L28,25 L27,25 L27,24 L26,24 L26,23 L22,23 L22,20 L18,20 L18,17 L17,17 L17,15 L16,15 L16,14 L15,14 L15,13 L14,13 L14,12 L13,12 L13,11 L12,11 L12,10 L10,10 L10,9 L7,9 L7,6 L6,6 L6,5 L5,5 L5,4 L3,4 L3,3 L2,3 L2,2 L0,2 Z " fill="#0A4174" transform="translate(651,464)"/>
<path d="M0,0 L35,0 L35,1 L1,1 L1,3 L0,3 L0,6 L-1,6 L-1,9 L-2,9 L-2,12 L-3,12 L-3,15 L-4,15 L-4,17 L-5,17 L-5,20 L-6,20 L-6,23 L-22,23 L-22,20 L-21,20 L-21,17 L-20,17 L-20,16 L-19,16 L-19,19 L-20,19 L-20,21 L-7,21 L-7,19 L-6,19 L-6,16 L-5,16 L-5,13 L-4,13 L-4,9 L-3,9 L-3,8 L-4,8 L-4,4 L-2,4 L-2,2 L-1,2 L-1,1 L0,1 Z " fill="#02A293" transform="translate(796,665)"/>
<path d="M0,0 L1,0 L1,60 L2,60 L2,62 L-14,62 L-14,40 L-13,40 L-13,60 L0,60 Z " fill="#0B2B44" transform="translate(525,626)"/>
<path d="M0,0 L2,0 L2,1 L3,1 L3,2 L2,2 L2,3 L-1,3 L-1,4 L-3,4 L-3,3 L-4,3 L-4,5 L-5,5 L-5,4 L-6,4 L-6,5 L-9,5 L-9,6 L-10,6 L-10,5 L-11,5 L-11,6 L-13,6 L-13,7 L-16,7 L-16,8 L-18,8 L-18,9 L-21,9 L-21,8 L-22,8 L-22,9 L-23,9 L-23,10 L-25,10 L-25,12 L-26,12 L-26,11 L-29,11 L-29,12 L-30,12 L-30,14 L-31,14 L-31,13 L-32,13 L-32,11 L-33,11 L-33,10 L-30,10 L-30,9 L-27,9 L-27,8 L-24,8 L-24,7 L-21,7 L-21,6 L-18,6 L-18,5 L-15,5 L-15,4 L-12,4 L-12,3 L-8,3 L-8,2 L-5,2 L-5,1 L0,1 Z " fill="#038ECF" transform="translate(458,419)"/>
<path d="M0,0 L1,0 L1,1 L2,1 L2,3 L3,3 L3,4 L4,4 L4,5 L6,5 L6,4 L7,4 L7,7 L8,7 L8,8 L9,8 L9,9 L10,9 L10,10 L9,10 L9,11 L10,11 L10,12 L11,12 L11,13 L12,13 L12,16 L15,16 L15,19 L14,19 L14,20 L16,20 L16,21 L17,21 L17,23 L18,23 L18,25 L19,25 L19,26 L22,26 L22,27 L20,27 L20,28 L21,28 L21,30 L22,30 L22,31 L21,31 L21,32 L20,32 L20,30 L19,30 L19,28 L18,28 L18,26 L17,26 L17,24 L16,24 L16,22 L15,22 L15,21 L14,21 L14,22 L13,22 L13,20 L12,20 L12,18 L11,18 L11,17 L10,17 L10,15 L9,15 L9,13 L8,13 L8,12 L7,12 L7,10 L6,10 L6,9 L5,9 L5,8 L4,8 L4,6 L3,6 L3,5 L2,5 L2,4 L1,4 L1,2 L0,2 Z " fill="#06416E" transform="translate(649,513)"/>
<path d="M0,0 L12,0 L12,56 L11,56 L11,1 L5,1 L5,2 L3,2 L3,4 L2,4 L2,5 L1,5 L1,7 L0,7 Z " fill="#0D435F" transform="translate(661,626)"/>
<path d="M0,0 L28,0 L28,1 L19,1 L19,2 L30,2 L30,3 L12,3 L12,5 L11,5 L11,3 L3,3 L3,2 L-5,2 L-5,1 L0,1 Z " fill="#0783BF" transform="translate(493,414)"/>
<path d="M0,0 L1,0 L1,1 L2,1 L2,2 L3,2 L3,3 L4,3 L4,5 L5,5 L5,6 L6,6 L6,7 L7,7 L7,8 L8,8 L8,10 L9,10 L9,11 L10,11 L10,12 L11,12 L11,14 L12,14 L12,15 L13,15 L13,16 L14,16 L14,17 L15,17 L15,19 L-3,19 L-3,18 L-4,18 L-4,17 L-5,17 L-5,15 L-4,15 L-4,16 L-3,16 L-3,17 L12,17 L12,16 L11,16 L11,15 L10,15 L10,13 L9,13 L9,12 L8,12 L8,11 L7,11 L7,10 L6,10 L6,8 L5,8 L5,7 L4,7 L4,6 L3,6 L3,4 L2,4 L2,3 L1,3 L1,2 L0,2 Z " fill="#192D42" transform="translate(273,669)"/>
<path d="M0,0 L2,0 L2,1 L4,1 L4,2 L6,2 L6,3 L9,3 L9,2 L10,2 L10,3 L13,3 L13,6 L15,6 L15,7 L16,7 L16,8 L18,8 L18,9 L20,9 L20,10 L21,10 L21,11 L23,11 L23,12 L25,12 L25,13 L26,13 L26,14 L28,14 L28,15 L29,15 L29,16 L31,16 L31,17 L32,17 L32,18 L34,18 L34,19 L35,19 L35,20 L36,20 L36,21 L34,21 L34,20 L33,20 L33,19 L31,19 L31,18 L30,18 L30,17 L28,17 L28,16 L27,16 L27,15 L25,15 L25,14 L24,14 L24,13 L22,13 L22,12 L20,12 L20,11 L19,11 L19,10 L17,10 L17,9 L15,9 L15,8 L13,8 L13,7 L11,7 L11,6 L9,6 L9,5 L7,5 L7,4 L5,4 L5,3 L3,3 L3,2 L1,2 L1,1 L0,1 Z " fill="#084786" transform="translate(576,456)"/>
<path d="M0,0 L1,0 L1,1 L4,1 L4,2 L3,2 L3,3 L4,3 L4,38 L3,38 L3,25 L2,25 L2,23 L3,23 L3,21 L2,21 L2,15 L1,15 L1,14 L2,14 L2,12 L3,12 L3,11 L2,11 L2,9 L3,9 L3,8 L2,8 L2,5 L3,5 L3,4 L2,4 L2,3 L1,3 L1,2 L0,2 Z " fill="#014973" transform="translate(681,492)"/>
<path d="M0,0 L1,0 L1,1 L2,1 L2,2 L1,2 L1,3 L0,3 L0,4 L-1,4 L-1,5 L-2,5 L-2,6 L-5,6 L-5,7 L-6,7 L-6,8 L-7,8 L-7,9 L-9,9 L-9,11 L-10,11 L-10,13 L-12,13 L-12,12 L-13,12 L-13,13 L-14,13 L-14,14 L-16,14 L-16,11 L-14,11 L-14,10 L-13,10 L-13,9 L-12,9 L-12,8 L-10,8 L-10,7 L-9,7 L-9,6 L-7,6 L-7,5 L-6,5 L-6,4 L-4,4 L-4,3 L-3,3 L-3,2 L-2,2 L-2,1 L0,1 Z " fill="#0786C7" transform="translate(385,450)"/>
<path d="M0,0 L1,0 L1,2 L0,2 L0,3 L-1,3 L-1,4 L-2,4 L-2,5 L-3,5 L-3,6 L-4,6 L-4,7 L-6,7 L-6,8 L-8,8 L-8,9 L-11,9 L-11,10 L-21,10 L-21,9 L-24,9 L-24,8 L-26,8 L-26,7 L-27,7 L-27,6 L-28,6 L-28,5 L-26,5 L-26,6 L-24,6 L-24,5 L-21,5 L-21,6 L-23,6 L-23,7 L-22,7 L-22,8 L-9,8 L-9,7 L-7,7 L-7,6 L-5,6 L-5,5 L-4,5 L-4,3 L-3,3 L-3,2 L-1,2 L-1,1 L0,1 Z " fill="#14AB96" transform="translate(525,363)"/>
<path d="M0,0 L2,0 L2,1 L4,1 L4,2 L5,2 L5,3 L6,3 L6,4 L7,4 L7,5 L8,5 L8,7 L9,7 L9,10 L22,10 L22,6 L23,6 L23,9 L24,9 L24,12 L8,12 L8,8 L7,8 L7,6 L6,6 L6,5 L5,5 L5,4 L4,4 L4,3 L3,3 L3,2 L1,2 L1,1 L0,1 Z " fill="#0C253B" transform="translate(193,611)"/>
<path d="M0,0 L2,0 L2,1 L4,1 L4,2 L5,2 L5,3 L7,3 L7,4 L8,4 L8,5 L10,5 L10,6 L12,6 L12,7 L13,7 L13,8 L14,8 L14,9 L16,9 L16,10 L17,10 L17,11 L19,11 L19,12 L20,12 L20,13 L22,13 L22,14 L23,14 L23,15 L24,15 L24,16 L22,16 L22,15 L21,15 L21,14 L19,14 L19,13 L18,13 L18,12 L17,12 L17,14 L16,14 L16,13 L15,13 L15,12 L14,12 L14,11 L13,11 L13,9 L12,9 L12,8 L10,8 L10,7 L7,7 L7,6 L5,6 L5,5 L4,5 L4,3 L3,3 L3,2 L1,2 L1,1 L0,1 Z " fill="#054984" transform="translate(627,448)"/>
<path d="M0,0 L1,0 L1,2 L0,2 L0,5 L-1,5 L-1,8 L-17,8 L-17,5 L-16,5 L-16,2 L-15,2 L-15,1 L-14,1 L-14,4 L-15,4 L-15,6 L-2,6 L-2,4 L-1,4 L-1,1 L0,1 Z " fill="#0B9A83" transform="translate(791,680)"/>
<path d="M0,0 L1,0 L1,8 L2,8 L2,11 L1,11 L1,13 L2,13 L2,15 L1,15 L1,14 L0,14 L0,15 L-1,15 L-1,17 L-3,17 L-3,18 L-4,18 L-4,17 L-7,17 L-7,18 L-8,18 L-8,19 L-10,19 L-10,18 L-9,18 L-9,17 L-8,17 L-8,16 L-6,16 L-6,15 L-5,15 L-5,14 L-4,14 L-4,13 L-2,13 L-2,12 L-1,12 L-1,11 L0,11 Z " fill="#20B399" transform="translate(388,372)"/>
<path d="M0,0 L3,0 L3,1 L6,1 L6,2 L9,2 L9,3 L11,3 L11,4 L13,4 L13,5 L15,5 L15,6 L18,6 L18,7 L20,7 L20,8 L22,8 L22,9 L24,9 L24,10 L26,10 L26,11 L28,11 L28,12 L29,12 L29,13 L27,13 L27,12 L25,12 L25,11 L23,11 L23,10 L20,10 L20,9 L19,9 L19,8 L16,8 L16,7 L14,7 L14,6 L12,6 L12,5 L10,5 L10,6 L8,6 L8,3 L5,3 L5,2 L2,2 L2,1 L0,1 Z " fill="#094F8F" transform="translate(587,429)"/>
<path d="M0,0 L2,0 L2,1 L3,1 L3,2 L2,2 L2,3 L-1,3 L-1,4 L-3,4 L-3,3 L-4,3 L-4,5 L-5,5 L-5,4 L-6,4 L-6,5 L-9,5 L-9,6 L-10,6 L-10,5 L-15,5 L-15,4 L-12,4 L-12,3 L-8,3 L-8,2 L-5,2 L-5,1 L0,1 Z " fill="#0E8ECB" transform="translate(458,419)"/>
<path d="M0,0 L3,0 L3,2 L2,2 L2,11 L0,11 L0,8 L-1,8 L-1,7 L-2,7 L-2,6 L-3,6 L-3,3 L-2,3 L-2,2 L-1,2 L-1,1 L0,1 Z " fill="#0188C0" transform="translate(683,431)"/>
<path d="M0,0 L2,0 L2,15 L0,15 L0,14 L-7,14 L-7,13 L0,13 Z " fill="#051D36" transform="translate(500,624)"/>
<path d="M0,0 L1,0 L1,1 L15,1 L15,0 L16,0 L16,1 L17,1 L17,3 L0,3 Z " fill="#11AC9F" transform="translate(838,685)"/>
<path d="M0,0 L1,0 L1,3 L2,3 L2,7 L0,7 L0,6 L-1,6 L-1,9 L-2,9 L-2,12 L-3,12 L-3,15 L-4,15 L-4,17 L-5,17 L-5,13 L-4,13 L-4,10 L-3,10 L-3,7 L-2,7 L-2,4 L-1,4 L-1,1 L0,1 Z " fill="#0C9D86" transform="translate(796,623)"/>
<path d="M0,0 L16,0 L16,1 L7,1 L7,2 L2,2 L2,4 L1,4 L1,5 L0,5 L0,4 L-1,4 L-1,5 L-2,5 L-2,3 L-1,3 L-1,1 L0,1 Z " fill="#14A99A" transform="translate(806,599)"/>
<path d="M0,0 L2,0 L2,1 L4,1 L4,4 L5,4 L5,5 L6,5 L6,6 L7,6 L7,5 L8,5 L8,4 L9,4 L9,8 L8,8 L8,9 L10,9 L10,10 L9,10 L9,11 L8,11 L8,10 L7,10 L7,9 L6,9 L6,7 L5,7 L5,6 L4,6 L4,7 L3,7 L3,6 L2,6 L2,2 L1,2 L1,1 L0,1 Z " fill="#055382" transform="translate(645,507)"/>
<path d="M0,0 L2,0 L2,1 L3,1 L3,0 L6,0 L6,1 L7,1 L7,2 L18,2 L18,3 L-1,3 L-1,2 L-2,2 L-2,1 L0,1 Z " fill="#037EBE" transform="translate(497,441)"/>
<path d="M0,0 L1,0 L1,1 L2,1 L2,3 L1,3 L1,2 L0,2 L0,3 L-1,3 L-1,4 L-2,4 L-2,3 L-3,3 L-3,4 L-5,4 L-5,5 L-6,5 L-6,6 L-7,6 L-7,7 L-11,7 L-11,8 L-13,8 L-13,6 L-11,6 L-11,5 L-9,5 L-9,4 L-7,4 L-7,3 L-5,3 L-5,2 L-2,2 L-2,1 L0,1 Z " fill="#0890D0" transform="translate(423,430)"/>
<path d="M0,0 L1,0 L1,2 L2,2 L2,0 L3,0 L3,1 L4,1 L4,2 L3,2 L3,3 L1,3 L1,7 L2,7 L2,8 L1,8 L1,9 L-1,9 L-1,10 L1,10 L1,11 L0,11 L0,12 L-2,12 L-2,11 L-3,11 L-3,9 L-2,9 L-2,6 L-1,6 L-1,3 L0,3 Z " fill="#19A693" transform="translate(790,638)"/>
<path d="M0,0 L2,0 L2,1 L4,1 L4,2 L6,2 L6,3 L9,3 L9,2 L10,2 L10,3 L13,3 L13,6 L15,6 L15,7 L14,7 L14,8 L13,8 L13,7 L11,7 L11,6 L9,6 L9,5 L7,5 L7,4 L5,4 L5,3 L3,3 L3,2 L1,2 L1,1 L0,1 Z " fill="#0A5B98" transform="translate(576,456)"/>
<path d="M0,0 L2,0 L2,1 L3,1 L3,2 L4,2 L4,3 L5,3 L5,4 L6,4 L6,5 L7,5 L7,6 L8,6 L8,7 L10,7 L10,8 L9,8 L9,9 L8,9 L8,10 L7,10 L7,9 L5,9 L5,7 L4,7 L4,5 L3,5 L3,4 L2,4 L2,3 L1,3 L1,2 L0,2 Z " fill="#1D8EBC" transform="translate(679,422)"/>
<path d="M0,0 L3,0 L3,1 L6,1 L6,2 L9,2 L9,3 L12,3 L12,4 L14,4 L14,3 L16,3 L16,4 L17,4 L17,6 L19,6 L19,7 L16,7 L16,6 L13,6 L13,5 L10,5 L10,4 L8,4 L8,3 L5,3 L5,2 L2,2 L2,1 L0,1 Z " fill="#10959E" transform="translate(572,369)"/>
<path d="M0,0 L5,0 L5,1 L3,1 L3,4 L0,4 L0,3 L-4,3 L-4,4 L-9,4 L-9,3 L-7,3 L-7,2 L-4,2 L-4,1 L0,1 Z " fill="#12A38C" transform="translate(450,356)"/>
<path d="M0,0 L2,0 L2,1 L12,1 L12,2 L5,2 L5,3 L15,3 L15,4 L3,4 L3,3 L1,3 L1,1 L0,1 Z " fill="#20485E" transform="translate(632,700)"/>
<path d="M0,0 L1,0 L1,2 L2,2 L2,4 L1,4 L1,7 L0,7 L0,10 L-1,10 L-1,13 L-3,13 L-3,11 L-2,11 L-2,7 L-1,7 L-1,6 L-2,6 L-2,2 L0,2 Z " fill="#17A695" transform="translate(794,667)"/>
<path d="M0,0 L10,0 L10,1 L5,1 L5,2 L3,2 L3,4 L2,4 L2,5 L1,5 L1,7 L0,7 Z " fill="#0C3C56" transform="translate(661,626)"/>
<path d="M0,0 L1,0 L1,3 L2,3 L2,2 L3,2 L3,5 L-3,5 L-3,4 L-5,4 L-5,2 L-4,2 L-4,1 L-3,1 L-3,2 L0,2 Z " fill="#16A2A1" transform="translate(557,361)"/>
<path d="M0,0 L1,0 L1,2 L2,2 L2,4 L3,4 L3,5 L0,5 L0,4 L-3,4 L-3,3 L-6,3 L-6,2 L-5,2 L-5,1 L0,1 Z " fill="#0765A1" transform="translate(572,451)"/>
<path d="M0,0 L3,0 L3,3 L-2,3 L-2,4 L-5,4 L-5,3 L-6,3 L-6,2 L-5,2 L-5,1 L0,1 Z " fill="#118BC8" transform="translate(475,444)"/>
<path d="M0,0 L2,0 L2,1 L4,1 L4,2 L5,2 L5,3 L6,3 L6,4 L8,4 L8,6 L9,6 L9,7 L10,7 L10,9 L9,9 L9,8 L8,8 L8,7 L6,7 L6,6 L4,6 L4,3 L3,3 L3,2 L1,2 L1,1 L0,1 Z " fill="#18AF9A" transform="translate(516,332)"/>
<path d="M0,0 L1,0 L1,1 L2,1 L2,2 L3,2 L3,3 L5,3 L5,4 L6,4 L6,7 L7,7 L7,8 L8,8 L8,9 L9,9 L9,11 L8,11 L8,10 L7,10 L7,9 L6,9 L6,8 L5,8 L5,6 L4,6 L4,5 L3,5 L3,4 L2,4 L2,3 L1,3 L1,2 L0,2 Z " fill="#043469" transform="translate(638,500)"/>
<path d="M0,0 L1,0 L1,2 L2,2 L2,3 L3,3 L3,5 L4,5 L4,6 L5,6 L5,7 L6,7 L6,8 L4,8 L4,7 L3,7 L3,6 L2,6 L2,5 L1,5 L1,4 L-1,4 L-1,3 L-2,3 L-2,2 L-3,2 L-3,1 L0,1 Z " fill="#084C86" transform="translate(615,476)"/>
<path d="M0,0 L1,0 L1,1 L0,1 Z M-4,1 L0,1 L0,2 L-1,2 L-1,3 L-2,3 L-2,4 L-3,4 L-3,5 L-4,5 L-4,6 L-6,6 L-6,7 L-7,7 L-7,4 L-6,4 L-6,3 L-5,3 L-5,2 L-4,2 Z " fill="#0581C0" transform="translate(364,467)"/>
<path d="M0,0 L2,0 L2,1 L4,1 L4,0 L7,0 L7,1 L5,1 L5,3 L4,3 L4,2 L1,2 L1,3 L0,3 L0,5 L-1,5 L-1,4 L-2,4 L-2,2 L-3,2 L-3,1 L0,1 Z " fill="#0A97D4" transform="translate(428,428)"/>
<path d="M0,0 L3,0 L3,1 L11,1 L11,2 L7,2 L7,3 L0,3 L0,2 L1,2 L1,1 L0,1 Z " fill="#0AA18D" transform="translate(471,360)"/>
<path d="M0,0 L3,0 L3,1 L6,1 L6,2 L9,2 L9,3 L11,3 L11,5 L10,5 L10,6 L8,6 L8,3 L5,3 L5,2 L2,2 L2,1 L0,1 Z " fill="#0A5B9A" transform="translate(587,429)"/>
<path d="M0,0 L1,0 L1,2 L0,2 L0,6 L-1,6 L-1,7 L-2,7 L-2,6 L-3,6 L-3,9 L-4,9 L-4,5 L-3,5 L-3,3 L-2,3 L-2,2 L-1,2 L-1,1 L0,1 Z " fill="#2BBA8F" transform="translate(393,362)"/>
<path d="M0,0 L1,0 L1,1 L2,1 L2,0 L4,0 L4,2 L5,2 L5,3 L2,3 L2,4 L-1,4 L-1,5 L-2,5 L-2,2 L-1,2 L-1,3 L0,3 Z " fill="#0B8FCE" transform="translate(452,449)"/>
<path d="M0,0 L2,0 L2,1 L1,1 L1,2 L3,2 L3,3 L2,3 L2,5 L1,5 L1,3 L0,3 L0,4 L-1,4 L-1,3 L-2,3 L-2,2 L-5,2 L-5,3 L-6,3 L-6,1 L0,1 Z " fill="#1FABA9" transform="translate(557,354)"/>
<path d="M0,0 L1,0 L1,2 L0,2 L0,3 L-2,3 L-2,4 L-3,4 L-3,5 L-4,5 L-4,6 L-6,6 L-6,3 L-4,3 L-4,2 L-2,2 L-2,1 L0,1 Z " fill="#0B8DCD" transform="translate(404,439)"/>
</svg>
