<?xml version="1.0" standalone="no"?>
<!DOCTYPE svg PUBLIC "-//W3C//DTD SVG 20010904//EN"
 "http://www.w3.org/TR/2001/REC-SVG-20010904/DTD/svg10.dtd">
<svg version="1.0" xmlns="http://www.w3.org/2000/svg"
 width="1024.000000pt" height="1024.000000pt" viewBox="0 0 1024.000000 1024.000000"
 preserveAspectRatio="xMidYMid meet">

<g transform="translate(0.000000,1024.000000) scale(0.100000,-0.100000)"
fill="#000000" stroke="none">
<path d="M5048 6923 c7 -3 16 -2 19 1 4 3 -2 6 -13 5 -11 0 -14 -3 -6 -6z"/>
<path d="M4982 6899 c-32 -21 -82 -93 -82 -119 0 -8 12 9 26 38 18 36 38 59
67 77 23 14 38 25 32 25 -5 0 -25 -10 -43 -21z"/>
<path d="M4815 6733 c-73 -9 -256 -46 -251 -50 2 -3 56 4 118 16 62 11 136 25
163 30 49 9 28 12 -30 4z"/>
<path d="M5308 6733 c6 -2 18 -2 25 0 6 3 1 5 -13 5 -14 0 -19 -2 -12 -5z"/>
<path d="M5465 6706 c194 -39 319 -75 457 -131 11 -4 25 3 45 26 60 69 163 88
244 46 34 -17 51 -36 73 -77 19 -38 26 -46 21 -25 -17 74 -101 135 -188 135
-62 0 -105 -19 -150 -64 -34 -36 -36 -37 -64 -23 -81 42 -373 118 -503 131
-30 3 -1 -5 65 -18z"/>
<path d="M4452 6658 c-40 -11 -71 -22 -69 -25 4 -4 158 36 166 43 9 8 -27 2
-97 -18z"/>
<path d="M4805 6633 c-63 -9 -233 -45 -300 -64 -90 -26 -217 -70 -212 -75 2
-2 43 10 93 27 115 39 271 77 409 99 93 15 101 25 10 13z"/>
<path d="M5293 6633 c9 -2 25 -2 35 0 9 3 1 5 -18 5 -19 0 -27 -2 -17 -5z"/>
<path d="M4308 6612 c-27 -8 -48 -19 -48 -23 0 -4 24 2 53 13 82 31 79 38 -5
10z"/>
<path d="M5440 6610 c214 -40 470 -121 470 -149 0 -70 64 -161 128 -182 56
-19 126 -13 172 12 l40 23 91 -63 c50 -34 93 -60 96 -58 4 4 -52 47 -129 97
-20 13 -35 27 -32 31 6 11 -32 -1 -73 -22 -22 -11 -58 -19 -88 -19 -53 0 -122
28 -118 47 2 7 -3 10 -10 8 -6 -3 -18 4 -25 16 -12 18 -12 23 0 31 10 8 9 9
-4 4 -14 -4 -20 4 -28 37 -6 23 -13 47 -15 54 -10 31 -452 155 -544 152 -14 0
17 -9 69 -19z"/>
<path d="M4929 6604 c12 -26 68 -74 84 -74 7 0 -2 9 -19 19 -17 10 -41 32 -53
47 -14 18 -18 21 -12 8z"/>
<path d="M5229 6573 c-13 -16 -12 -17 4 -4 9 7 17 15 17 17 0 8 -8 3 -21 -13z"/>
<path d="M6305 6454 c-5 -42 -3 -59 6 -65 7 -4 14 -25 15 -46 3 -65 3 -66 21
-59 10 4 14 4 11 0 -4 -4 15 -25 43 -47 27 -21 47 -42 45 -45 -7 -7 14 -32 26
-32 6 0 5 7 -2 15 -9 10 -9 15 -1 15 10 0 15 -13 12 -32 0 -3 23 -26 52 -49
28 -23 112 -101 185 -173 l132 -131 0 -247 c0 -137 -1 -248 -2 -248 -2 0 -48
43 -103 96 -180 172 -396 325 -618 437 -588 299 -1267 335 -1867 100 -278
-109 -574 -301 -802 -522 l-108 -104 0 250 0 250 25 23 c14 13 25 27 25 32 0
5 -11 -4 -25 -19 l-24 -28 -1 30 c0 17 -7 41 -16 54 -16 22 -15 25 57 99 l74
77 -76 -74 c-68 -64 -79 -72 -97 -62 -13 7 -91 11 -211 11 -185 0 -190 -1
-205 -22 -14 -20 -16 -96 -16 -630 l0 -608 299 0 298 0 47 97 c119 246 320
489 551 665 174 132 385 234 593 287 201 52 491 66 698 36 479 -71 903 -344
1206 -775 57 -82 132 -222 149 -277 l12 -43 309 0 308 0 0 613 c0 538 -2 615
-16 635 -15 21 -20 22 -213 22 -137 0 -201 -4 -209 -12 -9 -9 -33 10 -104 78
-150 145 -427 359 -392 303 4 -7 -3 -6 -17 2 -13 7 -28 13 -33 14 -5 0 -11 7
-13 15 -4 13 -3 13 6 0 6 -8 11 -11 11 -6 0 5 7 3 15 -4 9 -7 18 -10 21 -7 3
3 -13 18 -36 33 l-41 27 7 54 c3 29 4 53 1 53 -2 0 -8 -25 -12 -56z m133 -169
c-3 -3 -9 2 -12 12 -6 14 -5 15 5 6 7 -7 10 -15 7 -18z m83 -52 c13 -16 12
-17 -3 -4 -10 7 -18 15 -18 17 0 8 8 3 21 -13z m40 -30 c13 -16 12 -17 -3 -4
-10 7 -18 15 -18 17 0 8 8 3 21 -13z m40 -30 c13 -16 12 -17 -3 -4 -10 7 -18
15 -18 17 0 8 8 3 21 -13z m-80 -30 c13 -16 12 -17 -3 -4 -10 7 -18 15 -18 17
0 8 8 3 21 -13z m160 -40 c13 -16 12 -17 -3 -4 -10 7 -18 15 -18 17 0 8 8 3
21 -13z m-2282 -137 c-2 -2 -17 -6 -34 -10 -22 -5 -26 -4 -15 4 14 9 59 15 49
6z m-64 -26 c4 -6 11 -8 16 -5 5 4 9 2 9 -4 0 -5 -9 -9 -19 -8 -11 0 -18 4
-15 8 2 4 -2 10 -8 12 -9 4 -10 6 -1 6 6 1 15 -4 18 -9z m-35 -10 c0 -5 -10
-10 -22 -9 -22 0 -22 1 -3 9 11 5 21 9 23 9 1 1 2 -3 2 -9z m-50 -14 c0 -3 -4
-8 -10 -11 -5 -3 -10 -1 -10 4 0 6 5 11 10 11 6 0 10 -2 10 -4z m-58 -38 c-7
-7 -12 -8 -12 -2 0 14 12 26 19 19 2 -3 -1 -11 -7 -17z m-29 -5 c-9 -24 -22
-31 -44 -26 -16 5 -14 8 13 24 18 10 34 18 35 18 1 1 -1 -7 -4 -16z m2674 -25
c-3 -7 -5 -2 -5 12 0 14 2 19 5 13 2 -7 2 -19 0 -25z m-2600 16 c-3 -3 -12 -4
-19 -1 -8 3 -5 6 6 6 11 1 17 -2 13 -5z m-232 -64 c-3 -5 -12 -10 -18 -10 -7
0 -6 4 3 10 19 12 23 12 15 0z"/>
<path d="M3809 6353 c-13 -16 -12 -17 4 -4 16 13 21 21 13 21 -2 0 -10 -8 -17
-17z"/>
<path d="M6290 6322 c0 -12 19 -26 26 -19 2 2 -2 10 -11 17 -9 8 -15 8 -15 2z"/>
<path d="M3569 6173 c-13 -16 -12 -17 4 -4 16 13 21 21 13 21 -2 0 -10 -8 -17
-17z"/>
<path d="M3689 6143 c-13 -16 -12 -17 4 -4 9 7 17 15 17 17 0 8 -8 3 -21 -13z"/>
<path d="M3504 6118 l-29 -33 33 29 c30 28 37 36 29 36 -2 0 -16 -15 -33 -32z"/>
<path d="M3644 6108 l-19 -23 23 19 c21 18 27 26 19 26 -2 0 -12 -10 -23 -22z"/>
<path d="M3559 6033 l-34 -38 38 34 c20 19 37 36 37 38 0 8 -8 0 -41 -34z"/>
<path d="M3429 5913 c-13 -16 -12 -17 4 -4 16 13 21 21 13 21 -2 0 -10 -8 -17
-17z"/>
<path d="M1746 4253 c-185 -56 -262 -260 -149 -392 44 -52 78 -69 227 -116 95
-29 127 -44 153 -70 44 -44 45 -90 3 -139 -81 -92 -269 -55 -286 56 l-7 38
-80 0 -80 0 6 -51 c18 -147 154 -237 346 -227 109 6 174 33 235 98 71 76 87
183 41 276 -34 68 -93 104 -240 149 -135 42 -176 63 -193 100 -16 34 -15 50 4
90 39 83 200 89 262 10 12 -15 22 -36 22 -46 0 -17 9 -19 80 -19 l81 0 -7 38
c-9 54 -52 128 -91 158 -79 60 -219 81 -327 47z"/>
<path d="M2285 4258 c-3 -7 -4 -211 -3 -453 l3 -440 78 -3 77 -3 0 156 c0 85
3 155 8 154 4 0 62 -69 128 -153 l121 -152 92 0 c50 1 91 2 91 4 0 1 -59 78
-131 169 -73 92 -132 172 -133 179 -1 6 54 70 122 142 67 72 122 132 122 134
0 1 -42 1 -92 -2 l-93 -5 -110 -116 c-60 -64 -113 -117 -117 -118 -5 0 -8 116
-8 259 l0 260 -75 0 c-51 0 -77 -4 -80 -12z"/>
<path d="M3254 4255 c-2 -5 -3 -208 -2 -450 l3 -440 78 -3 77 -4 0 456 0 456
-76 -3 c-42 -1 -78 -6 -80 -12z"/>
<path d="M3560 3812 l0 -453 78 3 77 3 0 448 0 448 -78 2 -77 2 0 -453z"/>
<path d="M2977 4240 c-49 -39 -41 -131 12 -160 50 -26 121 3 142 58 12 32 -5
87 -34 107 -31 21 -89 19 -120 -5z"/>
<path d="M3870 3809 l0 -452 223 5 c212 5 226 6 278 30 101 47 149 118 149
223 0 106 -47 171 -143 200 l-42 12 46 20 c108 48 147 170 89 283 -24 47 -55
74 -115 102 -46 21 -66 23 -267 26 l-218 4 0 -453z m395 297 c65 -28 86 -119
39 -175 -32 -38 -77 -51 -181 -51 l-83 0 0 120 0 120 95 0 c60 0 108 -5 130
-14z m22 -369 c44 -23 63 -54 63 -105 0 -100 -51 -132 -210 -132 l-100 0 0
131 0 132 108 -5 c73 -3 117 -10 139 -21z"/>
<path d="M5126 4234 c-58 -59 -14 -164 69 -164 51 0 95 44 95 95 0 83 -105
127 -164 69z"/>
<path d="M5858 4090 c2 -93 1 -170 -1 -170 -2 0 -20 15 -40 33 -67 64 -185 74
-285 23 -88 -45 -141 -138 -149 -265 -13 -189 69 -322 218 -353 82 -17 153 1
212 52 l45 40 6 -44 7 -44 72 1 72 2 3 448 2 447 -82 0 -83 0 3 -170z m-76
-238 c48 -28 73 -87 73 -172 0 -83 -18 -126 -68 -164 -39 -29 -140 -30 -179
-1 -67 48 -90 183 -48 271 42 85 140 115 222 66z"/>
<path d="M8041 4238 c-5 -13 -42 -122 -84 -243 -42 -121 -108 -312 -146 -424
-39 -111 -71 -204 -71 -205 0 0 35 0 77 1 l77 1 36 104 36 103 89 6 90 5 -86
2 c-59 1 -90 -2 -97 -10 -5 -7 -25 -55 -42 -105 l-33 -93 -63 0 c-35 0 -64 2
-64 4 0 4 173 511 253 741 l42 120 82 3 81 3 17 -51 c9 -28 19 -49 21 -47 3 2
-4 26 -13 53 l-19 49 -87 3 c-83 3 -88 2 -96 -20z"/>
<path d="M8642 3808 l3 -453 2 447 3 447 63 4 62 3 -67 2 -68 2 2 -452z"/>
<path d="M8780 4249 c0 -5 5 -7 10 -4 6 3 10 8 10 11 0 2 -4 4 -10 4 -5 0 -10
-5 -10 -11z"/>
<path d="M8276 4090 c4 -14 13 -38 20 -55 11 -24 13 -25 8 -5 -4 14 -13 39
-20 55 -11 24 -13 25 -8 5z"/>
<path d="M8060 3917 c-67 -199 -71 -212 -61 -201 11 12 124 354 119 359 -2 2
-28 -69 -58 -158z"/>
<path d="M8141 4075 c-1 -15 60 -197 65 -192 2 2 -12 48 -30 103 -19 54 -35
95 -35 89z"/>
<path d="M4895 3995 c-39 -21 -73 -53 -95 -88 l-18 -28 -6 55 -7 56 -70 0 -69
0 2 -312 3 -313 80 0 80 0 3 199 c2 182 4 201 23 227 29 42 73 61 141 62 l59
2 -3 75 -3 75 -45 3 c-27 1 -57 -4 -75 -13z"/>
<path d="M6307 3994 c-68 -21 -138 -92 -167 -169 -19 -51 -21 -75 -18 -160 3
-83 8 -108 30 -150 44 -84 103 -129 192 -146 83 -15 147 2 204 55 l45 41 -6
-58 c-7 -72 -33 -126 -74 -153 -68 -45 -169 -38 -214 15 -24 29 -29 31 -98 31
l-73 0 6 -32 c10 -49 56 -99 121 -133 54 -28 66 -30 164 -30 89 0 114 4 156
23 65 30 108 73 137 136 22 49 23 63 28 389 l5 337 -72 0 -73 0 0 -40 c0 -22
-2 -40 -3 -40 -2 0 -22 17 -44 38 -63 60 -147 76 -246 46z m212 -142 c53 -39
66 -68 69 -155 2 -71 0 -87 -20 -121 -59 -100 -208 -102 -268 -4 -25 42 -35
123 -20 176 14 53 62 109 104 122 41 12 105 4 135 -18z"/>
<path d="M7065 3996 c-137 -43 -204 -136 -213 -296 -12 -208 91 -336 282 -348
133 -8 252 53 291 151 l15 37 -79 0 c-62 0 -80 -3 -85 -15 -16 -42 -136 -58
-195 -27 -37 20 -71 72 -71 109 l0 23 221 0 222 0 -5 84 c-5 101 -38 178 -101
231 -69 60 -187 81 -282 51z m167 -133 c31 -15 54 -53 59 -98 l4 -30 -142 -3
c-139 -2 -143 -2 -143 18 0 30 24 82 48 104 40 35 115 39 174 9z"/>
<path d="M3033 3992 l-73 -3 0 -313 0 -314 78 2 77 2 3 309 c1 170 -1 311 -5
314 -5 3 -41 5 -80 3z"/>
<path d="M5110 3675 l0 -315 80 0 80 0 0 315 0 315 -80 0 -80 0 0 -315z"/>
<path d="M8326 3950 c3 -14 11 -32 16 -40 6 -10 7 -7 2 10 -3 14 -11 32 -16
40 -6 10 -7 7 -2 -10z"/>
<path d="M8360 3855 c0 -5 5 -17 10 -25 5 -8 10 -10 10 -5 0 6 -5 17 -10 25
-5 8 -10 11 -10 5z"/>
<path d="M8226 3820 c4 -14 13 -38 20 -55 11 -24 13 -25 8 -5 -4 14 -13 39
-20 55 -11 24 -13 25 -8 5z"/>
<path d="M8068 3693 c34 -2 90 -2 125 0 34 2 6 3 -63 3 -69 0 -97 -1 -62 -3z"/>
<path d="M7541 3536 c-26 -15 -50 -51 -51 -79 -1 -47 50 -97 100 -97 26 0 77
45 84 75 9 34 -18 89 -50 104 -32 14 -53 14 -83 -3z m87 -16 c27 -17 32 -25
32 -59 0 -55 -27 -85 -76 -84 -101 3 -100 155 1 162 6 1 25 -8 43 -19z"/>
<path d="M8491 3495 c1 -19 18 -51 18 -35 0 8 -4 22 -9 30 -5 8 -9 11 -9 5z"/>
</g>
</svg>
