<?xml version="1.0" encoding="UTF-8"?>
<svg version="1.1" xmlns="http://www.w3.org/2000/svg" width="1024" height="1024">
<path d="M0 0 C337.92 0 675.84 0 1024 0 C1024 337.92 1024 675.84 1024 1024 C686.08 1024 348.16 1024 0 1024 C0 686.08 0 348.16 0 0 Z " fill="#FCFCFB" transform="translate(0,0)"/>
<path d="M0 0 C4.84039951 3.12842663 7.74592987 6.86985737 9.85546875 12.19921875 C10.04296875 15.07421875 10.04296875 15.07421875 9.85546875 17.19921875 C11.52609375 17.15087891 11.52609375 17.15087891 13.23046875 17.1015625 C18.21576637 17.10921537 22.96183073 17.86018906 27.85546875 18.76171875 C28.7995459 18.93445313 29.74362305 19.1071875 30.71630859 19.28515625 C46.06102232 22.24681444 61.12831493 26.99949997 75.85546875 32.19921875 C76.11199219 31.59464844 76.36851562 30.99007812 76.6328125 30.3671875 C79.03452561 26.10855882 83.46532175 23.89599305 88.06640625 22.5546875 C93.73471422 21.6497471 98.83694616 22.3471622 103.85546875 25.19921875 C108.26878436 29.16699964 112.56310006 33.78494713 113.0859375 39.890625 C113.07175781 40.83808594 113.05757812 41.78554688 113.04296875 42.76171875 C113.03652344 43.71175781 113.03007813 44.66179687 113.0234375 45.640625 C112.85546875 48.19921875 112.85546875 48.19921875 111.85546875 51.19921875 C112.96124268 51.60321899 112.96124268 51.60321899 114.08935547 52.01538086 C116.76007548 53.15839245 118.78746875 54.41648193 121.11328125 56.140625 C122.29071899 57.00917114 122.29071899 57.00917114 123.49194336 57.89526367 C124.72376343 58.81915894 124.72376343 58.81915894 125.98046875 59.76171875 C127.25579468 60.71171753 127.25579468 60.71171753 128.55688477 61.6809082 C138.04708755 68.78566476 147.06022669 76.25237168 155.73828125 84.328125 C156.23730957 84.76568115 156.73633789 85.2032373 157.25048828 85.65405273 C158.85546875 87.19921875 158.85546875 87.19921875 160.45654297 89.30883789 C164.02228694 93.46000936 167.10947918 95.35345442 172.55810547 95.78979492 C178.28938092 95.97624409 184.00402128 95.75351664 189.73046875 95.51171875 C192.70617794 95.41385889 195.68149 95.32768749 198.6579895 95.25785828 C200.50267545 95.21174663 202.34702301 95.14793725 204.19039917 95.06452942 C205.43782394 95.02545723 205.43782394 95.02545723 206.71044922 94.9855957 C207.44053192 94.95480423 208.17061462 94.92401276 208.92282104 94.89228821 C211.52390413 95.30537531 212.24578016 96.13498735 213.85546875 98.19921875 C214.22461224 100.50491619 214.22461224 100.50491619 214.2162323 103.26750183 C214.22241829 104.83872047 214.22241829 104.83872047 214.22872925 106.44168091 C214.21794342 107.59038666 214.20715759 108.73909241 214.19604492 109.92260742 C214.196483 111.13248825 214.19692108 112.34236908 214.19737244 113.58891296 C214.19563922 116.90703041 214.18058362 120.22458944 214.15965056 123.54260802 C214.14090969 127.00994077 214.13913538 130.47728079 214.13557434 133.94465637 C214.12624623 140.51074867 214.10162218 147.0766913 214.07152587 153.64271766 C214.03471804 161.85097576 214.01828564 170.05925811 214.00195312 178.26757812 C213.97272506 192.91157495 213.91263042 207.55524515 213.85546875 222.19921875 C193.39546875 222.19921875 172.93546875 222.19921875 151.85546875 222.19921875 C150.20546875 217.90921875 148.55546875 213.61921875 146.85546875 209.19921875 C145.57562566 206.52954605 144.31932481 204.00256998 142.85546875 201.44921875 C142.29569336 200.46477783 142.29569336 200.46477783 141.72460938 199.46044922 C134.63504483 187.38478594 125.54075767 176.27567443 115.85546875 166.19921875 C115.11224365 165.4093457 115.11224365 165.4093457 114.35400391 164.60351562 C90.4858315 139.31707917 58.97818794 122.27506846 25.04296875 114.88671875 C24.31529297 114.7271167 23.58761719 114.56751465 22.83789062 114.40307617 C-19.58520379 105.83614665 -66.83169097 114.64203675 -103.14453125 138.19921875 C-112.37153212 144.50480453 -121.09415134 151.44426563 -129.14453125 159.19921875 C-129.67788086 159.70678711 -130.21123047 160.21435547 -130.76074219 160.73730469 C-149.22438927 178.37714152 -161.78188844 198.47393312 -173.14453125 221.19921875 C-192.94453125 221.19921875 -212.74453125 221.19921875 -233.14453125 221.19921875 C-233.26502226 190.87118648 -233.26502226 190.87118648 -233.29529285 175.91387939 C-233.31193096 167.81753273 -233.33306929 159.72127857 -233.37084961 151.625 C-233.40074283 145.21586377 -233.42010406 138.80679727 -233.42679673 132.39759326 C-233.43070916 129.0036549 -233.43990991 125.60991602 -233.46172142 122.21604156 C-233.48341921 118.42808581 -233.48650131 114.64054671 -233.48510742 110.85253906 C-233.49589325 109.72613007 -233.50667908 108.59972107 -233.51779175 107.43917847 C-233.51366776 106.40715302 -233.50954376 105.37512756 -233.5052948 104.31182861 C-233.50806018 103.41584583 -233.51082556 102.51986305 -233.51367474 101.59672928 C-233.06058471 98.65400333 -232.24852373 97.29257103 -230.14453125 95.19921875 C-227.12526787 94.83134218 -224.47631626 94.70944888 -221.4609375 94.7734375 C-220.60902328 94.77672562 -219.75710907 94.78001373 -218.87937927 94.78340149 C-217.07795577 94.7938234 -215.27656595 94.81377525 -213.4753418 94.8425293 C-210.72100328 94.88649572 -207.96753621 94.90395005 -205.21289062 94.91601562 C-203.46222705 94.92944475 -201.71157418 94.94436911 -199.9609375 94.9609375 C-199.13791641 94.96832443 -198.31489532 94.97571136 -197.4669342 94.98332214 C-191.56492938 95.08159829 -191.56492938 95.08159829 -189.01313782 95.79554749 C-188.39649765 95.928759 -187.77985748 96.06197052 -187.14453125 96.19921875 C-185.13902696 94.838849 -185.13902696 94.838849 -183.30859375 92.74609375 C-182.58115967 91.98683594 -181.85372559 91.22757812 -181.10424805 90.4453125 C-180.3337915 89.62160156 -179.56333496 88.79789062 -178.76953125 87.94921875 C-171.83795839 80.77424927 -164.81638443 74.35194451 -156.80029297 68.43164062 C-155.09586879 67.16299815 -153.41692689 65.86612889 -151.7421875 64.55859375 C-151.18539307 64.12506592 -150.62859863 63.69153809 -150.05493164 63.24487305 C-148.96221592 62.39219809 -147.87149752 61.53695629 -146.78295898 60.67895508 C-144.3098532 58.75525808 -141.8640645 57.03816949 -139.14453125 55.4765625 C-136.38870963 53.88335313 -134.26507546 52.57858741 -132.14453125 50.19921875 C-131.34479878 46.79500994 -131.20754098 43.71105483 -131.18359375 40.21875 C-131.12119777 35.3955411 -129.672611 32.75713086 -126.34375 29.36328125 C-121.7075256 25.08503274 -118.16179009 22.47859457 -111.76953125 21.88671875 C-104.82309743 22.48554925 -100.06301554 25.52066052 -95.14453125 30.19921875 C-95.14453125 30.85921875 -95.14453125 31.51921875 -95.14453125 32.19921875 C-94.32855469 31.83570313 -93.51257813 31.4721875 -92.671875 31.09765625 C-73.36399069 22.90388598 -51.26345931 16.77064975 -30.14453125 17.19921875 C-30.06203125 16.16796875 -29.97953125 15.13671875 -29.89453125 14.07421875 C-28.55820642 7.16987381 -24.75281012 3.23717953 -19.14453125 -0.80078125 C-12.27160348 -3.87166387 -6.49945531 -3.58287188 0 0 Z " fill="#0076B0" transform="translate(519.14453125,332.80078125)"/>
<path d="M0 0 C1.38442 1.96498322 2.71203834 3.97048465 4 6 C10.24276556 10.71392501 15.32525748 11.8186392 23 11 C28.36132379 9.31944876 31.88311645 6.737663 35 2 C35.33 1.34 35.66 0.68 36 0 C44.44183219 0.55648627 52.59619245 1.90848673 60.875 3.625 C62.13554199 3.88571289 63.39608398 4.14642578 64.69482422 4.41503906 C91.14057898 10.09371932 91.14057898 10.09371932 100 16 C100.58984375 17.953125 100.58984375 17.953125 100.9375 20.25 C102.02772283 25.60668541 103.47865482 29.31016227 108.203125 32.4765625 C113.70509222 35.49758131 117.76365898 36.89090586 124 36 C126.35658548 35.00420378 128.59142382 33.92874645 130.82421875 32.6796875 C133 32 133 32 135.26953125 32.54296875 C139.05674531 34.56389986 142.50946992 36.94482369 146 39.4375 C146.74967041 39.97028564 147.49934082 40.50307129 148.27172852 41.05200195 C155.1719591 46.01702583 161.63513483 51.37284157 168 57 C168.81210937 57.70125 169.62421875 58.4025 170.4609375 59.125 C172.01415797 60.48729304 173.54062401 61.88078019 175.03686523 63.30541992 C177.2448925 65.37876587 179.56830688 67.21373172 181.97143555 69.0559082 C188.49967411 74.3768107 194.03615348 79.33272951 195.30004883 87.98901367 C195.76307896 94.68166675 195.40351085 101.3135207 195 108 C194.91957077 110.3356909 194.84659718 112.67165099 194.78125 115.0078125 C194.60662951 120.67784261 194.34048318 126.33763351 194 132 C193.34 132 192.68 132 192 132 C190.73046875 130.671875 190.73046875 130.671875 189.1875 128.75 C151.69059801 84.93945127 90.00878151 58.68517857 33.5234375 54.22705078 C-16.97870663 50.9726859 -67.0410886 63.22653281 -109 92 C-109.60875977 92.41491699 -110.21751953 92.82983398 -110.84472656 93.25732422 C-126.09363114 103.72233763 -139.92487806 115.69738585 -152.84765625 128.91015625 C-155 131 -155 131 -156 131 C-159.98338485 83.90803181 -159.98338485 83.90803181 -151.48828125 73.09765625 C-147.29215939 68.30653699 -142.23142984 64.49089606 -136.9453125 60.97998047 C-132.02052188 57.66929977 -127.56362778 53.78419291 -123 50 C-114.60756311 43.26305751 -105.90659076 37.03490765 -97 31 C-96.38253906 31.3609375 -95.76507813 31.721875 -95.12890625 32.09375 C-89.32746049 35.27262439 -84.63911123 37.28228322 -78 36 C-73.16296908 34.43713261 -69.17896662 31.96891603 -65.94921875 27.96484375 C-64.82543636 25.93956019 -64.82543636 25.93956019 -64.76953125 23.19140625 C-64.44550197 19.42984895 -64.00360167 17.23357839 -62 14 C-55.77783891 10.08807194 -48.05803239 8.70175724 -41 7 C-40.03803711 6.75668945 -39.07607422 6.51337891 -38.08496094 6.26269531 C-9.57895702 -0.91465735 -9.57895702 -0.91465735 0 0 Z " fill="#FBFBFB" transform="translate(491,361)"/>
<path d="M0 0 C4.84039951 3.12842663 7.74592987 6.86985737 9.85546875 12.19921875 C10.04296875 15.07421875 10.04296875 15.07421875 9.85546875 17.19921875 C11.52609375 17.15087891 11.52609375 17.15087891 13.23046875 17.1015625 C18.21576637 17.10921537 22.96183073 17.86018906 27.85546875 18.76171875 C28.7995459 18.93445313 29.74362305 19.1071875 30.71630859 19.28515625 C46.06102232 22.24681444 61.12831493 26.99949997 75.85546875 32.19921875 C76.11199219 31.59464844 76.36851562 30.99007812 76.6328125 30.3671875 C79.03452561 26.10855882 83.46532175 23.89599305 88.06640625 22.5546875 C93.73471422 21.6497471 98.83694616 22.3471622 103.85546875 25.19921875 C108.26878436 29.16699964 112.56310006 33.78494713 113.0859375 39.890625 C113.07175781 40.83808594 113.05757812 41.78554688 113.04296875 42.76171875 C113.03652344 43.71175781 113.03007813 44.66179687 113.0234375 45.640625 C112.85546875 48.19921875 112.85546875 48.19921875 111.85546875 51.19921875 C112.96124268 51.60321899 112.96124268 51.60321899 114.08935547 52.01538086 C116.76007548 53.15839245 118.78746875 54.41648193 121.11328125 56.140625 C122.29071899 57.00917114 122.29071899 57.00917114 123.49194336 57.89526367 C124.72376343 58.81915894 124.72376343 58.81915894 125.98046875 59.76171875 C127.25579468 60.71171753 127.25579468 60.71171753 128.55688477 61.6809082 C137.5493309 68.41302364 146.12182651 75.4351609 154.3503418 83.08984375 C159.32848707 87.69836113 164.55084433 91.97013826 169.85546875 96.19921875 C169.37464844 96.76125 168.89382813 97.32328125 168.3984375 97.90234375 C166.69348608 100.44034738 166.38958358 101.93525701 166.16796875 104.94921875 C166.10222656 105.7484375 166.03648437 106.54765625 165.96875 107.37109375 C165.93136719 107.974375 165.89398437 108.57765625 165.85546875 109.19921875 C162.43556809 107.72943403 160.27491251 105.8285585 157.6953125 103.1640625 C156.90721191 102.3589624 156.11911133 101.5538623 155.30712891 100.72436523 C154.47745605 99.87044189 153.6477832 99.01651855 152.79296875 98.13671875 C146.09584527 91.34561604 139.46277477 84.96475594 131.85546875 79.19921875 C130.30666016 77.9771875 130.30666016 77.9771875 128.7265625 76.73046875 C125.47383055 74.16854407 122.177088 71.67096095 118.85546875 69.19921875 C118.30616699 68.78623535 117.75686523 68.37325195 117.19091797 67.94775391 C115.59478113 66.76020545 113.97542715 65.60406026 112.35546875 64.44921875 C111.41703125 63.77375 110.47859375 63.09828125 109.51171875 62.40234375 C106.90459426 60.88137218 106.90459426 60.88137218 104.1875 61.92578125 C103.41792969 62.34601563 102.64835937 62.76625 101.85546875 63.19921875 C96.14789983 65.48224632 91.14842701 66.3253602 85.296875 64.32421875 C79.70413593 61.79792948 75.31873272 58.99309317 72.85546875 53.19921875 C72.73611923 51.67950153 72.6324844 50.15848472 72.54296875 48.63671875 C72.20670179 46.26785187 72.20670179 46.26785187 70.85546875 44.19921875 C53.27153028 33.54079794 27.78379563 31.56348446 7.85546875 28.19921875 C7.58347656 28.96878906 7.31148437 29.73835938 7.03125 30.53125 C5.11348395 34.88285868 1.6355517 37.16083703 -2.39453125 39.51171875 C-7.87136261 40.88092659 -13.13137337 40.92091686 -18.45703125 39.01171875 C-22.51455908 36.2752465 -25.43539229 33.26292718 -28.14453125 29.19921875 C-45.01719355 29.56171735 -61.88122616 33.84098776 -77.828125 39.12890625 C-81.90043503 40.44317356 -85.94893258 41.3750833 -90.14453125 42.19921875 C-90.1703125 42.85148437 -90.19609375 43.50375 -90.22265625 44.17578125 C-90.70116214 51.54912208 -92.47458284 55.96321436 -98.08203125 60.94921875 C-103.58415397 64.99159462 -108.38150524 66.16697289 -115.14453125 65.19921875 C-117.36807652 64.31288355 -119.3602875 63.29358541 -121.41796875 62.07421875 C-123.26792332 60.97319353 -123.26792332 60.97319353 -126.14453125 61.19921875 C-128.62199638 62.69408586 -130.96821728 64.2274273 -133.33203125 65.88671875 C-134.0374707 66.37785156 -134.74291016 66.86898437 -135.46972656 67.375 C-151.25252681 78.51744701 -165.54607642 91.35057055 -179.0456543 105.13671875 C-180.3946947 106.50807285 -181.76731374 107.85616477 -183.14453125 109.19921875 C-183.47453125 109.19921875 -183.80453125 109.19921875 -184.14453125 109.19921875 C-184.26570313 108.58433594 -184.386875 107.96945312 -184.51171875 107.3359375 C-184.67929687 106.52769531 -184.846875 105.71945312 -185.01953125 104.88671875 C-185.18195313 104.08621094 -185.344375 103.28570312 -185.51171875 102.4609375 C-186.08932124 99.94620757 -186.08932124 99.94620757 -188.14453125 97.19921875 C-178.18530054 86.92846254 -168.32647504 76.90494422 -156.78417969 68.41552734 C-155.08509088 67.15512525 -153.41353154 65.86443924 -151.74609375 64.5625 C-151.18873535 64.1284082 -150.63137695 63.69431641 -150.05712891 63.24707031 C-148.96366639 62.39349516 -147.87213372 61.537441 -146.78271484 60.67871094 C-144.30966284 58.7551409 -141.86396085 57.03810996 -139.14453125 55.4765625 C-136.38870963 53.88335313 -134.26507546 52.57858741 -132.14453125 50.19921875 C-131.34479878 46.79500994 -131.20754098 43.71105483 -131.18359375 40.21875 C-131.12119777 35.3955411 -129.672611 32.75713086 -126.34375 29.36328125 C-121.7075256 25.08503274 -118.16179009 22.47859457 -111.76953125 21.88671875 C-104.82309743 22.48554925 -100.06301554 25.52066052 -95.14453125 30.19921875 C-95.14453125 30.85921875 -95.14453125 31.51921875 -95.14453125 32.19921875 C-94.32855469 31.83570313 -93.51257813 31.4721875 -92.671875 31.09765625 C-73.36399069 22.90388598 -51.26345931 16.77064975 -30.14453125 17.19921875 C-30.06203125 16.16796875 -29.97953125 15.13671875 -29.89453125 14.07421875 C-28.55820642 7.16987381 -24.75281012 3.23717953 -19.14453125 -0.80078125 C-12.27160348 -3.87166387 -6.49945531 -3.58287188 0 0 Z " fill="#3CC19B" transform="translate(519.14453125,332.80078125)"/>
<path d="M0 0 C1.31047806 -0.00006042 1.31047806 -0.00006042 2.64743042 -0.00012207 C4.48817161 0.00522504 6.32891285 0.02277323 8.16943359 0.05175781 C10.9899646 0.09371693 13.80811489 0.09281628 16.62890625 0.0859375 C18.41928745 0.09642688 20.20965635 0.10936363 22 0.125 C22.84378204 0.12520142 23.68756409 0.12540283 24.55691528 0.12561035 C30.36812518 0.24348328 30.36812518 0.24348328 32.59045887 1.80322742 C34.30002209 4.20077023 34.23684942 5.72853634 34.22795105 8.66203308 C34.23207504 9.70951218 34.23619904 10.75699127 34.240448 11.83621216 C34.22966217 12.98491791 34.21887634 14.13362366 34.20776367 15.31713867 C34.20842079 17.13195992 34.20842079 17.13195992 34.20909119 18.98344421 C34.20735797 22.30156166 34.19230237 25.61912069 34.17136931 28.93713927 C34.15262844 32.40447202 34.15085413 35.87181204 34.14729309 39.33918762 C34.13796498 45.90527992 34.11334093 52.47122255 34.08324462 59.03724891 C34.04643679 67.24550701 34.03000439 75.45378936 34.01367188 83.66210938 C33.98444381 98.3061062 33.92434917 112.9497764 33.8671875 127.59375 C13.4071875 127.59375 -7.0528125 127.59375 -28.1328125 127.59375 C-29.7828125 123.30375 -31.4328125 119.01375 -33.1328125 114.59375 C-34.41265559 111.9240773 -35.66895644 109.39710123 -37.1328125 106.84375 C-37.50599609 106.18745605 -37.87917969 105.53116211 -38.26367188 104.85498047 C-48.79624844 86.91483094 -63.43217952 72.10618142 -78.1328125 57.59375 C-75.1328125 57.59375 -75.1328125 57.59375 -73.66796875 58.87109375 C-72.68863747 59.97511442 -71.70946996 61.07928038 -70.73046875 62.18359375 C-69.2050569 63.75323028 -69.2050569 63.75323028 -67.00390625 64.09765625 C-66.38644531 64.26136719 -65.76898437 64.42507813 -65.1328125 64.59375 C-64.8028125 65.58375 -64.4728125 66.57375 -64.1328125 67.59375 C-63.1428125 67.92375 -62.1528125 68.25375 -61.1328125 68.59375 C-59.4453125 69.90625 -59.4453125 69.90625 -58.1328125 71.59375 C-58.1328125 72.91375 -58.1328125 74.23375 -58.1328125 75.59375 C-56.6478125 76.08875 -56.6478125 76.08875 -55.1328125 76.59375 C-55.1328125 77.58375 -55.1328125 78.57375 -55.1328125 79.59375 C-54.3490625 79.67625 -53.5653125 79.75875 -52.7578125 79.84375 C-50.1328125 80.59375 -50.1328125 80.59375 -48.8203125 82.65625 C-48.48 83.6153125 -48.48 83.6153125 -48.1328125 84.59375 C-46.6478125 84.09875 -46.6478125 84.09875 -45.1328125 83.59375 C-45.0503125 84.274375 -44.9678125 84.955 -44.8828125 85.65625 C-43.63795764 90.53193152 -40.9148863 94.4206393 -38.1328125 98.59375 C-38.1328125 99.58375 -38.1328125 100.57375 -38.1328125 101.59375 C-37.1428125 101.59375 -36.1528125 101.59375 -35.1328125 101.59375 C-35.0296875 102.150625 -34.9265625 102.7075 -34.8203125 103.28125 C-33.54569049 107.56861493 -31.85592448 110.11167535 -28.1328125 112.59375 C-28.1328125 114.92708333 -28.1328125 117.26041667 -28.1328125 119.59375 C-27.1428125 120.08875 -27.1428125 120.08875 -26.1328125 120.59375 C-26.4628125 120.92375 -26.7928125 121.25375 -27.1328125 121.59375 C-26.1428125 122.08875 -26.1428125 122.08875 -25.1328125 122.59375 C-25.1328125 123.25375 -25.1328125 123.91375 -25.1328125 124.59375 C-24.0603125 124.408125 -22.9878125 124.2225 -21.8828125 124.03125 C-18.72889704 123.6632932 -17.03462758 123.54909657 -14.1328125 124.59375 C-14.2771875 123.60375 -14.4215625 122.61375 -14.5703125 121.59375 C-16.1328125 110.61160714 -16.1328125 110.61160714 -16.1328125 106.59375 C-15.4728125 106.59375 -14.8128125 106.59375 -14.1328125 106.59375 C-14.29201172 106.01343018 -14.45121094 105.43311035 -14.61523438 104.83520508 C-15.41757555 101.36053793 -15.4670878 97.83205509 -15.6328125 94.28125 C-15.83301426 90.05847582 -16.08308907 85.93387205 -16.6953125 81.74609375 C-17.15946696 78.40169512 -16.70715885 75.8962415 -16.1328125 72.59375 C-16.37535226 67.86422459 -18.82860476 63.90686396 -22.1328125 60.59375 C-24.22004974 59.85595981 -24.22004974 59.85595981 -26.1328125 59.59375 C-26.1328125 58.60375 -26.1328125 57.61375 -26.1328125 56.59375 C-27.4528125 56.59375 -28.7728125 56.59375 -30.1328125 56.59375 C-30.720625 55.2325 -30.720625 55.2325 -31.3203125 53.84375 C-33.77285464 49.44608823 -36.35988608 47.18472547 -41.1328125 45.59375 C-41.4215625 44.975 -41.7103125 44.35625 -42.0078125 43.71875 C-43.48642584 40.92581369 -45.44475617 40.14999314 -48.1328125 38.59375 C-48.1328125 37.93375 -48.1328125 37.27375 -48.1328125 36.59375 C-39.35550993 40.54858058 -32.08609346 48.43793109 -25.0703125 54.90625 C-24.41506592 55.50469727 -23.75981934 56.10314453 -23.0847168 56.71972656 C-22.47023682 57.29303711 -21.85575684 57.86634766 -21.22265625 58.45703125 C-20.67472412 58.96532471 -20.12679199 59.47361816 -19.56225586 59.99731445 C-17.99879389 61.7434251 -17.08627364 63.46209362 -16.1328125 65.59375 C-15.4728125 65.59375 -14.8128125 65.59375 -14.1328125 65.59375 C-14.14756119 64.97480362 -14.16230988 64.35585724 -14.17750549 63.71815491 C-14.33056323 57.24511452 -14.47517066 50.77192356 -14.61499023 44.29858398 C-14.66818414 41.88642636 -14.72349397 39.47431439 -14.78100586 37.06225586 C-14.86355148 33.58457277 -14.93835233 30.10679366 -15.01171875 26.62890625 C-15.03875381 25.55979507 -15.06578888 24.4906839 -15.09364319 23.38917542 C-15.40603242 7.52777074 -15.40603242 7.52777074 -12.14111328 2.56835938 C-8.00796309 -0.14458647 -4.84522392 -0.09459991 0 0 Z " fill="#073B57" transform="translate(699.1328125,427.40625)"/>
<path d="M0 0 C1.22815681 0.0074398 1.22815681 0.0074398 2.48112488 0.01502991 C3.32829575 0.00883133 4.17546661 0.00263275 5.04830933 -0.00375366 C6.84125113 -0.01085734 8.63425882 -0.0076682 10.4271698 0.00502014 C13.16059731 0.01883635 15.89056748 -0.01511242 18.623703 -0.05332947 C20.36784446 -0.05428119 22.11199018 -0.052419 23.85612488 -0.04747009 C25.07517265 -0.06735741 25.07517265 -0.06735741 26.31884766 -0.08764648 C30.46808421 -0.0201693 33.08639047 0.3405525 36.36857605 2.9957428 C39.64451753 6.38496778 39.99290266 7.77535437 39.98809814 12.33964539 C39.98947281 13.34367905 39.99084747 14.34771271 39.99226379 15.38217163 C39.98687088 17.04049263 39.98687088 17.04049263 39.98136902 18.73231506 C39.98151505 19.89328201 39.98166107 21.05424896 39.98181152 22.25039673 C39.98111266 26.10294945 39.97332144 29.95545434 39.96549988 33.80799866 C39.96363561 36.47315045 39.96216258 39.13829957 39.96121216 41.80345154 C39.95810108 48.11097701 39.94989069 54.4184852 39.93986267 60.72600305 C39.92869461 67.90607971 39.92318933 75.08615718 39.91816723 82.26624036 C39.9077079 97.03798235 39.88936518 111.80970577 39.86784363 126.58143616 C23.69784363 126.58143616 7.52784363 126.58143616 -9.13215637 126.58143616 C-9.19986576 110.74369032 -9.25513364 94.90605905 -9.28759289 79.0682106 C-9.30306458 71.71449351 -9.32415978 64.3608727 -9.35847473 57.00721741 C-9.38836795 50.59808118 -9.40772918 44.18901467 -9.41442186 37.77981067 C-9.41833429 34.3858723 -9.42753503 30.99213343 -9.44934654 27.59825897 C-9.47104433 23.81030322 -9.47412643 20.02276411 -9.47273254 16.23475647 C-9.48351837 15.10834747 -9.4943042 13.98193848 -9.50541687 12.82139587 C-9.50129288 11.78937042 -9.49716888 10.75734497 -9.49291992 9.69404602 C-9.4956853 8.79806324 -9.49845068 7.90208046 -9.50129986 6.97894669 C-8.59158995 1.07056914 -5.62196103 0.11695916 0 0 Z " fill="#073955" transform="translate(295.1321563720703,427.41856384277344)"/>
<path d="M0 0 C47.35294118 0 47.35294118 0 56 7 C60.7180894 11.98769451 63.12446954 17.13622608 63.5 23.9375 C63.28629093 30.62354085 60.23283918 34.87880278 55.5 39.375 C53.0561894 40.96347689 50.75234718 42.05633811 48 43 C48.59167969 43.24234375 49.18335938 43.4846875 49.79296875 43.734375 C57.09829285 46.83288114 61.79597722 49.42522346 65 57 C66.01915715 64.91453573 65.8815202 72.44344836 61 79 C55.56346675 85.46506656 50.02122955 87.70822013 42 90 C28.14 90 14.28 90 0 90 C0 60.3 0 30.6 0 0 Z " fill="#09344F" transform="translate(387,598)"/>
<path d="M0 0 C1.671875 1.3203125 1.671875 1.3203125 4.171875 3.7578125 C4.171875 4.4178125 4.171875 5.0778125 4.171875 5.7578125 C4.831875 5.7578125 5.491875 5.7578125 6.171875 5.7578125 C6.171875 3.1178125 6.171875 0.4778125 6.171875 -2.2421875 C10.791875 -2.2421875 15.411875 -2.2421875 20.171875 -2.2421875 C20.23993313 5.92967436 20.29485262 14.10131202 20.32731152 22.27338219 C20.34289831 26.0689188 20.36400688 29.8642497 20.39819336 33.65966797 C20.43103873 37.32959612 20.44878041 40.99932772 20.45650673 44.66939163 C20.46200547 46.06228347 20.47274186 47.45516583 20.48906517 48.84797287 C20.60842226 59.46454619 20.1214767 69.21973041 13.171875 77.7578125 C4.62758256 85.92235861 -4.58160814 87.25887607 -15.9609375 87.03515625 C-24.55921365 86.4185122 -32.10922161 83.340254 -37.828125 76.7578125 C-40.19215226 72.94486531 -40.828125 71.28426655 -40.828125 66.7578125 C-38.40958054 66.62244621 -35.99862717 66.52360971 -33.578125 66.4453125 C-32.89621094 66.40341797 -32.21429687 66.36152344 -31.51171875 66.31835938 C-29.5 66.26953125 -29.5 66.26953125 -25.828125 66.7578125 C-23.46875 69.21484375 -23.46875 69.21484375 -21.828125 71.7578125 C-17.1701495 74.08680025 -10.89785585 73.1504568 -5.828125 72.7578125 C-1.26555092 70.94851588 0.40454631 68.75578618 2.546875 64.5078125 C4.32609089 60.07447705 4.51624854 56.49294872 4.171875 51.7578125 C3.67558594 52.23992188 3.17929687 52.72203125 2.66796875 53.21875 C-2.90793654 58.40317807 -6.99548608 60.44872872 -14.703125 61.0703125 C-23.04941536 60.7647643 -28.8647677 57.64848093 -34.87890625 51.94921875 C-42.73320635 43.11903367 -42.56855698 32.29389763 -42.04150391 21.09130859 C-41.33249547 13.33764423 -38.0638559 7.51316703 -32.515625 2.1953125 C-22.84882679 -5.47750918 -10.57962312 -7.18871827 0 0 Z " fill="#08314C" transform="translate(653.828125,627.2421875)"/>
<path d="M0 0 C5.28 0 10.56 0 16 0 C16 29.7 16 59.4 16 90 C11.05 90 6.1 90 1 90 C0.34 87.36 -0.32 84.72 -1 82 C-1.50789062 82.48210937 -2.01578125 82.96421875 -2.5390625 83.4609375 C-8.91091602 89.30776939 -13.71602609 91.47702253 -22.41796875 91.2421875 C-30.54739279 90.47966966 -36.68886275 87.22525456 -42 81 C-48.3958494 70.68411388 -49.38791762 59.9038444 -47.5390625 48.04296875 C-45.49072945 40.39184235 -41.69468557 33.4227971 -34.9375 29.0625 C-27.97225883 25.08846669 -21.97748693 24.16079669 -14 25 C-9.3056746 26.39116505 -5.20228201 28.1991606 -2 32 C-2 32.66 -2 33.32 -2 34 C-1.34 34 -0.68 34 0 34 C0 22.78 0 11.56 0 0 Z " fill="#08344F" transform="translate(586,598)"/>
<path d="M0 0 C6.27 0 12.54 0 19 0 C20.4540625 3.99867188 20.4540625 3.99867188 21.9375 8.078125 C22.27467041 9.00525299 22.61184082 9.93238098 22.95922852 10.88760376 C24.69089609 15.64928736 26.4220274 20.41116505 28.15234375 25.17333984 C31.58803956 34.62749582 35.0269451 44.08042002 38.4831543 53.52709961 C39.96707482 57.58352976 41.44870934 61.64079316 42.93017578 65.69812012 C43.64354551 67.64979355 44.35806448 69.6010473 45.07373047 71.55187988 C46.07286103 74.27573338 47.06810018 77.00097909 48.0625 79.7265625 C48.36172363 80.53910492 48.66094727 81.35164734 48.96923828 82.18881226 C51 87.77226764 51 87.77226764 51 90 C45.39 90 39.78 90 34 90 C32.82738774 86.89796196 31.66171068 83.79361833 30.5 80.6875 C30.16613281 79.80642578 29.83226562 78.92535156 29.48828125 78.01757812 C29.17246094 77.17001953 28.85664062 76.32246094 28.53125 75.44921875 C28.23798828 74.66893311 27.94472656 73.88864746 27.64257812 73.0847168 C27 71 27 71 27 68 C15.78 68 4.56 68 -7 68 C-7.99 71.63 -8.98 75.26 -10 79 C-11.24429712 82.7079222 -12.62098187 86.33846911 -14 90 C-19.28 90 -24.56 90 -30 90 C-28.40952994 81.72649164 -25.7048908 73.89779891 -22.94921875 65.95703125 C-22.44798537 64.50141581 -21.94716413 63.0456584 -21.44673157 61.58976746 C-20.13292662 57.77145923 -18.81314694 53.95524224 -17.4921875 50.1394043 C-16.42640302 47.05748928 -15.36483494 43.97413049 -14.30351543 40.89067554 C-13.02014538 37.16231279 -11.73498245 33.43456913 -10.44921875 29.70703125 C-10.21089514 29.01608683 -9.97257153 28.3251424 -9.72702599 27.61326027 C-6.54245043 18.38759509 -3.29617349 9.18642992 0 0 Z " fill="#1CAFA2" transform="translate(804,598)"/>
<path d="M0 0 C5.39441325 4.41162541 8.594567 10.02439667 9.5 16.9375 C9.561875 18.071875 9.62375 19.20625 9.6875 20.375 C4.4075 20.375 -0.8725 20.375 -6.3125 20.375 C-7.3025 18.065 -8.2925 15.755 -9.3125 13.375 C-13.90204523 9.07230135 -18.63758218 9.09281089 -24.6484375 9.15625 C-29.00906059 9.51430703 -31.12676343 11.18926343 -34.125 14.1875 C-35.71180033 17.11055324 -35.65463303 19.09052292 -35.3125 22.375 C-33.58411495 26.90875375 -30.99069919 28.00854579 -26.76171875 30.02734375 C-22.33341742 31.75754076 -17.82107168 33.01797049 -13.25 34.3125 C-3.98013302 36.99014085 3.63925682 39.25867423 8.75 48 C11.76293172 54.9224452 11.83799974 62.40950747 9.6875 69.625 C6.4092549 76.97807312 0.14633393 81.71445162 -7.13671875 84.68359375 C-18.04666404 88.15048839 -30.57553896 87.81339958 -40.85546875 82.79296875 C-47.46784258 78.97692471 -51.34943451 74.6098413 -54.0625 67.375 C-54.43474773 64.39701812 -54.3125 61.37615718 -54.3125 58.375 C-49.0325 58.375 -43.7525 58.375 -38.3125 58.375 C-37.755625 60.47875 -37.755625 60.47875 -37.1875 62.625 C-36.08392256 65.79591256 -35.29262647 67.39702202 -33 69.9375 C-27.25786139 72.17596081 -21.3961163 72.16480282 -15.3125 71.375 C-11.73467023 69.57617423 -9.20432427 67.95950914 -7.3125 64.375 C-6.81778565 60.48795864 -6.89503028 58.19096354 -8.6875 54.6875 C-13.94599591 50.05501551 -20.72386613 48.53726668 -27.32568359 46.57080078 C-37.26224161 43.59098211 -45.43578688 40.36405131 -51.3125 31.375 C-53.77142023 25.22769941 -54.47460043 19.68897462 -52.28515625 13.4453125 C-48.34699154 4.69625959 -43.11433649 -0.89762174 -34.1875 -4.5625 C-22.86253609 -7.75570348 -9.83364116 -6.58013163 0 0 Z " fill="#09334E" transform="translate(207.3125,602.625)"/>
<path d="M0 0 C6.19359602 -0.17921285 11.91265746 0.44106029 18 1.5625 C18.94407715 1.73523438 19.8881543 1.90796875 20.86083984 2.0859375 C36.20555357 5.04759569 51.27284618 9.80028122 66 15 C66.25652344 14.39542969 66.51304687 13.79085938 66.77734375 13.16796875 C69.17905686 8.90934007 73.609853 6.6967743 78.2109375 5.35546875 C83.87924547 4.45052835 88.98147741 5.14794345 94 8 C98.41331561 11.96778089 102.70763131 16.58572838 103.23046875 22.69140625 C103.21628906 23.63886719 103.20210937 24.58632813 103.1875 25.5625 C103.18105469 26.51253906 103.17460938 27.46257812 103.16796875 28.44140625 C103 31 103 31 102 34 C103.10577393 34.40400024 103.10577393 34.40400024 104.23388672 34.81616211 C106.90460673 35.9591737 108.932 37.21726318 111.2578125 38.94140625 C112.042771 39.52043701 112.82772949 40.09946777 113.63647461 40.69604492 C114.86829468 41.61994019 114.86829468 41.61994019 116.125 42.5625 C117.40032593 43.51249878 117.40032593 43.51249878 118.70141602 44.48168945 C127.69386215 51.21380489 136.26635776 58.23594215 144.49487305 65.890625 C149.47301832 70.49914238 154.69537558 74.77091951 160 79 C159.51917969 79.56203125 159.03835938 80.1240625 158.54296875 80.703125 C156.83801733 83.24112863 156.53411483 84.73603826 156.3125 87.75 C156.24675781 88.54921875 156.18101562 89.3484375 156.11328125 90.171875 C156.05720703 91.07679688 156.05720703 91.07679688 156 92 C152.58009934 90.53021528 150.41944376 88.62933975 147.83984375 85.96484375 C147.05174316 85.15974365 146.26364258 84.35464355 145.45166016 83.52514648 C144.6219873 82.67122314 143.79231445 81.8172998 142.9375 80.9375 C136.24037652 74.14639729 129.60730602 67.76553719 122 62 C120.96746094 61.1853125 119.93492187 60.370625 118.87109375 59.53125 C115.6183618 56.96932532 112.32161925 54.4717422 109 52 C108.45069824 51.5870166 107.90139648 51.1740332 107.33544922 50.74853516 C105.73931238 49.5609867 104.1199584 48.40484151 102.5 47.25 C101.5615625 46.57453125 100.623125 45.8990625 99.65625 45.203125 C97.04912551 43.68215343 97.04912551 43.68215343 94.33203125 44.7265625 C93.56246094 45.14679688 92.79289063 45.56703125 92 46 C86.29243108 48.28302757 81.29295826 49.12614145 75.44140625 47.125 C69.84866718 44.59871073 65.46326397 41.79387442 63 36 C62.88065048 34.48028278 62.77701565 32.95926597 62.6875 31.4375 C62.35123304 29.06863312 62.35123304 29.06863312 61 27 C43.41606153 16.34157919 17.92832688 14.36426571 -2 11 C-1.51917969 10.58105469 -1.03835938 10.16210938 -0.54296875 9.73046875 C1.78659448 7.11781936 1.67969007 4.39528521 2 1 C1.34 0.67 0.68 0.34 0 0 Z " fill="#18A4B1" transform="translate(529,350)"/>
<path d="M0 0 C6.193757 4.90869714 9.31337119 11.20183232 11.77734375 18.59375 C11.77734375 23.54375 11.77734375 28.49375 11.77734375 33.59375 C-2.74265625 33.59375 -17.26265625 33.59375 -32.22265625 33.59375 C-30.05426652 41.5748042 -30.05426652 41.5748042 -25.22265625 46.59375 C-21.29965272 48.55525176 -16.50870781 47.94387816 -12.22265625 47.59375 C-7.85329136 46.07505027 -7.85329136 46.07505027 -5.22265625 42.59375 C0.05734375 42.59375 5.33734375 42.59375 10.77734375 42.59375 C8.76661094 50.10048583 5.13281567 54.16325275 -1.22265625 58.59375 C-9.06651846 63.03563409 -19.59771376 62.91594764 -28.1640625 60.90234375 C-37.16709314 57.61726845 -42.18801197 52.62994149 -46.27734375 44.05859375 C-49.96924998 34.4321771 -49.65570925 21.51381054 -45.61328125 12.0625 C-41.09175061 4.03551301 -35.13918571 -1.28250236 -26.33984375 -3.984375 C-17.47379292 -5.75104195 -7.71224204 -4.87945015 0 0 Z " fill="#08314B" transform="translate(733.22265625,627.40625)"/>
<path d="M0 0 C5.28 0 10.56 0 16 0 C16 17.16 16 34.32 16 52 C16.66 52 17.32 52 18 52 C18.38393921 51.12601563 18.38393921 51.12601563 18.77563477 50.234375 C20.11775012 47.78511483 21.59184113 46.19549633 23.58984375 44.25 C24.29173828 43.5590625 24.99363281 42.868125 25.71679688 42.15625 C26.44962891 41.4446875 27.18246094 40.733125 27.9375 40 C29.38640914 38.5856802 30.83310418 37.16908783 32.27734375 35.75 C32.91921631 35.12609375 33.56108887 34.5021875 34.22241211 33.859375 C36.06899886 32.03938693 36.06899886 32.03938693 37.45458984 29.79003906 C39 28 39 28 41.0847168 27.54589844 C41.86500244 27.5668457 42.64528809 27.58779297 43.44921875 27.609375 C44.29677734 27.62226562 45.14433594 27.63515625 46.01757812 27.6484375 C46.89865234 27.68195312 47.77972656 27.71546875 48.6875 27.75 C49.58017578 27.76804687 50.47285156 27.78609375 51.39257812 27.8046875 C53.59613504 27.85182241 55.79752601 27.91759343 58 28 C51.84005194 35.2907232 51.84005194 35.2907232 48.5625 38.4375 C45.39234065 41.55155034 42.47870918 44.83480241 39.578125 48.19921875 C37.80350185 50.2242219 35.94223065 52.13545857 34 54 C35.55783391 59.06296021 38.65189029 62.52065005 42 66.5 C43.17313494 67.91953262 44.34499288 69.34012146 45.515625 70.76171875 C46.10021484 71.46989746 46.68480469 72.17807617 47.28710938 72.90771484 C49.82321655 76.00555386 52.29922223 79.14691204 54.75 82.3125 C55.54921875 83.33988281 56.3484375 84.36726562 57.171875 85.42578125 C59 88 59 88 60 91 C44.32405063 92.35657254 44.32405063 92.35657254 39.41015625 89.48828125 C37.33650609 87.11651648 35.69672056 84.65558155 34 82 C32.62332931 80.19428419 31.20773155 78.42393005 29.78686523 76.65283203 C28.37697075 74.89297367 26.9924563 73.11601104 25.61328125 71.33203125 C21.51469235 65.98406287 21.51469235 65.98406287 17 61 C17 70.9 17 80.8 17 91 C11.39 91 5.78 91 0 91 C0 60.97 0 30.94 0 0 Z " fill="#08324D" transform="translate(228,597)"/>
<path d="M0 0 C4.82954552 3.12141153 7.78627487 6.86287665 9.85546875 12.19921875 C10.04296875 15.57421875 10.04296875 15.57421875 9.85546875 18.19921875 C10.51546875 18.19921875 11.17546875 18.19921875 11.85546875 18.19921875 C11.76265625 19.86984375 11.76265625 19.86984375 11.66796875 21.57421875 C11.72984375 22.77046875 11.79171875 23.96671875 11.85546875 25.19921875 C12.84546875 25.85921875 13.83546875 26.51921875 14.85546875 27.19921875 C12.54546875 27.19921875 10.23546875 27.19921875 7.85546875 27.19921875 C7.83484375 27.90046875 7.81421875 28.60171875 7.79296875 29.32421875 C6.1637465 34.32050033 1.93813604 36.96087604 -2.45703125 39.57421875 C-7.93125714 40.84729454 -13.15012567 40.91419433 -18.45703125 39.01171875 C-22.51455908 36.2752465 -25.43539229 33.26292718 -28.14453125 29.19921875 C-45.01719355 29.56171735 -61.88122616 33.84098776 -77.828125 39.12890625 C-81.90043503 40.44317356 -85.94893258 41.3750833 -90.14453125 42.19921875 C-90.10328125 43.14796875 -90.06203125 44.09671875 -90.01953125 45.07421875 C-90.14453125 48.19921875 -90.14453125 48.19921875 -92.14453125 50.19921875 C-92.14453125 44.58921875 -92.14453125 38.97921875 -92.14453125 33.19921875 C-93.13453125 32.86921875 -94.12453125 32.53921875 -95.14453125 32.19921875 C-75.20543496 23.3163986 -52.12673779 16.75313113 -30.14453125 17.19921875 C-30.06203125 16.16796875 -29.97953125 15.13671875 -29.89453125 14.07421875 C-28.55820642 7.16987381 -24.75281012 3.23717953 -19.14453125 -0.80078125 C-12.27160348 -3.87166387 -6.49945531 -3.58287188 0 0 Z " fill="#22B39F" transform="translate(519.14453125,332.80078125)"/>
<path d="M0 0 C5.61 0 11.22 0 17 0 C17 29.7 17 59.4 17 90 C11.39 90 5.78 90 0 90 C0 60.3 0 30.6 0 0 Z " fill="#26B6AC" transform="translate(863,598)"/>
<path d="M0 0 C5.28 0 10.56 0 16 0 C16 30.03 16 60.06 16 91 C10.72 91 5.44 91 0 91 C0 60.97 0 30.94 0 0 Z " fill="#0A354F" transform="translate(356,597)"/>
<path d="M0 0 C5.28 0 10.56 0 16 0 C16 29.7 16 59.4 16 90 C10.72 90 5.44 90 0 90 C0 60.3 0 30.6 0 0 Z " fill="#07304A" transform="translate(325,597)"/>
<path d="M0 0 C0 5.28 0 10.56 0 16 C-3.031875 16.12375 -3.031875 16.12375 -6.125 16.25 C-11.71210387 16.6755683 -14.87763074 17.2118769 -19 21 C-21.0225534 24.0338301 -21.25577087 24.68758864 -21.31884766 28.10424805 C-21.33871735 28.92487228 -21.35858704 29.74549652 -21.37905884 30.59098816 C-21.39638565 31.9129998 -21.39638565 31.9129998 -21.4140625 33.26171875 C-21.43342865 34.16751175 -21.4527948 35.07330475 -21.4727478 36.00654602 C-21.53253542 38.90010151 -21.57892568 41.7936968 -21.625 44.6875 C-21.66318054 46.64910591 -21.70223231 48.61069506 -21.7421875 50.57226562 C-21.83823632 55.3813744 -21.92227043 60.19056166 -22 65 C-27.61 65 -33.22 65 -39 65 C-39 44.21 -39 23.42 -39 2 C-34.38 2 -29.76 2 -25 2 C-24.34 4.97 -23.68 7.94 -23 11 C-22.56429688 10.45730469 -22.12859375 9.91460938 -21.6796875 9.35546875 C-14.97962421 1.30669143 -10.39310644 -0.42134215 0 0 Z " fill="#093752" transform="translate(502,623)"/>
<path d="M0 0 C4.29 0 8.58 0 13 0 C13 16.5 13 33 13 50 C14.32 50 15.64 50 17 50 C17.33 50.99 17.66 51.98 18 53 C17.34 53 16.68 53 16 53 C16 53.99 16 54.98 16 56 C15.01 56.495 15.01 56.495 14 57 C13.67 66.9 13.34 76.8 13 87 C8.71 87 4.42 87 0 87 C0 58.29 0 29.58 0 0 Z " fill="#083954" transform="translate(230,599)"/>
<path d="M0 0 C5.61 0 11.22 0 17 0 C17 20.79 17 41.58 17 63 C11.39 63 5.78 63 0 63 C0 42.21 0 21.42 0 0 Z " fill="#083955" transform="translate(295,625)"/>
<path d="M0 0 C5.28 0 10.56 0 16 0 C16 20.79 16 41.58 16 63 C10.72 63 5.44 63 0 63 C0 42.21 0 21.42 0 0 Z " fill="#06304B" transform="translate(511,625)"/>
<path d="M0 0 C5.07649919 2.33960397 6.77799284 5.31726048 9.05078125 10.25 C11.34792279 16.90509318 10.47689174 23.50264841 8.0546875 30.01953125 C5.82026146 34.21528681 2.49427541 36.5019082 -2 38 C-8.52687516 38.77158795 -12.70495383 37.91833416 -18 34 C-22.90333291 27.46222278 -22.6686453 19.88248055 -22 12 C-20.7696412 7.52149398 -18.76248795 4.76248795 -15.5 1.5 C-10.41755298 -0.67819158 -5.45285815 -0.81462618 0 0 Z " fill="#F9FAFA" transform="translate(576,637)"/>
<path d="M0 0 C4.61425309 3.75511391 6.64546103 7.00328062 7.265625 13.0390625 C7.41374797 26.47381592 7.41374797 26.47381592 2.9296875 31.76953125 C-0.67453621 35.11562753 -4.28031902 36.0360278 -9.1328125 36.26953125 C-13.81316374 36.05646518 -16.53016321 34.97252347 -20.0703125 31.76953125 C-24.76956012 25.80021671 -25.80618159 20.28094967 -25.0703125 12.76953125 C-23.88634156 6.98002196 -21.41387352 3.61536323 -16.88671875 -0.1015625 C-11.81858097 -3.25143738 -5.08464085 -3.02200352 0 0 Z " fill="#F9FAFA" transform="translate(652.0703125,638.23046875)"/>
<path d="M0 0 C0.33 0 0.66 0 1 0 C1.04898438 0.88042969 1.09796875 1.76085937 1.1484375 2.66796875 C1.22320312 3.82941406 1.29796875 4.99085938 1.375 6.1875 C1.47941406 7.91033203 1.47941406 7.91033203 1.5859375 9.66796875 C1.98149342 12.85107441 2.52009857 15.16603909 4 18 C4.99 18.66 5.98 19.32 7 20 C5.60201172 21.01707031 5.60201172 21.01707031 4.17578125 22.0546875 C-13.84900125 35.19760923 -30.94323742 48.597051 -46.57910156 64.56469727 C-47.27100586 65.27037842 -47.96291016 65.97605957 -48.67578125 66.703125 C-49.6025769 67.65687012 -49.6025769 67.65687012 -50.5480957 68.62988281 C-52 70 -52 70 -53 70 C-53.12117188 69.38511719 -53.24234375 68.77023437 -53.3671875 68.13671875 C-53.53476562 67.32847656 -53.70234375 66.52023437 -53.875 65.6875 C-54.03742188 64.88699219 -54.19984375 64.08648437 -54.3671875 63.26171875 C-54.94478999 60.74698882 -54.94478999 60.74698882 -57 58 C-47.04076929 47.72924379 -37.18194379 37.70572547 -25.63964844 29.21630859 C-23.94055963 27.9559065 -22.26900029 26.66522049 -20.6015625 25.36328125 C-19.7655249 24.71190186 -19.7655249 24.71190186 -18.91259766 24.04736328 C-17.81977083 23.19460532 -16.72825742 22.34016101 -15.63818359 21.48388672 C-13.16124829 19.56266916 -10.69257145 17.81626341 -8 16.20703125 C-2.79743662 13.2441942 -2.79743662 13.2441942 -0.1640625 8.125 C0.09614099 5.36824953 0.16977181 2.76128855 0 0 Z " fill="#27B6AC" transform="translate(388,372)"/>
<path d="M0 0 C0.061875 0.61875 0.12375 1.2375 0.1875 1.875 C0.455625 2.57625 0.72375 3.2775 1 4 C2.65773796 4.68856887 4.32597432 5.35203376 6 6 C7.45243861 6.93062922 8.87204681 7.91412726 10.2578125 8.94140625 C11.042771 9.52043701 11.82772949 10.09946777 12.63647461 10.69604492 C13.45768799 11.3119751 14.27890137 11.92790527 15.125 12.5625 C15.97521729 13.19583252 16.82543457 13.82916504 17.70141602 14.48168945 C26.69386215 21.21380489 35.26635776 28.23594215 43.49487305 35.890625 C48.47301832 40.49914238 53.69537558 44.77091951 59 49 C58.51917969 49.56203125 58.03835938 50.1240625 57.54296875 50.703125 C55.83801733 53.24112863 55.53411483 54.73603826 55.3125 57.75 C55.24675781 58.54921875 55.18101562 59.3484375 55.11328125 60.171875 C55.07589844 60.77515625 55.03851562 61.3784375 55 62 C51.58009934 60.53021528 49.41944376 58.62933975 46.83984375 55.96484375 C45.65769287 54.7571936 45.65769287 54.7571936 44.45166016 53.52514648 C43.6219873 52.67122314 42.79231445 51.8172998 41.9375 50.9375 C35.24037652 44.14639729 28.60730602 37.76553719 21 32 C19.96746094 31.1853125 18.93492187 30.370625 17.87109375 29.53125 C10.80898167 23.97481375 3.54538145 18.88653275 -4 14 C-4.99 13.34 -5.98 12.68 -7 12 C-5.824375 11.38125 -5.824375 11.38125 -4.625 10.75 C-1.86973416 8.91315611 -1.00134486 8.09506593 0 5 C0.16750414 2.33290931 0.16750414 2.33290931 0 0 Z " fill="#0690B8" transform="translate(630,380)"/>
<path d="M0 0 C22.6474443 -0.50327654 22.6474443 -0.50327654 29.5625 5.0625 C31.6825884 9.39485455 31.62382376 13.26673721 31 18 C29.64089139 21.75753558 28.56055937 22.69139417 25.0625 24.6171875 C20.16886892 26.62699247 15.2683544 26.32519093 10.0625 26.1875 C6.741875 26.125625 3.42125 26.06375 0 26 C0 17.42 0 8.84 0 0 Z " fill="#F9FAFA" transform="translate(404,648)"/>
<path d="M0 0 C3.155625 -0.0825 6.31125 -0.165 9.5625 -0.25 C10.5429126 -0.28641602 11.5233252 -0.32283203 12.53344727 -0.36035156 C18.58303913 -0.43640848 22.05403712 0.47468603 27 4 C29.3906456 6.91035117 29.48300537 10.24894136 29.37890625 13.96875 C28.6917493 17.65247799 26.69497146 19.53937388 24 22 C18.86067337 24.29102512 14.13008023 24.23824851 8.625 24.125 C5.77875 24.08375 2.9325 24.0425 0 24 C0 16.08 0 8.16 0 0 Z " fill="#FAFBFB" transform="translate(404,612)"/>
<path d="M0 0 C0.66 0 1.32 0 2 0 C2.22139648 0.67466309 2.44279297 1.34932617 2.67089844 2.04443359 C3.69397516 5.15571529 4.72195811 8.26535555 5.75 11.375 C6.09804688 12.43589844 6.44609375 13.49679687 6.8046875 14.58984375 C8.76513257 20.5074835 10.8558155 26.31422957 13.27441406 32.06103516 C14 34 14 34 14 36 C5.75 36 -2.5 36 -11 36 C-9.7702137 30.46596164 -8.6239721 25.5023175 -6.8359375 20.21484375 C-6.43632813 19.02568359 -6.03671875 17.83652344 -5.625 16.61132812 C-5.2125 15.39896484 -4.8 14.18660156 -4.375 12.9375 C-3.95476563 11.69033203 -3.53453125 10.44316406 -3.1015625 9.15820312 C-2.07181153 6.10405535 -1.03786449 3.05139815 0 0 Z " fill="#F7FBFA" transform="translate(812,617)"/>
<path d="M0 0 C0.99 0.66 1.98 1.32 3 2 C3.36914349 4.18264961 3.36914349 4.18264961 3.36076355 6.94802856 C3.36488754 7.994133 3.36901154 9.04023743 3.3732605 10.11804199 C3.36247467 11.27034302 3.35168884 12.42264404 3.34057617 13.60986328 C3.34123329 15.42446548 3.34123329 15.42446548 3.34190369 17.27572632 C3.34016858 20.59803394 3.32509732 23.91978609 3.30418181 27.24199533 C3.28546021 30.71200336 3.28366815 34.18201835 3.28010559 37.65206909 C3.27077179 44.22527769 3.24614009 50.79833706 3.21605712 57.37147987 C3.17926961 65.58746837 3.16282143 73.80348098 3.14648438 82.01953125 C3.11724328 96.67980383 3.05715084 111.33975065 3 126 C-17.46 126 -37.92 126 -59 126 C-58.67 124.68 -58.34 123.36 -58 122 C-58 122.66 -58 123.32 -58 124 C-38.53 124 -19.06 124 1 124 C0.67 83.08 0.34 42.16 0 0 Z " fill="#001F3F" transform="translate(730,429)"/>
<path d="M0 0 C3.26517168 1.19805729 5.26285459 3.02830832 7.375 5.8125 C8 8 8 8 8 15 C-1.24 15 -10.48 15 -20 15 C-18.85714286 5.85714286 -18.85714286 5.85714286 -14 1 C-9.81834124 -1.09082938 -4.55365777 -0.43396477 0 0 Z " fill="#F4F7F8" transform="translate(721,636)"/>
<path d="M0 0 C5.28 0 10.56 0 16 0 C16 17.16 16 34.32 16 52 C15.67 52 15.34 52 15 52 C15 35.5 15 19 15 2 C10.71 2 6.42 2 2 2 C2 30.71 2 59.42 2 89 C6.29 89 10.58 89 15 89 C15 79.1 15 69.2 15 59 C17 61 17 61 17.22705078 63.98095703 C17.21657715 65.22731934 17.20610352 66.47368164 17.1953125 67.7578125 C17.1924826 68.42086395 17.18965271 69.08391541 17.18673706 69.76705933 C17.17553435 71.88655583 17.15043051 74.00563104 17.125 76.125 C17.11497028 77.56119182 17.10584441 78.99739025 17.09765625 80.43359375 C17.07729539 83.95602238 17.0381494 87.47753917 17 91 C11.39 91 5.78 91 0 91 C0 60.97 0 30.94 0 0 Z " fill="#1E3348" transform="translate(228,597)"/>
<path d="M0 0 C3.31541064 2.39838216 4.68360676 4.07059486 6 7.9375 C6 11.77523843 5.10300954 13.8092269 3 17 C0.51543895 18.95215511 -1.26468047 19.03368661 -4.4375 19.4375 C-8.91903826 18.88713565 -10.20852117 17.44829737 -13 14 C-14.42662219 11.14675563 -14.31033868 9.16545451 -14 6 C-10.25522988 0.38284483 -6.73678699 -1.13570355 0 0 Z " fill="#0A324C" transform="translate(308,598)"/>
<path d="M0 0 C3.03978021 0.68164768 4.80055419 2.23591662 6.93359375 4.43359375 C8.48383839 7.53408303 8.2235139 10.01253593 7.93359375 13.43359375 C6.1379697 16.18688396 4.88104453 17.95986836 1.93359375 19.43359375 C-2.24784636 19.82806923 -4.37586673 19.88394561 -7.94140625 17.55859375 C-10.85351283 14.64648717 -11.0270893 13.83331605 -11.44140625 9.62109375 C-11.37967942 6.23229105 -11.05507416 5.41659561 -9.06640625 2.43359375 C-5.71397384 0.19863881 -3.9372435 -0.24561254 0 0 Z " fill="#08304A" transform="translate(521.06640625,597.56640625)"/>
<path d="M0 0 C2.75329021 1.79562405 4.52627461 3.05254922 6 6 C6.59873168 11.26883876 5.25400021 13.8846468 2 18 C-1.10048928 19.55024464 -3.57894218 19.28992015 -7 19 C-9.75329021 17.20437595 -11.52627461 15.94745078 -13 13 C-13.39447548 8.81855989 -13.45035186 6.69053952 -11.125 3.125 C-7.54668265 -0.45331735 -4.99886778 -0.42363286 0 0 Z " fill="#12A192" transform="translate(762,669)"/>
<path d="M0 0 C5.61 0 11.22 0 17 0 C17 20.79 17 41.58 17 63 C11.39 63 5.78 63 0 63 C0 42.21 0 21.42 0 0 Z M2 1 C2 20.8 2 40.6 2 61 C6.29 61 10.58 61 15 61 C15 41.2 15 21.4 15 1 C10.71 1 6.42 1 2 1 Z " fill="#2B4053" transform="translate(295,625)"/>
<path d="M0 0 C5.28 0 10.56 0 16 0 C16 29.7 16 59.4 16 90 C11.05 90 6.1 90 1 90 C1 87.69 1 85.38 1 83 C1.33 83 1.66 83 2 83 C2 84.65 2 86.3 2 88 C5.96 88 9.92 88 14 88 C14 59.29 14 30.58 14 1 C9.71 1 5.42 1 1 1 C1 11.89 1 22.78 1 34 C0.67 34 0.34 34 0 34 C0 22.78 0 11.56 0 0 Z " fill="#1D3246" transform="translate(586,598)"/>
<path d="M0 0 C4.62 0 9.24 0 14 0 C14 2.64 14 5.28 14 8 C13.67 8 13.34 8 13 8 C13 5.69 13 3.38 13 1 C9.37 1 5.74 1 2 1 C2 20.8 2 40.6 2 61 C6.29 61 10.58 61 15 61 C14.98952637 59.88963379 14.97905273 58.77926758 14.96826172 57.63525391 C14.93212051 53.52412121 14.90912104 49.41300261 14.89013672 45.30175781 C14.88006569 43.52080933 14.86640815 41.73987743 14.84912109 39.95898438 C14.82492087 37.40230217 14.81352816 34.84583815 14.8046875 32.2890625 C14.79436493 31.49005524 14.78404236 30.69104797 14.77340698 29.86782837 C14.77300774 27.9104278 14.87758931 25.95356923 15 24 C15.66 23.34 16.32 22.68 17 22 C17 35.53 17 49.06 17 63 C11.39 63 5.78 63 0 63 C0 42.21 0 21.42 0 0 Z " fill="#1B3146" transform="translate(463,625)"/>
<path d="M0 0 C5.28 0 10.56 0 16 0 C16 0.33 16 0.66 16 1 C9.565 1.495 9.565 1.495 3 2 C3 30.38 3 58.76 3 88 C6.96 88 10.92 88 15 88 C15 88.33 15 88.66 15 89 C10.05 89 5.1 89 0 89 C0 59.63 0 30.26 0 0 Z " fill="#1C455F" transform="translate(325,597)"/>
<path d="M0 0 C0.061875 0.61875 0.12375 1.2375 0.1875 1.875 C0.455625 2.57625 0.72375 3.2775 1 4 C2.06734375 4.41765625 2.06734375 4.41765625 3.15625 4.84375 C6.6339002 6.25773964 9.37492895 8.34061911 12.3125 10.625 C12.86228516 11.04523438 13.41207031 11.46546875 13.97851562 11.8984375 C15.32292168 12.92720039 16.66201413 13.9629009 18 15 C17.01 15.33 16.02 15.66 15 16 C13.48527726 18.27208411 12.21990407 20.56019185 11 23 C7.18237194 21.63167453 4.15890947 19.87003864 0.875 17.5 C0.02679687 16.8915625 -0.82140625 16.283125 -1.6953125 15.65625 C-2.45585938 15.1096875 -3.21640625 14.563125 -4 14 C-4.99 13.34 -5.98 12.68 -7 12 C-5.824375 11.38125 -5.824375 11.38125 -4.625 10.75 C-1.86973416 8.91315611 -1.00134486 8.09506593 0 5 C0.16750414 2.33290931 0.16750414 2.33290931 0 0 Z " fill="#0B96B3" transform="translate(630,380)"/>
<path d="M0 0 C0.33 0 0.66 0 1 0 C1 29.37 1 58.74 1 89 C-3.95 89 -8.9 89 -14 89 C-14 88.34 -14 87.68 -14 87 C-9.71 87 -5.42 87 -1 87 C-1.00222061 85.92480606 -1.00444122 84.84961212 -1.00672913 83.74183655 C-1.0269599 73.63215799 -1.04197183 63.52248352 -1.05181217 53.41278934 C-1.05704116 48.21471885 -1.0641391 43.01666464 -1.07543945 37.81860352 C-1.08626776 32.80657732 -1.09227671 27.79456682 -1.09487724 22.78252983 C-1.09673159 20.86587718 -1.1003524 18.94922543 -1.10573006 17.03257942 C-1.11293975 14.35771928 -1.11399097 11.68292486 -1.11352539 9.00805664 C-1.11712067 8.2074884 -1.12071594 7.40692017 -1.12442017 6.58209229 C-1.11405216 1.11405216 -1.11405216 1.11405216 0 0 Z " fill="#13B1A3" transform="translate(879,599)"/>
<path d="M0 0 C2.84323792 1.15835619 4.31388887 2.3217361 6.5 4.5625 C8.99237287 6.99256355 9.79846075 7.31395588 13 8 C13.33 8.99 13.66 9.98 14 11 C14.99 11.33 15.98 11.66 17 12 C18.6875 13.3125 18.6875 13.3125 20 15 C20 16.32 20 17.64 20 19 C20.99 19.33 21.98 19.66 23 20 C23 20.99 23 21.98 23 23 C23.78375 23.0825 24.5675 23.165 25.375 23.25 C28 24 28 24 29.3125 26.0625 C29.539375 26.701875 29.76625 27.34125 30 28 C30.99 27.67 31.98 27.34 33 27 C33.0825 27.680625 33.165 28.36125 33.25 29.0625 C34.49485486 33.93818152 37.2179262 37.8268893 40 42 C40 42.99 40 43.98 40 45 C40.99 45 41.98 45 43 45 C43.1546875 45.8353125 43.1546875 45.8353125 43.3125 46.6875 C44.58712201 50.97486493 46.27688802 53.51792535 50 56 C49.67 57.65 49.34 59.3 49 61 C46.47650757 57.87567603 44.72743854 54.61939504 43 51 C42.34 51 41.68 51 41 51 C39.76381201 49.14874789 38.61326246 47.24017783 37.5 45.3125 C28.59073252 30.33014039 16.91873516 17.71984264 4.52050781 5.55688477 C2.99641963 4.05523432 1.49579332 2.52983698 0 1 C0 0.67 0 0.34 0 0 Z " fill="#0A4C80" transform="translate(621,484)"/>
<path d="M0 0 C8.77730257 3.95483058 16.04671904 11.84418109 23.0625 18.3125 C23.71774658 18.91094727 24.37299316 19.50939453 25.0480957 20.12597656 C25.66257568 20.69928711 26.27705566 21.27259766 26.91015625 21.86328125 C27.45808838 22.37157471 28.00602051 22.87986816 28.57055664 23.40356445 C30.13177858 25.14717338 30.9599551 26.91691295 32 29 C32.66 29.33 33.32 29.66 34 30 C34 41.88 34 53.76 34 66 C33.67 66 33.34 66 33 66 C32.93941406 64.85402344 32.87882813 63.70804688 32.81640625 62.52734375 C32.73193011 60.99738703 32.64728573 59.46743959 32.5625 57.9375 C32.52318359 57.18533203 32.48386719 56.43316406 32.44335938 55.65820312 C32.24341531 52.10535081 31.95060577 48.66309727 31.43359375 45.13671875 C30.97250705 41.80110955 31.42712945 39.29400566 32 36 C31.75746024 31.27047459 29.30420774 27.31311396 26 24 C23.91276276 23.26220981 23.91276276 23.26220981 22 23 C22 22.01 22 21.02 22 20 C20.68 20 19.36 20 18 20 C17.608125 19.0925 17.21625 18.185 16.8125 17.25 C14.35995786 12.85233823 11.77292642 10.59097547 7 9 C6.71125 8.38125 6.4225 7.7625 6.125 7.125 C4.64638666 4.33206369 2.68805633 3.55624314 0 2 C0 1.34 0 0.68 0 0 Z " fill="#0A4174" transform="translate(651,464)"/>
<path d="M0 0 C11.55 0 23.1 0 35 0 C35 0.33 35 0.66 35 1 C23.78 1 12.56 1 1 1 C0.01 4.63 -0.98 8.26 -2 12 C-3.24429712 15.7079222 -4.62098187 19.33846911 -6 23 C-11.28 23 -16.56 23 -22 23 C-21.67 21.02 -21.34 19.04 -21 17 C-20.34 16.67 -19.68 16.34 -19 16 C-19.33 17.65 -19.66 19.3 -20 21 C-15.71 21 -11.42 21 -7 21 C-6.505 18.9375 -6.01 16.875 -5.5 14.75 C-5.2215625 13.58984375 -4.943125 12.4296875 -4.65625 11.234375 C-3.86743548 7.89669288 -3.86743548 7.89669288 -4 4 C-3.34 4 -2.68 4 -2 4 C-1.34 2.68 -0.68 1.36 0 0 Z " fill="#02A293" transform="translate(796,665)"/>
<path d="M0 0 C0.33 0 0.66 0 1 0 C1.33 20.46 1.66 40.92 2 62 C-3.28 62 -8.56 62 -14 62 C-14 54.74 -14 47.48 -14 40 C-13.67 40 -13.34 40 -13 40 C-13 46.6 -13 53.2 -13 60 C-8.71 60 -4.42 60 0 60 C0 40.2 0 20.4 0 0 Z " fill="#0B2B44" transform="translate(525,626)"/>
<path d="M0 0 C-0.33 0.66 -0.66 1.32 -1 2 C-3.44140625 2.74609375 -3.44140625 2.74609375 -6.5625 3.4375 C-10.26291707 4.30122294 -13.7880883 5.20274725 -17.3125 6.625 C-20.9242143 7.97174093 -24.20529593 8.45789942 -28 9 C-28.33 9.66 -28.66 10.32 -29 11 C-29.99 11 -30.98 11 -32 11 C-32.66 11.66 -33.32 12.32 -34 13 C-34.66 11.68 -35.32 10.36 -36 9 C-32.10507576 7.73299485 -28.2089735 6.46968679 -24.31176758 5.2097168 C-22.98754943 4.78103169 -21.66365116 4.35135709 -20.34008789 3.9206543 C-18.43200766 3.29993621 -16.52265643 2.6831295 -14.61328125 2.06640625 C-13.46641846 1.69459229 -12.31955566 1.32277832 -11.13793945 0.93969727 C-3.78590164 -1.26196721 -3.78590164 -1.26196721 0 0 Z " fill="#038ECF" transform="translate(461,420)"/>
<path d="M0 0 C0.8971875 0.99 0.8971875 0.99 1.8125 2 C3.87501834 4.3373846 3.87501834 4.3373846 7 4 C7.45375 4.928125 7.9075 5.85625 8.375 6.8125 C9.9421633 10.03921389 9.9421633 10.03921389 12 13 C12 13.99 12 14.98 12 16 C12.99 16 13.98 16 15 16 C15.1546875 16.8353125 15.1546875 16.8353125 15.3125 17.6875 C16.58712201 21.97486493 18.27688802 24.51792535 22 27 C21.67 28.65 21.34 30.3 21 32 C18.47650757 28.87567603 16.72743854 25.61939504 15 22 C14.34 22 13.68 22 13 22 C11.6395277 20.00283867 10.40118244 18.02146081 9.1875 15.9375 C6.91889691 12.12911872 4.64544909 8.37513917 2 4.8125 C0 2 0 2 0 0 Z " fill="#06416E" transform="translate(649,513)"/>
<path d="M0 0 C3.96 0 7.92 0 12 0 C12 18.48 12 36.96 12 56 C11.67 56 11.34 56 11 56 C11 37.85 11 19.7 11 1 C8.36 1.33 5.72 1.66 3 2 C2.34 3.65 1.68 5.3 1 7 C0.67 7 0.34 7 0 7 C0 4.69 0 2.38 0 0 Z " fill="#0D435F" transform="translate(661,626)"/>
<path d="M0 0 C1.29615234 -0.020625 2.59230469 -0.04125 3.92773438 -0.0625 C5.16201172 -0.06765625 6.39628906 -0.0728125 7.66796875 -0.078125 C8.79871826 -0.0874707 9.92946777 -0.09681641 11.09448242 -0.10644531 C11.99142822 0.01118164 12.88837402 0.12880859 13.8125 0.25 C14.4725 1.24 15.1325 2.23 15.8125 3.25 C9.8725 3.25 3.9325 3.25 -2.1875 3.25 C-2.5175 3.91 -2.8475 4.57 -3.1875 5.25 C-3.1875 4.59 -3.1875 3.93 -3.1875 3.25 C-8.4675 2.92 -13.7475 2.59 -19.1875 2.25 C-19.1875 1.92 -19.1875 1.59 -19.1875 1.25 C-12.84979897 -0.22694702 -6.47488105 0.02599049 0 0 Z " fill="#0783BF" transform="translate(507.1875,413.75)"/>
<path d="M0 0 C3.65878727 3.56649353 7.0399365 7.26527205 10.3125 11.1875 C10.9940918 11.98704102 10.9940918 11.98704102 11.68945312 12.80273438 C15 16.76045583 15 16.76045583 15 19 C9.06 19 3.12 19 -3 19 C-3.66 17.68 -4.32 16.36 -5 15 C-4.01 15.495 -4.01 15.495 -3 16 C-0.62597499 16.07116382 1.75000677 16.08409085 4.125 16.0625 C5.40632813 16.05347656 6.68765625 16.04445313 8.0078125 16.03515625 C8.99523437 16.02355469 9.98265625 16.01195312 11 16 C10.2059375 15.01257813 9.411875 14.02515625 8.59375 13.0078125 C7.56224612 11.71374399 6.53100992 10.41946209 5.5 9.125 C4.97535156 8.47402344 4.45070313 7.82304688 3.91015625 7.15234375 C3.41386719 6.52714844 2.91757812 5.90195312 2.40625 5.2578125 C1.71499023 4.39373779 1.71499023 4.39373779 1.00976562 3.51220703 C0 2 0 2 0 0 Z " fill="#192D42" transform="translate(273,669)"/>
<path d="M0 0 C1.41681634 0.31182069 2.83344651 0.62448737 4.25 0.9375 C5.43335938 1.19853516 5.43335938 1.19853516 6.640625 1.46484375 C8.76878703 1.947556 10.88532842 2.46163178 13 3 C13 3.99 13 4.98 13 6 C13.65613281 6.22816406 14.31226563 6.45632813 14.98828125 6.69140625 C18.96257108 8.41823776 22.52195679 10.63865706 26.1875 12.9375 C26.91130859 13.38029297 27.63511719 13.82308594 28.38085938 14.27929688 C29.07373047 14.71177734 29.76660156 15.14425781 30.48046875 15.58984375 C31.10848389 15.98034912 31.73649902 16.37085449 32.38354492 16.77319336 C34 18 34 18 36 21 C31.80912963 19.51767363 28.43313147 17.41183121 24.75 14.9375 C16.81192225 9.69412812 8.46005467 5.3324493 0 1 C0 0.67 0 0.34 0 0 Z " fill="#084786" transform="translate(576,456)"/>
<path d="M0 0 C1.98 0.99 1.98 0.99 4 2 C4 13.88 4 25.76 4 38 C3.67 38 3.34 38 3 38 C2.93941406 36.85402344 2.87882813 35.70804688 2.81640625 34.52734375 C2.73193011 32.99738703 2.64728573 31.46743959 2.5625 29.9375 C2.52318359 29.18533203 2.48386719 28.43316406 2.44335938 27.65820312 C2.24341531 24.10535081 1.95060577 20.66309727 1.43359375 17.13671875 C0.97250705 13.80110955 1.42712945 11.29400566 2 8 C1.60260574 5.15200782 0.91075253 2.73225758 0 0 Z " fill="#014973" transform="translate(681,492)"/>
<path d="M0 0 C0.66 0.66 1.32 1.32 2 2 C-0.75170751 4.9555377 -3.41970299 7.11563315 -7 9 C-7.66 9 -8.32 9 -9 9 C-9.33 10.32 -9.66 11.64 -10 13 C-11.98 13.33 -13.96 13.66 -16 14 C-16 13.01 -16 12.02 -16 11 C-14.53125 9.6496582 -14.53125 9.6496582 -12.5 8.30078125 C-11.778125 7.81416016 -11.05625 7.32753906 -10.3125 6.82617188 C-9.549375 6.32666016 -8.78625 5.82714844 -8 5.3125 C-7.236875 4.80138672 -6.47375 4.29027344 -5.6875 3.76367188 C-3.79759345 2.49979687 -1.90181527 1.24585339 0 0 Z " fill="#0786C7" transform="translate(385,450)"/>
<path d="M0 0 C0 0.99 0 1.98 0 3 C-5.83480729 8.5634209 -10.46028788 10.41877427 -18.5546875 10.26171875 C-21.86981486 9.9069048 -24.24031294 8.83979137 -27 7 C-27.33 6.34 -27.66 5.68 -28 5 C-25.69 5 -23.38 5 -21 5 C-21.33 5.66 -21.66 6.32 -22 7 C-19.91695462 7.05418326 -17.83350232 7.09287551 -15.75 7.125 C-14.58984375 7.14820313 -13.4296875 7.17140625 -12.234375 7.1953125 C-6.38659971 6.84218597 -3.94910628 4.16850108 0 0 Z " fill="#14AB96" transform="translate(525,363)"/>
<path d="M0 0 C4.4030087 1.34536377 6.471564 3.16052312 9 7 C9 7.99 9 8.98 9 10 C13.29 10 17.58 10 22 10 C22.33 8.68 22.66 7.36 23 6 C23.33 7.98 23.66 9.96 24 12 C18.72 12 13.44 12 8 12 C7.01 9.69 6.02 7.38 5 5 C2.45911321 2.12314797 2.45911321 2.12314797 0 0 Z " fill="#0C253B" transform="translate(193,611)"/>
<path d="M0 0 C8.8719808 3.2610524 16.60427019 9.21480161 24 15 C21 15 21 15 18 13 C17.01 13 16.02 13 15 13 C13.33333333 11.33333333 11.66666667 9.66666667 10 8 C8.989375 7.505 7.97875 7.01 6.9375 6.5 C3.63720065 4.81474076 2.11014011 3.0028917 0 0 Z " fill="#054984" transform="translate(627,448)"/>
<path d="M0 0 C0.33 0.66 0.66 1.32 1 2 C0.34 3.98 -0.32 5.96 -1 8 C-6.28 8 -11.56 8 -17 8 C-16.67 6.02 -16.34 4.04 -16 2 C-15.34 1.67 -14.68 1.34 -14 1 C-14.33 2.65 -14.66 4.3 -15 6 C-10.71 6 -6.42 6 -2 6 C-1.34 4.02 -0.68 2.04 0 0 Z " fill="#0B9A83" transform="translate(791,680)"/>
<path d="M0 0 C0.33 0 0.66 0 1 0 C1.33 4.95 1.66 9.9 2 15 C1.34 15 0.68 15 0 15 C-0.391875 15.474375 -0.78375 15.94875 -1.1875 16.4375 C-3.86612359 18.74665826 -6.56076032 18.67554343 -10 19 C-5.33864542 14.20916335 -5.33864542 14.20916335 -2.875 12.6875 C-0.74978405 11.10158366 -0.74978405 11.10158366 -0.390625 8.30078125 C-0.32101562 6.82158203 -0.32101562 6.82158203 -0.25 5.3125 C-0.19328125 4.31863281 -0.1365625 3.32476562 -0.078125 2.30078125 C-0.05234375 1.54152344 -0.0265625 0.78226562 0 0 Z " fill="#20B399" transform="translate(388,372)"/>
<path d="M0 0 C6.90576614 1.28090824 12.70239164 3.42488079 19 6.5 C20.28583984 7.10521484 20.28583984 7.10521484 21.59765625 7.72265625 C27.86642987 10.73285975 27.86642987 10.73285975 29 13 C23.64561503 11.36393793 18.71717914 9.50835813 13.82421875 6.76953125 C11.71573103 5.74088378 11.71573103 5.74088378 8 6 C8 5.01 8 4.02 8 3 C7.05125 2.87625 6.1025 2.7525 5.125 2.625 C2 2 2 2 0 0 Z " fill="#094F8F" transform="translate(587,429)"/>
<path d="M0 0 C-1 2 -1 2 -3.546875 2.88671875 C-4.60390625 3.15097656 -5.6609375 3.41523438 -6.75 3.6875 C-7.79671875 3.95949219 -8.8434375 4.23148437 -9.921875 4.51171875 C-12.99654841 4.99945248 -15.02462919 4.82098195 -18 4 C-14.89724263 1.93149509 -12.5900783 1.21441918 -9 0.3125 C-7.948125 0.04050781 -6.89625 -0.23148437 -5.8125 -0.51171875 C-3 -1 -3 -1 0 0 Z " fill="#0E8ECB" transform="translate(461,420)"/>
<path d="M0 0 C0.99 0 1.98 0 3 0 C2.67 3.63 2.34 7.26 2 11 C1.34 11 0.68 11 0 11 C-3.07692308 6.8974359 -3.07692308 6.8974359 -2.8125 3.8125 C-2 2 -2 2 0 0 Z " fill="#0188C0" transform="translate(683,431)"/>
<path d="M0 0 C0.66 0 1.32 0 2 0 C2 4.95 2 9.9 2 15 C-0.97 14.67 -3.94 14.34 -7 14 C-7 13.67 -7 13.34 -7 13 C-4.69 13 -2.38 13 0 13 C0 8.71 0 4.42 0 0 Z " fill="#051D36" transform="translate(500,624)"/>
<path d="M0 0 C5.28 0 10.56 0 16 0 C16.33 0.99 16.66 1.98 17 3 C11.39 3 5.78 3 0 3 C0 2.01 0 1.02 0 0 Z " fill="#11AC9F" transform="translate(838,685)"/>
<path d="M0 0 C2 3 2 3 2 7 C1.34 7 0.68 7 0 7 C-1.32 10.3 -2.64 13.6 -4 17 C-5.1246706 12.50131761 -4.63168384 11.07797392 -3.125 6.8125 C-2.75632812 5.74644531 -2.38765625 4.68039062 -2.0078125 3.58203125 C-1 1 -1 1 0 0 Z " fill="#0C9D86" transform="translate(796,623)"/>
<path d="M0 0 C5.28 0 10.56 0 16 0 C16 0.33 16 0.66 16 1 C11.38 1.33 6.76 1.66 2 2 C1.67 2.99 1.34 3.98 1 5 C0.01 5 -0.98 5 -2 5 C-1.34 3.35 -0.68 1.7 0 0 Z " fill="#14A99A" transform="translate(806,599)"/>
<path d="M0 0 C1.875 0.25 1.875 0.25 4 1 C5.25 3.0625 5.25 3.0625 6 5 C6.99 4.67 7.98 4.34 9 4 C9.33 5.98 9.66 7.96 10 10 C7 10 7 10 5.4375 8.5625 C4.963125 8.046875 4.48875 7.53125 4 7 C3.34 6.67 2.68 6.34 2 6 C1.27306096 4.02111039 0.60183749 2.02045442 0 0 Z " fill="#055382" transform="translate(645,507)"/>
<path d="M0 0 C0.33 0.33 0.66 0.66 1 1 C2.84891946 1.23363881 4.70488031 1.41303635 6.5625 1.5625 C7.57441406 1.64628906 8.58632813 1.73007812 9.62890625 1.81640625 C10.80259766 1.90728516 10.80259766 1.90728516 12 2 C12 2.33 12 2.66 12 3 C5.73 3 -0.54 3 -7 3 C-7.33 2.34 -7.66 1.68 -8 1 C-5.26752652 -0.36623674 -3.01801098 -0.128426 0 0 Z " fill="#037EBE" transform="translate(503,441)"/>
<path d="M0 0 C0.66 0.33 1.32 0.66 2 1 C0.40764698 4.18470604 -2.81137261 4.82853964 -6 6 C-8.32211838 6.73211856 -10.64542119 7.37531583 -13 8 C-13 7.34 -13 6.68 -13 6 C-10.87959258 4.96966118 -8.75352092 3.95097146 -6.625 2.9375 C-5.44164062 2.36902344 -4.25828125 1.80054688 -3.0390625 1.21484375 C-2.03617187 0.81394531 -1.03328125 0.41304688 0 0 Z " fill="#0890D0" transform="translate(423,430)"/>
<path d="M0 0 C1.32 0.33 2.64 0.66 4 1 C3.67 1.66 3.34 2.32 3 3 C2.34 3 1.68 3 1 3 C1.309375 4.11375 1.309375 4.11375 1.625 5.25 C2.04408751 8.32330841 1.61949011 9.42786866 0 12 C-0.99 11.67 -1.98 11.34 -3 11 C-2.01 7.37 -1.02 3.74 0 0 Z " fill="#19A693" transform="translate(790,638)"/>
<path d="M0 0 C1.41681634 0.31182069 2.83344651 0.62448737 4.25 0.9375 C5.43335938 1.19853516 5.43335938 1.19853516 6.640625 1.46484375 C8.76878703 1.947556 10.88532842 2.46163178 13 3 C13 3.99 13 4.98 13 6 C13.66 6.33 14.32 6.66 15 7 C14.01 7.495 14.01 7.495 13 8 C10.71741367 6.92325298 8.5643566 5.80453884 6.375 4.5625 C5.76398437 4.22412109 5.15296875 3.88574219 4.5234375 3.53710938 C3.011647 2.69853808 1.50529601 1.85017423 0 1 C0 0.67 0 0.34 0 0 Z " fill="#0A5B98" transform="translate(576,456)"/>
<path d="M0 0 C3.94139078 1.66751148 6.7892812 4.22710649 10 7 C9.01 7.99 8.02 8.98 7 10 C4.39841136 7.5284908 2.14130392 4.87968458 0 2 C0 1.34 0 0.68 0 0 Z " fill="#1D8EBC" transform="translate(679,422)"/>
<path d="M0 0 C0.85271484 0.19916016 0.85271484 0.19916016 1.72265625 0.40234375 C6.47151097 1.4884758 11.16780324 2.38312382 16 3 C16.33 3.99 16.66 4.98 17 6 C17.66 6.33 18.32 6.66 19 7 C12.28460827 5.70024676 6.27980887 3.70071112 0 1 C0 0.67 0 0.34 0 0 Z " fill="#10959E" transform="translate(572,369)"/>
<path d="M0 0 C-0.99 0.495 -0.99 0.495 -2 1 C-2 1.99 -2 2.98 -2 4 C-5.96 4 -9.92 4 -14 4 C-10.28835785 0.28835785 -5.09745779 -0.30893684 0 0 Z " fill="#12A38C" transform="translate(455,356)"/>
<path d="M0 0 C1.93833996 0.08715017 3.8757429 0.19532964 5.8125 0.3125 C7.43091797 0.39951172 7.43091797 0.39951172 9.08203125 0.48828125 C12.17497517 1.03068507 13.13022903 1.55289624 15 4 C13.06318839 4.08107583 11.1254066 4.13922475 9.1875 4.1875 C8.10855469 4.22230469 7.02960937 4.25710938 5.91796875 4.29296875 C3 4 3 4 1.11328125 2.55078125 C0 1 0 1 0 0 Z " fill="#20485E" transform="translate(632,700)"/>
<path d="M0 0 C1.53690745 2.41040161 2.09752136 3.50082285 1.5390625 6.359375 C1.23742187 7.14828125 0.93578125 7.9371875 0.625 8.75 C0.32851563 9.54921875 0.03203125 10.3484375 -0.2734375 11.171875 C-0.51320313 11.77515625 -0.75296875 12.3784375 -1 13 C-1.66 13 -2.32 13 -3 13 C-2.67 9.37 -2.34 5.74 -2 2 C-1.34 2 -0.68 2 0 2 C0 1.34 0 0.68 0 0 Z " fill="#17A695" transform="translate(794,667)"/>
<path d="M0 0 C3.3 0 6.6 0 10 0 C10 0.33 10 0.66 10 1 C7.69 1.33 5.38 1.66 3 2 C2.34 3.65 1.68 5.3 1 7 C0.67 7 0.34 7 0 7 C0 4.69 0 2.38 0 0 Z " fill="#0C3C56" transform="translate(661,626)"/>
<path d="M0 0 C0.99 0.66 1.98 1.32 3 2 C3 2.99 3 3.98 3 5 C-2.75 5.125 -2.75 5.125 -5 4 C-4.67 3.01 -4.34 2.02 -4 1 C-2.02 1.495 -2.02 1.495 0 2 C0 1.34 0 0.68 0 0 Z " fill="#16A2A1" transform="translate(557,361)"/>
<path d="M0 0 C0.99 1.32 1.98 2.64 3 4 C-0.76624671 5.25541557 -2.37188934 4.37061958 -6 3 C-5.67 2.34 -5.34 1.68 -5 1 C-2.4375 0.375 -2.4375 0.375 0 0 Z " fill="#0765A1" transform="translate(572,451)"/>
<path d="M0 0 C0 0.99 0 1.98 0 3 C-2.64 3.33 -5.28 3.66 -8 4 C-8 3.01 -8 2.02 -8 1 C-5.23735711 0.40267181 -2.83967231 0 0 0 Z " fill="#118BC8" transform="translate(478,444)"/>
<path d="M0 0 C4.43458973 1.3937282 6.87378374 3.60582235 10 7 C9.67 7.66 9.34 8.32 9 9 C4.125 6.375 4.125 6.375 3 3 C1.50014391 1.33289654 1.50014391 1.33289654 0 0 Z " fill="#18AF9A" transform="translate(516,332)"/>
<path d="M0 0 C4.16871752 2.50123051 6.98422938 4.49415979 9 9 C8.67 9.66 8.34 10.32 8 11 C6.66072279 9.54712339 5.32873153 8.08752741 4 6.625 C3.2575 5.81289063 2.515 5.00078125 1.75 4.1640625 C0 2 0 2 0 0 Z " fill="#043469" transform="translate(638,500)"/>
<path d="M0 0 C2.12038635 2.61514317 4.13091744 5.19637616 6 8 C2.18315774 6.44499019 -0.19195732 3.96404505 -3 1 C-2.01 0.67 -1.02 0.34 0 0 Z " fill="#084C86" transform="translate(615,476)"/>
<path d="M0 0 C2.1875 0.3125 2.1875 0.3125 4 1 C1.03 3.475 1.03 3.475 -2 6 C-2.33 5.01 -2.66 4.02 -3 3 C-1.75 1.4375 -1.75 1.4375 0 0 Z " fill="#0581C0" transform="translate(360,468)"/>
<path d="M0 0 C-0.99 0.495 -0.99 0.495 -2 1 C-2.33 1.66 -2.66 2.32 -3 3 C-3.99 3 -4.98 3 -6 3 C-6.66 3.66 -7.32 4.32 -8 5 C-8.66 3.68 -9.32 2.36 -10 1 C-6.52674819 -0.1577506 -3.63932552 -0.06866652 0 0 Z " fill="#0A97D4" transform="translate(435,428)"/>
<path d="M0 0 C3.63 0.33 7.26 0.66 11 1 C6.78370866 3.10814567 4.60209225 3.17700355 0 3 C0 2.01 0 1.02 0 0 Z " fill="#0AA18D" transform="translate(471,360)"/>
<path d="M0 0 C1.45903258 0.30921884 2.91720722 0.62248799 4.375 0.9375 C5.18710937 1.11152344 5.99921875 1.28554688 6.8359375 1.46484375 C9 2 9 2 11 3 C10.67 3.99 10.34 4.98 10 6 C9.34 6 8.68 6 8 6 C8 5.01 8 4.02 8 3 C7.05125 2.87625 6.1025 2.7525 5.125 2.625 C2 2 2 2 0 0 Z " fill="#0A5B9A" transform="translate(587,429)"/>
<path d="M0 0 C1 2 1 2 0.25 4.5 C-1 7 -1 7 -4 9 C-3.38461538 3.46153846 -3.38461538 3.46153846 -1.4375 1.125 C-0.963125 0.75375 -0.48875 0.3825 0 0 Z " fill="#2BBA8F" transform="translate(393,362)"/>
<path d="M0 0 C1.32 0 2.64 0 4 0 C4.33 0.99 4.66 1.98 5 3 C2.69 3.66 0.38 4.32 -2 5 C-1 2 -1 2 0 0 Z " fill="#0B8FCE" transform="translate(452,449)"/>
<path d="M0 0 C0.33 0.66 0.66 1.32 1 2 C0.34 2.66 -0.32 3.32 -1 4 C-1.99 3.34 -2.98 2.68 -4 2 C-5.32 2 -6.64 2 -8 2 C-8 1.34 -8 0.68 -8 0 C-2.25 -1.125 -2.25 -1.125 0 0 Z " fill="#1FABA9" transform="translate(559,355)"/>
<path d="M0 0 C0 0.99 0 1.98 0 3 C-3.33333333 6 -3.33333333 6 -6 6 C-6 5.01 -6 4.02 -6 3 C-4.02 2.01 -2.04 1.02 0 0 Z " fill="#0B8DCD" transform="translate(404,439)"/>
</svg>
