<?xml version="1.0" encoding="utf-8"?>
<!DOCTYPE svg PUBLIC "-//W3C//DTD SVG 20010904//EN" "http://www.w3.org/TR/2001/REC-SVG-20010904/DTD/svg10.dtd">
<svg version="1.0" xmlns="http://www.w3.org/2000/svg" width="1026pt" height="1026pt" viewBox="0 0 1026 1026" style="" preserveAspectRatio="xMidYMid meet">
<g fill="#0094D1FD">
<path d="M 501.000 416.022 C 504.388 416.642 502.975 416.779 495.286 416.577 C 488.640 416.402 485.289 416.658 485.693 417.312 C 486.095 417.963 484.490 418.100 481.124 417.701 C 477.438 417.264 476.135 417.409 476.623 418.199 C 477.103 418.976 476.211 419.134 473.674 418.722 C 471.673 418.397 469.766 418.570 469.434 419.107 C 469.103 419.643 467.970 419.808 466.916 419.473 C 465.862 419.139 465.000 419.317 465.000 419.870 C 465.000 420.423 463.242 420.850 461.093 420.821 C 458.944 420.791 456.602 421.128 455.888 421.569 C 455.175 422.010 453.388 422.503 451.918 422.664 C 450.448 422.825 447.952 423.477 446.373 424.113 C 444.793 424.749 442.574 425.394 441.442 425.546 C 436.169 426.254 405.000 439.591 405.000 441.139 C 405.000 441.613 404.380 442.000 403.622 442.000 C 402.865 442.000 401.689 442.670 401.009 443.489 C 400.329 444.308 399.374 444.731 398.887 444.430 C 398.399 444.129 398.000 444.359 398.000 444.941 C 398.000 445.523 397.663 445.904 397.250 445.788 C 396.124 445.469 391.669 448.107 390.282 449.913 C 389.612 450.786 389.049 451.144 389.032 450.710 C 389.014 450.275 387.767 451.062 386.260 452.460 C 384.753 453.857 383.178 455.000 382.760 455.000 C 382.342 455.000 381.797 455.024 381.549 455.053 C 381.301 455.082 379.691 456.420 377.971 458.027 C 376.251 459.633 374.542 460.906 374.172 460.856 C 373.802 460.805 373.680 460.816 373.899 460.882 C 374.119 460.947 371.306 463.265 367.649 466.034 C 363.992 468.802 360.944 470.827 360.875 470.534 C 360.806 470.240 360.694 470.384 360.625 470.854 C 360.495 471.746 354.089 477.431 353.882 476.839 C 353.816 476.653 353.796 476.776 353.836 477.114 C 353.876 477.451 349.906 481.644 345.013 486.432 L 336.117 495.137 336.661 519.819 C 336.960 533.393 337.384 544.687 337.603 544.917 C 337.821 545.146 338.007 539.521 338.015 532.417 C 338.025 523.932 338.354 520.012 338.974 520.992 C 339.492 521.812 339.677 523.439 339.384 524.606 C 339.037 525.990 339.407 526.942 340.449 527.342 C 341.771 527.849 341.864 527.614 340.988 525.977 C 340.406 524.890 340.283 523.966 340.715 523.923 C 341.147 523.881 342.288 523.696 343.250 523.512 C 344.632 523.247 344.796 523.527 344.031 524.838 C 343.405 525.910 342.997 526.056 342.880 525.250 C 342.781 524.563 342.700 524.450 342.700 525.000 C 342.700 527.900 343.250 528.051 345.893 525.878 L 348.786 523.500 346.391 527.000 C 345.073 528.925 344.559 530.311 345.248 530.079 C 347.720 529.248 348.521 529.472 349.923 531.387 C 350.705 532.457 350.849 533.025 350.242 532.650 C 349.635 532.274 348.856 532.425 348.510 532.984 C 347.515 534.594 350.619 534.164 352.000 532.500 C 352.997 531.299 352.988 531.000 351.956 531.000 C 351.247 531.000 350.956 530.711 351.309 530.357 C 351.663 530.004 352.707 530.342 353.630 531.107 C 354.552 531.873 354.951 532.349 354.515 532.165 C 353.145 531.584 352.024 534.396 353.303 535.208 C 354.105 535.718 353.903 535.974 352.691 535.985 C 351.696 535.993 351.160 536.450 351.500 537.000 C 351.840 537.550 351.664 538.000 351.109 538.000 C 350.554 538.000 349.641 537.213 349.080 536.250 C 348.519 535.288 348.061 534.950 348.062 535.500 C 348.063 536.050 348.693 537.331 349.463 538.347 C 350.233 539.363 350.617 540.938 350.318 541.847 C 350.018 542.756 351.536 540.575 353.691 537.000 C 360.536 525.642 363.216 522.015 364.277 522.671 C 364.873 523.039 365.007 522.821 364.596 522.155 C 363.791 520.854 372.841 508.508 373.856 509.522 C 374.210 509.877 374.501 509.792 374.502 509.333 C 374.505 507.521 379.218 502.017 380.231 502.643 C 380.824 503.009 381.027 502.853 380.683 502.296 C 380.338 501.739 383.531 497.882 387.778 493.727 C 397.492 484.221 402.165 480.355 401.798 482.126 C 401.641 482.882 401.887 482.736 402.343 481.802 C 403.379 479.686 409.544 474.917 411.811 474.479 C 412.740 474.300 413.100 474.119 412.610 474.077 C 411.561 473.986 418.656 469.044 420.298 468.721 C 420.916 468.599 422.295 467.728 423.362 466.785 C 424.430 465.841 425.685 465.305 426.151 465.594 C 426.618 465.882 427.000 465.615 427.000 465.000 C 427.000 464.385 427.423 464.144 427.940 464.463 C 428.458 464.783 429.773 464.087 430.864 462.916 C 431.954 461.745 433.295 461.064 433.843 461.403 C 434.391 461.741 435.496 461.361 436.300 460.557 C 437.104 459.753 438.040 459.374 438.381 459.714 C 438.721 460.055 439.000 459.904 439.000 459.379 C 439.000 458.855 439.972 458.352 441.160 458.263 C 442.348 458.173 443.605 457.639 443.953 457.075 C 444.302 456.512 445.467 455.903 446.543 455.722 C 447.620 455.542 451.650 454.312 455.500 452.990 C 459.350 451.667 462.838 450.679 463.250 450.793 C 463.663 450.907 464.000 450.520 464.000 449.933 C 464.000 449.320 464.853 449.136 466.000 449.500 C 467.231 449.891 468.000 449.680 468.000 448.951 C 468.000 448.259 468.832 447.984 470.000 448.290 C 471.100 448.577 472.000 448.373 472.000 447.835 C 472.000 447.297 473.013 446.988 474.250 447.148 C 475.488 447.307 477.088 447.072 477.807 446.625 C 478.526 446.178 480.326 446.093 481.807 446.436 C 483.882 446.918 484.156 446.816 483.000 445.993 C 481.866 445.186 482.668 444.984 486.287 445.166 C 488.920 445.299 490.720 445.053 490.287 444.620 C 489.854 444.187 492.081 443.952 495.235 444.098 C 498.389 444.244 501.277 444.056 501.652 443.682 C 502.609 442.724 514.721 442.878 526.188 443.994 C 537.004 445.047 553.731 448.253 560.641 450.599 C 564.888 452.041 565.258 452.023 566.432 450.320 C 567.577 448.659 567.522 448.620 565.807 449.872 C 564.204 451.043 563.676 451.026 562.214 449.753 C 561.271 448.932 559.894 448.479 559.153 448.746 C 558.081 449.132 558.034 448.804 558.926 447.138 C 559.858 445.396 559.789 445.144 558.512 445.634 C 557.428 446.050 557.151 445.771 557.568 444.684 C 557.899 443.822 559.003 443.308 560.079 443.515 C 561.136 443.719 562.000 443.461 562.000 442.943 C 562.000 442.424 562.338 442.053 562.750 442.118 C 563.163 442.184 564.153 442.184 564.950 442.118 C 566.078 442.026 566.133 441.733 565.200 440.800 C 564.267 439.867 563.733 439.867 562.800 440.800 C 561.136 442.464 559.947 442.302 560.636 440.506 C 560.952 439.684 561.612 439.260 562.105 439.565 C 563.537 440.450 563.138 438.996 561.500 437.357 C 560.675 436.532 560.000 435.369 560.000 434.773 C 560.000 434.177 561.027 434.884 562.282 436.344 C 563.537 437.805 565.167 439.000 565.904 439.000 C 567.011 439.000 567.017 438.725 565.937 437.424 C 564.853 436.117 564.874 435.693 566.064 434.947 C 566.854 434.451 568.356 434.312 569.401 434.638 C 570.922 435.112 571.164 434.869 570.608 433.421 C 569.953 431.714 570.020 431.708 571.786 433.306 C 572.815 434.238 574.072 434.993 574.579 434.985 C 575.085 434.976 574.825 434.533 574.000 434.000 C 573.139 433.444 572.998 433.024 573.668 433.015 C 574.311 433.007 575.626 432.697 576.592 432.326 C 578.011 431.782 578.206 432.022 577.611 433.576 C 577.150 434.781 578.113 434.219 580.188 432.072 C 582.117 430.075 582.769 428.914 581.750 429.290 C 580.788 429.646 580.000 429.475 580.000 428.910 C 580.000 428.344 579.588 428.136 579.085 428.447 C 578.582 428.758 578.020 428.579 577.835 428.049 C 577.410 426.827 557.491 421.701 544.944 419.585 C 536.495 418.160 520.958 416.688 502.500 415.564 C 496.877 415.222 496.783 415.251 501.000 416.022 "/></g>
<g fill="#083854FD">
<path d="M 689.752 431.908 C 688.240 432.877 687.303 433.970 687.669 434.335 C 688.034 434.701 687.900 435.000 687.371 435.000 C 686.842 435.000 686.298 436.649 686.162 438.664 C 686.026 440.679 685.683 442.704 685.399 443.164 C 685.114 443.624 685.366 444.000 685.958 444.000 C 686.705 444.000 686.953 451.726 686.767 469.249 C 686.523 492.302 686.351 494.498 684.790 494.499 C 683.516 494.500 683.320 494.883 684.024 496.000 C 684.544 496.825 684.948 502.225 684.921 508.000 C 684.888 515.293 684.597 517.813 683.969 516.250 C 683.471 515.013 682.545 514.000 681.910 514.000 C 681.120 514.000 681.189 514.553 682.128 515.750 C 683.330 517.283 683.310 517.352 681.966 516.307 C 680.974 515.536 679.915 515.442 678.966 516.042 C 678.160 516.552 677.838 517.033 678.250 517.110 C 678.663 517.187 678.438 517.334 677.750 517.436 C 677.063 517.539 675.978 517.236 675.339 516.763 C 674.645 516.249 673.879 516.387 673.435 517.106 C 672.963 517.869 673.114 518.048 673.845 517.595 C 674.540 517.166 675.000 517.540 675.000 518.535 C 675.000 519.444 674.131 520.414 673.069 520.692 C 671.921 520.992 671.356 521.765 671.676 522.599 C 671.972 523.369 671.689 524.000 671.048 524.000 C 670.407 524.000 670.160 523.550 670.500 523.000 C 671.474 521.424 668.308 521.834 666.643 523.500 C 665.004 525.138 663.550 525.537 664.435 524.105 C 664.740 523.612 664.287 522.940 663.429 522.611 C 662.208 522.142 662.017 522.478 662.550 524.158 C 663.086 525.848 662.895 526.174 661.647 525.695 C 660.777 525.361 659.819 525.485 659.519 525.970 C 658.510 527.602 666.486 525.968 667.750 524.284 C 668.438 523.367 669.000 523.127 669.000 523.750 C 669.000 524.373 668.519 525.179 667.932 525.542 C 667.344 525.905 667.100 526.817 667.388 527.569 C 667.677 528.321 667.521 529.178 667.042 529.474 C 666.563 529.770 665.981 529.447 665.748 528.756 C 665.412 527.757 665.003 527.766 663.752 528.799 C 662.694 529.671 661.965 529.753 661.530 529.049 C 661.174 528.472 660.346 528.007 659.691 528.015 C 658.980 528.024 659.104 528.413 660.000 528.979 C 660.825 529.500 661.539 530.281 661.586 530.714 C 661.789 532.563 663.292 535.000 664.229 535.000 C 664.808 535.000 664.700 534.344 663.980 533.476 C 663.284 532.638 662.902 531.765 663.130 531.537 C 663.358 531.309 664.604 532.668 665.898 534.557 C 667.937 537.531 668.068 538.218 666.876 539.683 C 665.659 541.179 665.719 541.292 667.391 540.664 C 669.071 540.034 669.127 540.145 667.891 541.664 C 666.656 543.183 666.711 543.295 668.391 542.664 C 670.071 542.034 670.127 542.145 668.891 543.664 C 667.656 545.183 667.711 545.295 669.391 544.664 C 670.997 544.061 671.092 544.184 670.019 545.477 C 669.086 546.602 669.064 547.000 669.937 547.000 C 670.586 547.000 670.840 547.450 670.500 548.000 C 670.160 548.550 670.396 549.000 671.024 549.000 C 671.653 549.000 671.981 549.558 671.753 550.241 C 671.525 550.924 671.971 552.114 672.744 552.886 C 673.900 554.043 673.914 554.439 672.824 555.130 C 672.093 555.594 684.840 555.976 701.292 555.985 C 722.051 555.995 731.451 555.658 732.292 554.872 C 733.215 554.010 733.446 539.559 733.269 493.622 C 733.142 460.555 733.030 433.713 733.019 433.973 C 733.009 434.232 732.299 433.445 731.443 432.223 C 729.926 430.056 729.417 430.002 711.193 430.073 C 695.129 430.136 692.113 430.394 689.752 431.908 "/></g>
<g fill="#083854FD">
<path d="M 322.500 429.739 C 319.750 429.871 310.975 430.096 303.000 430.239 C 290.946 430.456 288.484 430.753 288.402 432.000 C 288.349 432.825 288.229 433.500 288.137 433.500 C 288.045 433.500 287.983 460.613 288.000 493.750 L 288.030 554.000 311.433 554.000 C 324.305 554.000 335.661 554.267 336.668 554.594 C 337.817 554.967 338.063 554.870 337.329 554.334 C 336.464 553.703 336.072 538.260 335.829 495.242 C 335.648 463.212 335.136 437.004 334.691 437.002 C 334.246 437.001 334.160 436.550 334.500 436.000 C 334.840 435.450 334.615 435.000 334.000 435.000 C 333.385 435.000 333.160 434.550 333.500 434.000 C 333.840 433.450 333.390 433.000 332.500 433.000 C 331.532 433.000 331.168 432.536 331.595 431.845 C 332.018 431.161 331.872 430.961 331.235 431.355 C 330.644 431.720 329.562 431.452 328.831 430.759 C 328.042 430.013 325.462 429.598 322.500 429.739 "/></g>
<g fill="#083854FD">
<path d="M 390.000 643.508 L 390.000 686.930 411.407 687.038 C 423.180 687.098 432.518 686.827 432.157 686.437 C 431.796 686.046 432.724 685.948 434.220 686.219 C 435.929 686.528 436.704 686.330 436.306 685.686 C 435.917 685.056 436.335 684.915 437.388 685.319 C 438.332 685.681 438.858 685.579 438.558 685.093 C 437.855 683.957 440.846 682.787 442.245 683.651 C 442.874 684.040 443.016 683.834 442.591 683.147 C 442.186 682.493 442.577 681.716 443.486 681.367 C 444.373 681.027 446.202 679.125 447.550 677.142 C 448.897 675.158 450.052 673.753 450.115 674.018 C 450.298 674.782 450.681 672.722 450.848 670.083 C 450.931 668.754 451.278 667.945 451.618 668.284 C 451.957 668.624 452.235 666.246 452.235 663.000 C 452.235 659.754 451.891 657.413 451.470 657.799 C 451.049 658.185 450.954 657.487 451.259 656.249 C 451.619 654.787 451.436 654.231 450.737 654.663 C 450.049 655.088 449.898 654.708 450.319 653.612 C 450.710 652.593 450.576 652.144 449.989 652.507 C 449.445 652.843 448.944 652.641 448.875 652.059 C 448.806 651.477 448.694 650.550 448.625 650.000 C 448.556 649.450 448.275 649.104 448.000 649.232 C 447.725 649.359 446.387 648.684 445.027 647.732 C 443.668 646.779 442.993 645.963 443.527 645.917 C 444.062 645.871 443.600 645.718 442.500 645.577 C 438.328 645.043 434.001 643.815 434.015 643.171 C 434.057 641.348 435.969 639.774 437.451 640.343 C 438.553 640.766 438.865 640.591 438.388 639.819 C 437.893 639.018 438.254 638.883 439.555 639.383 C 440.591 639.780 441.148 639.815 440.792 639.459 C 440.436 639.103 441.687 637.457 443.572 635.802 C 445.458 634.147 447.052 632.952 447.115 633.146 C 447.259 633.586 447.645 631.970 447.848 630.083 C 447.931 629.304 448.269 628.936 448.598 629.265 C 448.927 629.594 449.265 626.744 449.348 622.931 C 449.432 619.119 449.114 615.999 448.643 616.000 C 448.172 616.000 448.054 615.302 448.382 614.448 C 448.709 613.594 448.565 613.151 448.061 613.463 C 447.291 613.938 446.159 611.915 445.424 608.750 C 445.328 608.338 445.194 608.280 445.125 608.622 C 445.056 608.965 444.330 608.689 443.511 608.009 C 442.692 607.329 442.312 606.305 442.666 605.732 C 443.019 605.160 442.902 604.943 442.404 605.250 C 441.906 605.558 439.924 604.971 438.000 603.947 C 436.075 602.922 434.950 602.030 435.500 601.965 C 438.227 601.641 427.508 601.076 409.750 600.607 L 390.000 600.086 390.000 643.508 M 427.850 649.097 C 429.581 649.701 430.750 650.596 430.447 651.086 C 430.144 651.576 430.544 651.729 431.335 651.425 C 433.392 650.636 437.093 656.272 437.754 661.200 C 438.123 663.957 437.956 665.091 437.245 664.652 C 436.583 664.242 436.381 664.741 436.706 665.985 C 437.376 668.547 430.726 675.493 428.443 674.617 C 427.592 674.290 427.133 674.406 427.423 674.875 C 428.110 675.987 419.238 677.030 411.000 676.805 C 404.509 676.628 404.511 676.627 413.000 676.000 L 421.500 675.373 412.250 675.186 L 403.000 675.000 403.000 661.941 C 403.000 653.490 403.353 649.100 404.000 649.500 C 404.550 649.840 405.000 649.641 405.000 649.059 C 405.000 647.630 423.729 647.661 427.850 649.097 M 421.000 612.014 C 419.921 612.721 420.366 612.831 422.586 612.406 C 424.678 612.006 426.170 612.313 427.217 613.360 C 428.067 614.210 428.984 614.682 429.257 614.410 C 429.529 614.138 430.906 615.288 432.318 616.966 C 434.342 619.371 434.877 621.074 434.847 625.008 C 434.822 628.257 434.438 629.771 433.750 629.345 C 433.105 628.947 432.988 629.172 433.450 629.920 C 434.432 631.507 430.055 636.235 428.246 635.541 C 427.414 635.222 427.168 635.463 427.604 636.169 C 428.086 636.949 427.623 637.135 426.155 636.751 C 424.968 636.440 424.249 636.595 424.558 637.093 C 425.180 638.100 407.129 638.371 404.582 637.393 C 403.267 636.888 403.000 634.856 403.000 625.351 C 403.000 617.627 403.406 613.455 404.250 612.496 C 405.142 611.483 407.935 611.070 414.000 611.053 C 419.914 611.038 422.044 611.330 421.000 612.014 "/></g>
<g fill="#25B5ADFD">
<path d="M 504.590 333.143 C 504.928 333.691 503.814 334.149 498.750 335.543 C 498.338 335.657 498.295 335.806 498.655 335.875 C 499.015 335.944 498.493 336.903 497.494 338.006 C 496.496 339.110 495.414 339.747 495.089 339.423 C 494.765 339.099 494.444 339.321 494.375 339.917 C 494.306 340.513 494.194 341.525 494.125 342.167 C 494.056 342.808 493.701 343.034 493.335 342.668 C 492.969 342.302 492.538 343.233 492.378 344.737 C 492.217 346.241 491.617 347.628 491.043 347.819 C 490.469 348.010 490.000 349.088 490.000 350.214 C 490.000 351.998 489.547 352.188 486.478 351.690 C 484.197 351.320 483.179 351.480 483.589 352.144 C 483.993 352.798 482.716 353.060 480.062 352.869 C 477.774 352.703 476.261 352.932 476.701 353.377 C 477.140 353.822 475.784 354.041 473.686 353.863 C 471.588 353.685 470.238 353.925 470.686 354.397 C 471.134 354.869 470.063 355.054 468.303 354.809 C 466.544 354.563 465.303 354.681 465.544 355.071 C 466.191 356.119 459.250 357.214 456.831 356.446 C 455.304 355.962 454.958 356.123 455.531 357.050 C 456.100 357.971 455.726 358.162 454.155 357.751 C 452.787 357.393 452.235 357.571 452.647 358.238 C 453.064 358.913 452.359 359.111 450.679 358.789 C 449.239 358.514 448.276 358.637 448.539 359.063 C 449.197 360.128 443.329 361.322 441.870 360.420 C 441.080 359.932 440.959 360.124 441.502 361.003 C 442.106 361.980 441.762 362.171 440.155 361.751 C 438.772 361.389 438.234 361.569 438.655 362.251 C 439.076 362.933 438.538 363.112 437.155 362.751 C 435.864 362.413 435.243 362.583 435.608 363.175 C 435.944 363.718 435.382 364.074 434.359 363.966 C 433.337 363.858 432.708 363.822 432.961 363.885 C 433.215 363.948 431.840 364.807 429.905 365.794 C 426.190 367.687 426.157 367.677 421.126 363.041 C 419.456 361.502 417.845 360.489 417.545 360.788 C 417.245 361.088 417.000 360.782 417.000 360.108 C 417.000 359.434 416.550 359.160 416.000 359.500 C 415.450 359.840 415.000 359.401 415.000 358.524 C 415.000 357.292 414.586 357.151 413.181 357.903 C 412.181 358.438 409.494 358.743 407.210 358.581 C 404.927 358.418 403.256 358.605 403.498 358.996 C 404.036 359.868 398.959 362.293 398.195 361.528 C 397.144 360.477 393.137 365.194 393.742 366.770 C 394.133 367.789 393.939 368.080 393.181 367.612 C 392.401 367.130 392.238 367.456 392.681 368.612 C 393.102 369.708 392.951 370.088 392.263 369.663 C 391.561 369.229 391.388 369.780 391.767 371.249 C 392.270 373.203 392.139 373.329 390.769 372.207 C 389.364 371.055 389.279 371.304 389.996 374.481 C 390.438 376.443 390.568 378.937 390.283 380.024 C 389.989 381.150 390.264 382.000 390.922 382.000 C 391.558 382.000 391.160 382.985 390.039 384.189 C 388.918 385.392 388.000 385.981 388.000 385.497 C 388.000 385.014 387.339 385.491 386.532 386.559 C 385.724 387.626 385.049 388.207 385.032 387.849 C 385.014 387.491 383.604 388.501 381.898 390.095 C 380.192 391.689 378.440 392.772 378.003 392.502 C 377.567 392.232 376.927 392.748 376.581 393.649 C 376.236 394.549 375.683 395.016 375.352 394.686 C 375.022 394.355 373.923 395.078 372.909 396.293 C 371.896 397.507 371.052 398.232 371.033 397.904 C 371.015 397.576 369.088 399.073 366.750 401.231 C 364.413 403.389 362.500 404.670 362.500 404.077 C 362.500 403.485 361.150 404.645 359.500 406.656 C 357.850 408.666 356.646 409.679 356.824 408.906 C 357.002 408.133 355.427 409.416 353.324 411.757 C 351.221 414.098 349.934 415.223 350.465 414.257 C 350.996 413.291 347.147 416.924 341.911 422.330 C 333.241 431.282 332.551 432.273 334.189 433.420 C 335.178 434.113 335.690 434.977 335.327 435.340 C 334.964 435.703 335.129 436.000 335.695 436.000 C 336.260 436.000 336.508 437.125 336.245 438.500 C 335.947 440.056 336.225 441.000 336.981 441.000 C 338.551 441.000 352.189 427.855 351.418 427.085 C 351.096 426.763 351.278 426.500 351.821 426.500 C 352.363 426.500 354.763 424.278 357.154 421.563 C 359.544 418.847 361.500 417.237 361.500 417.985 C 361.500 418.732 362.767 417.683 364.315 415.653 C 365.864 413.623 367.551 412.223 368.065 412.540 C 368.579 412.858 369.000 412.674 369.000 412.130 C 369.000 411.587 369.788 410.355 370.750 409.393 C 372.065 408.078 372.500 407.987 372.500 409.027 C 372.500 409.789 373.323 409.155 374.330 407.619 C 375.336 406.083 376.421 405.088 376.740 405.407 C 377.059 405.726 377.954 405.083 378.729 403.977 C 379.503 402.871 380.509 402.196 380.964 402.478 C 381.418 402.759 382.059 402.288 382.388 401.431 C 382.717 400.574 383.392 400.124 383.888 400.431 C 384.384 400.738 385.059 400.288 385.388 399.431 C 385.717 398.574 386.392 398.124 386.888 398.431 C 387.384 398.738 388.073 398.252 388.419 397.351 C 388.764 396.451 389.317 395.984 389.648 396.314 C 389.978 396.645 391.063 395.922 392.059 394.707 C 393.656 392.760 394.126 392.656 396.040 393.824 C 397.233 394.552 397.911 394.664 397.546 394.074 C 397.181 393.483 397.359 393.000 397.941 393.000 C 398.523 393.000 399.000 393.477 399.000 394.059 C 399.000 394.641 399.526 394.793 400.170 394.395 C 400.975 393.897 401.124 394.235 400.647 395.477 C 400.061 397.004 400.190 397.087 401.477 396.019 C 402.663 395.035 403.000 395.027 403.000 395.985 C 403.000 396.661 403.620 396.976 404.378 396.685 C 405.136 396.394 406.149 396.544 406.628 397.018 C 407.108 397.492 408.777 398.110 410.338 398.390 C 412.530 398.784 413.049 398.570 412.619 397.450 C 411.952 395.712 412.464 395.643 415.186 397.100 C 416.681 397.899 417.056 397.899 416.562 397.100 C 416.185 396.491 416.578 395.944 417.441 395.875 C 420.808 395.605 421.139 395.472 420.370 394.703 C 419.544 393.877 425.825 387.528 427.533 387.464 C 428.065 387.443 427.938 387.079 427.250 386.655 C 425.548 385.602 425.660 383.655 427.385 384.317 C 428.516 384.752 428.569 384.318 427.673 381.945 C 426.723 379.428 426.873 378.767 428.802 376.970 C 430.025 375.830 431.540 375.215 432.167 375.603 C 432.839 376.019 433.036 375.867 432.646 375.236 C 432.039 374.254 436.373 372.615 439.826 372.521 C 440.555 372.501 440.817 372.151 440.409 371.742 C 439.736 371.069 440.675 370.880 446.307 370.553 C 447.301 370.495 447.751 370.056 447.307 369.576 C 446.857 369.090 447.495 368.950 448.751 369.259 C 450.184 369.612 450.766 369.431 450.353 368.762 C 449.936 368.087 450.641 367.889 452.321 368.211 C 453.923 368.517 454.699 368.323 454.321 367.711 C 453.943 367.098 454.719 366.904 456.321 367.211 C 457.923 367.517 458.699 367.323 458.321 366.711 C 457.943 366.098 458.719 365.904 460.321 366.211 C 461.761 366.486 462.732 366.375 462.478 365.965 C 461.821 364.901 468.662 363.773 471.294 364.512 C 473.101 365.019 473.229 364.924 472.000 363.986 C 470.828 363.091 471.472 362.952 474.948 363.352 C 478.011 363.704 478.945 363.561 477.948 362.892 C 476.922 362.205 477.754 361.996 480.799 362.177 C 483.164 362.317 484.776 362.110 484.383 361.716 C 483.989 361.322 485.268 361.000 487.225 361.000 C 490.102 361.000 491.739 361.909 495.777 365.750 C 502.542 372.184 503.197 372.616 505.500 372.170 C 506.600 371.957 507.155 372.139 506.734 372.574 C 506.313 373.009 508.000 373.451 510.484 373.556 C 512.968 373.660 515.000 373.305 515.000 372.766 C 515.000 372.227 515.675 372.045 516.500 372.362 C 517.325 372.678 518.000 372.475 518.000 371.910 C 518.000 371.344 518.450 371.160 519.000 371.500 C 519.550 371.840 520.000 371.641 520.000 371.059 C 520.000 370.477 520.338 370.105 520.750 370.234 C 521.792 370.559 526.917 365.251 526.227 364.561 C 525.919 364.252 526.218 364.000 526.892 364.000 C 527.566 364.000 527.863 363.587 527.550 363.081 C 527.238 362.576 528.430 361.845 530.200 361.456 C 532.137 361.031 533.552 361.157 533.758 361.773 C 533.958 362.373 535.797 362.569 538.202 362.246 C 541.033 361.866 542.097 362.035 541.631 362.789 C 541.166 363.541 542.101 363.696 544.633 363.285 C 546.997 362.901 548.088 363.049 547.686 363.699 C 547.303 364.319 548.019 364.528 549.530 364.239 C 550.889 363.979 552.000 364.238 552.000 364.814 C 552.000 365.508 553.040 365.562 555.085 364.976 C 557.588 364.258 557.963 364.339 557.076 365.409 C 556.205 366.457 556.524 366.622 558.640 366.218 C 560.659 365.832 561.102 366.026 560.485 367.025 C 559.894 367.980 560.127 368.157 561.336 367.670 C 566.629 365.539 566.564 365.547 565.241 367.176 C 564.151 368.518 564.339 368.658 566.640 368.218 C 568.723 367.820 569.116 368.012 568.457 369.105 C 567.755 370.270 567.882 370.284 569.227 369.195 C 570.577 368.101 570.992 368.162 571.781 369.573 C 572.421 370.717 572.947 370.895 573.421 370.128 C 573.804 369.508 573.529 368.986 572.809 368.970 C 572.061 368.952 572.308 368.470 573.387 367.843 C 574.865 366.985 575.102 367.025 574.481 368.031 C 573.880 369.003 574.271 369.140 576.094 368.594 C 580.126 367.384 581.656 367.439 578.847 368.693 C 577.388 369.344 575.871 370.399 575.476 371.038 C 574.938 371.909 575.273 371.924 576.814 371.100 C 579.760 369.523 580.449 369.740 578.872 371.750 C 577.681 373.270 577.698 373.356 579.000 372.410 C 581.211 370.803 586.572 371.302 588.805 373.323 C 590.556 374.908 590.815 374.925 591.365 373.491 C 591.740 372.515 591.569 372.148 590.926 372.546 C 589.604 373.363 585.841 370.067 586.633 368.785 C 586.955 368.264 588.407 368.082 589.859 368.379 C 591.312 368.677 591.919 368.670 591.208 368.363 C 590.153 367.907 590.153 367.503 591.208 366.153 C 592.354 364.686 592.308 364.650 590.798 365.833 C 589.817 366.600 588.206 366.883 586.995 366.499 C 585.206 365.931 585.085 365.585 586.180 364.166 C 587.088 362.989 586.808 363.061 585.227 364.411 C 583.995 365.461 582.690 366.024 582.327 365.661 C 581.964 365.297 581.992 365.000 582.390 365.000 C 582.788 365.000 582.371 363.988 581.464 362.750 L 579.815 360.500 580.540 363.000 C 581.260 365.480 581.249 365.485 579.156 363.616 C 577.996 362.580 577.262 361.385 577.525 360.960 C 577.788 360.534 577.102 360.422 576.001 360.710 C 574.728 361.043 573.988 360.736 573.968 359.867 C 573.947 358.958 573.444 359.151 572.468 360.441 C 571.661 361.509 571.000 361.846 571.000 361.191 C 571.000 358.866 570.672 358.504 568.847 358.813 C 567.831 358.985 567.000 358.632 567.000 358.028 C 567.000 357.251 566.432 357.233 565.061 357.968 C 563.676 358.709 562.917 358.675 562.406 357.848 C 561.962 357.130 562.129 356.962 562.845 357.405 C 563.480 357.797 564.000 357.653 564.000 357.084 C 564.000 356.457 562.758 356.298 560.845 356.681 C 558.826 357.085 557.914 356.948 558.314 356.301 C 558.701 355.675 557.941 355.480 556.321 355.789 C 554.536 356.131 553.925 355.931 554.401 355.160 C 554.893 354.364 554.151 354.220 551.894 354.671 C 549.750 355.100 548.906 354.961 549.345 354.251 C 549.784 353.540 548.598 353.350 545.750 353.675 C 542.829 354.008 541.933 353.855 542.885 353.187 C 543.830 352.524 542.718 352.364 539.385 352.684 C 535.658 353.041 534.856 352.889 536.000 352.046 C 537.175 351.179 536.901 351.078 534.737 351.581 C 531.591 352.312 528.834 350.597 529.666 348.427 C 529.968 347.642 529.668 347.000 529.000 347.000 C 528.332 347.000 528.045 346.326 528.362 345.500 C 528.678 344.675 528.475 344.000 527.910 344.000 C 527.344 344.000 527.160 343.550 527.500 343.000 C 527.840 342.450 527.615 342.000 527.000 342.000 C 526.385 342.000 526.091 341.661 526.348 341.247 C 526.604 340.832 525.055 339.171 522.907 337.555 C 520.758 335.939 519.000 334.267 519.000 333.840 C 519.000 333.412 518.213 333.345 517.250 333.691 C 516.288 334.036 515.841 333.943 516.259 333.484 C 516.676 333.025 514.132 332.616 510.606 332.575 C 507.080 332.534 504.373 332.789 504.590 333.143 "/></g>
<g fill="#083854FD">
<path d="M 640.055 625.169 C 638.160 625.713 635.586 625.963 634.335 625.724 C 632.964 625.462 632.309 625.691 632.687 626.302 C 633.070 626.923 632.477 627.097 631.155 626.751 C 629.759 626.386 629.232 626.566 629.663 627.263 C 630.088 627.951 629.708 628.102 628.612 627.681 C 627.593 627.290 627.144 627.424 627.507 628.011 C 627.843 628.555 627.641 629.056 627.059 629.125 C 625.258 629.338 623.966 629.744 624.674 629.875 C 625.045 629.944 624.293 631.123 623.004 632.496 C 621.714 633.869 620.398 634.731 620.079 634.413 C 619.761 634.094 619.444 634.321 619.375 634.917 C 619.306 635.513 619.194 636.477 619.125 637.059 C 619.056 637.641 618.480 637.797 617.845 637.405 C 617.165 636.984 616.961 637.128 617.349 637.755 C 618.179 639.098 617.065 642.158 615.988 641.493 C 615.547 641.220 615.440 641.968 615.751 643.155 C 616.097 644.477 615.923 645.070 615.302 644.687 C 614.673 644.298 614.475 645.091 614.781 646.780 C 615.052 648.276 614.946 649.197 614.546 648.826 C 614.146 648.455 613.818 651.908 613.818 656.500 C 613.818 661.092 614.030 664.637 614.289 664.378 C 614.548 664.119 615.040 665.398 615.382 667.222 C 615.724 669.045 616.904 672.216 618.004 674.268 C 619.104 676.321 619.891 678.053 619.752 678.118 C 619.613 678.184 619.784 678.201 620.131 678.158 C 620.994 678.050 624.475 681.969 623.655 682.125 C 623.295 682.194 623.338 682.347 623.750 682.465 C 624.163 682.584 626.173 683.428 628.218 684.340 C 630.263 685.253 632.475 686.000 633.135 686.000 C 633.794 686.000 634.063 686.270 633.733 686.600 C 633.403 686.930 636.448 687.200 640.500 687.200 C 644.552 687.200 647.651 686.984 647.387 686.720 C 646.979 686.312 648.142 685.863 653.250 684.457 C 653.663 684.343 653.819 684.194 653.599 684.125 C 653.378 684.056 654.537 682.566 656.174 680.813 C 658.584 678.233 659.324 677.900 660.060 679.063 C 661.245 680.936 661.274 689.288 660.093 688.558 C 659.595 688.249 659.417 688.880 659.699 689.959 C 660.732 693.908 652.775 703.215 649.889 701.432 C 649.083 700.933 648.954 701.117 649.495 701.991 C 650.115 702.994 649.636 703.137 647.399 702.615 C 645.275 702.120 644.901 702.211 646.000 702.954 C 647.115 703.709 646.266 703.973 642.691 703.985 C 640.046 703.993 638.120 703.615 638.411 703.144 C 638.702 702.674 637.914 702.485 636.661 702.724 C 635.100 703.023 633.344 702.190 631.086 700.080 C 628.122 697.311 627.149 697.000 621.453 697.000 C 617.743 697.000 614.822 697.478 614.405 698.155 C 613.962 698.870 614.130 699.038 614.845 698.595 C 615.525 698.175 616.000 698.509 616.000 699.406 C 616.000 700.245 617.397 702.521 619.104 704.465 C 620.811 706.409 621.936 708.056 621.604 708.125 C 620.961 708.258 622.302 708.668 624.059 708.875 C 624.641 708.944 624.843 709.445 624.507 709.989 C 624.144 710.576 624.593 710.710 625.612 710.319 C 626.868 709.836 627.109 710.015 626.510 710.985 C 625.977 711.846 626.078 712.070 626.800 711.624 C 628.080 710.833 633.386 711.948 632.510 712.824 C 632.189 713.144 634.080 713.347 636.713 713.273 C 639.346 713.200 640.600 713.411 639.500 713.742 C 638.400 714.073 640.092 714.408 643.259 714.487 C 646.462 714.566 648.459 714.274 647.759 713.830 C 646.587 713.086 647.689 712.906 655.790 712.522 C 657.050 712.463 657.725 712.024 657.290 711.548 C 656.854 711.070 657.308 710.972 658.302 711.329 C 659.523 711.768 659.873 711.604 659.388 710.819 C 658.905 710.038 659.231 709.875 660.388 710.319 C 661.407 710.710 661.856 710.576 661.493 709.989 C 661.157 709.445 661.359 708.944 661.941 708.875 C 662.523 708.806 663.488 708.694 664.083 708.625 C 664.679 708.556 664.901 708.235 664.577 707.911 C 664.253 707.586 664.890 706.504 665.994 705.506 C 667.097 704.507 668.056 703.985 668.125 704.345 C 668.257 705.035 668.664 703.730 668.875 701.941 C 668.944 701.359 669.445 701.157 669.989 701.493 C 670.576 701.856 670.710 701.407 670.319 700.388 C 669.875 699.231 670.038 698.905 670.819 699.388 C 671.599 699.870 671.762 699.544 671.319 698.388 C 670.898 697.292 671.049 696.912 671.737 697.337 C 672.436 697.769 672.619 697.213 672.259 695.751 C 671.947 694.482 672.088 693.855 672.583 694.314 C 673.079 694.773 673.342 693.467 673.189 691.314 C 672.973 688.288 673.152 687.810 674.053 689.000 C 675.011 690.266 675.096 690.214 674.594 688.668 C 674.267 687.661 674.000 673.373 674.000 656.918 L 674.000 627.000 668.000 627.000 L 662.000 627.000 662.000 630.500 C 662.000 633.033 661.561 634.000 660.409 634.000 C 659.534 634.000 656.978 632.425 654.729 630.500 C 652.480 628.575 650.019 627.000 649.261 627.000 C 648.503 627.000 648.110 626.631 648.388 626.181 C 648.667 625.730 647.456 625.537 645.697 625.752 C 643.239 626.052 642.847 625.898 644.000 625.086 C 645.801 623.819 644.678 623.842 640.055 625.169 M 648.558 636.907 C 648.249 637.405 648.856 637.589 649.906 637.314 C 652.605 636.608 659.241 643.524 660.774 648.640 C 662.290 653.701 662.449 662.232 660.986 660.000 C 660.294 658.944 660.197 659.508 660.657 661.905 C 661.170 664.569 661.027 665.135 660.002 664.501 C 659.142 663.970 658.932 664.082 659.392 664.825 C 660.101 665.972 658.614 669.529 656.571 671.571 C 654.971 673.172 651.204 675.081 647.618 676.110 C 643.897 677.177 637.739 676.232 638.663 674.736 C 639.033 674.137 638.828 673.988 638.183 674.387 C 635.324 676.154 627.282 666.854 628.301 662.959 C 628.583 661.880 628.405 661.249 627.907 661.558 C 626.028 662.719 626.970 650.693 629.102 646.289 C 631.497 641.341 637.195 636.477 639.542 637.378 C 640.440 637.722 640.844 637.557 640.493 636.989 C 640.124 636.392 641.712 636.000 644.500 636.000 C 647.040 636.000 648.866 636.408 648.558 636.907 "/></g>
<g fill="#083854FD">
<path d="M 588.000 616.441 C 588.000 625.484 587.641 633.104 587.202 633.375 C 586.148 634.027 583.500 632.354 583.500 631.036 C 583.500 630.466 583.162 630.001 582.749 630.002 C 581.837 630.003 574.329 626.035 575.015 625.914 C 575.282 625.867 572.198 625.864 568.162 625.907 C 562.986 625.961 559.450 626.603 556.162 628.085 C 553.598 629.240 550.951 630.280 550.279 630.397 C 548.927 630.632 547.547 631.805 547.414 632.833 C 547.141 634.935 545.644 636.898 544.741 636.340 C 544.163 635.983 543.983 636.164 544.340 636.741 C 544.697 637.319 544.320 639.076 543.501 640.646 C 542.682 642.216 541.962 643.275 541.900 643.000 C 541.838 642.725 541.687 643.175 541.565 644.000 C 541.442 644.825 541.222 645.500 541.074 645.500 C 540.927 645.500 540.868 647.300 540.942 649.500 C 541.046 652.535 540.828 653.138 540.041 652.000 C 539.251 650.859 539.117 651.219 539.480 653.500 C 539.900 656.136 541.689 667.852 542.534 673.500 C 542.699 674.600 542.939 675.275 543.069 675.000 C 543.199 674.725 543.409 674.950 543.537 675.500 C 543.665 676.050 543.821 676.386 543.885 676.247 C 543.948 676.108 545.627 677.796 547.616 679.997 C 549.605 682.199 550.843 684.034 550.366 684.077 C 549.890 684.119 550.175 684.321 551.000 684.526 C 553.691 685.196 560.520 687.910 559.750 688.004 C 559.338 688.054 562.568 688.117 566.929 688.143 C 571.289 688.169 574.643 687.977 574.382 687.715 C 573.961 687.294 578.139 685.796 580.333 685.582 C 580.792 685.537 580.901 685.235 580.577 684.911 C 580.253 684.586 580.890 683.504 581.994 682.506 C 583.097 681.507 584.056 680.985 584.125 681.345 C 584.194 681.705 584.306 681.475 584.375 680.833 C 584.609 678.646 587.000 678.776 587.000 680.976 C 587.000 682.154 587.450 682.840 588.000 682.500 C 588.567 682.149 589.000 682.990 589.000 684.441 C 589.000 686.902 589.230 687.000 595.000 687.000 L 601.000 687.000 601.000 643.500 L 601.000 600.000 594.500 600.000 L 588.000 600.000 588.000 616.441 M 574.558 636.907 C 574.249 637.405 574.858 637.588 575.911 637.313 C 578.420 636.657 585.219 642.831 585.572 646.086 C 585.716 647.414 585.878 648.050 585.932 647.500 C 585.986 646.950 586.467 647.175 587.000 648.000 C 588.303 650.017 588.314 664.312 587.011 663.507 C 586.448 663.159 586.275 663.553 586.609 664.423 C 587.438 666.584 583.487 672.542 579.700 674.841 C 576.398 676.845 564.408 677.767 565.544 675.929 C 565.852 675.431 565.455 675.272 564.661 675.577 C 562.737 676.315 555.739 670.123 556.438 668.300 C 556.735 667.528 556.570 667.148 556.073 667.455 C 554.665 668.325 552.863 658.099 553.580 653.313 C 553.934 650.952 554.582 649.241 555.019 649.512 C 555.456 649.782 555.560 649.032 555.249 647.845 C 554.865 646.377 555.051 645.914 555.831 646.396 C 556.546 646.837 556.776 646.580 556.442 645.710 C 555.664 643.681 563.710 636.691 566.104 637.317 C 567.148 637.590 567.751 637.405 567.442 636.907 C 567.134 636.408 568.735 636.000 571.000 636.000 C 573.265 636.000 574.866 636.408 574.558 636.907 "/></g>
<g fill="#25B5ADFD">
<path d="M 815.199 599.791 C 809.069 600.006 806.760 600.461 806.348 601.535 C 806.041 602.335 805.430 602.765 804.988 602.493 C 804.547 602.220 804.440 602.968 804.751 604.155 C 805.112 605.538 804.933 606.076 804.251 605.655 C 803.569 605.234 803.389 605.772 803.751 607.155 C 804.112 608.538 803.933 609.076 803.251 608.655 C 802.569 608.234 802.389 608.772 802.751 610.155 C 803.171 611.762 802.980 612.106 802.003 611.502 C 801.125 610.959 800.932 611.080 801.418 611.868 C 802.317 613.322 799.150 623.210 798.010 622.506 C 797.557 622.226 797.440 622.968 797.751 624.155 C 798.112 625.538 797.933 626.076 797.251 625.655 C 796.569 625.234 796.389 625.772 796.751 627.155 C 797.112 628.538 796.933 629.076 796.251 628.655 C 795.569 628.234 795.389 628.772 795.751 630.155 C 796.112 631.538 795.933 632.076 795.251 631.655 C 794.569 631.234 794.389 631.772 794.751 633.155 C 795.171 634.762 794.980 635.106 794.003 634.502 C 793.153 633.977 792.932 634.082 793.376 634.800 C 794.252 636.217 793.048 641.148 791.987 640.492 C 791.547 640.220 791.440 640.968 791.751 642.155 C 792.171 643.762 791.980 644.106 791.003 643.502 C 790.124 642.959 789.932 643.080 790.419 643.869 C 791.318 645.323 787.150 658.211 786.009 657.506 C 785.557 657.226 785.440 657.968 785.751 659.155 C 786.112 660.538 785.933 661.076 785.251 660.655 C 784.569 660.234 784.389 660.772 784.751 662.155 C 785.112 663.538 784.933 664.076 784.251 663.655 C 783.569 663.234 783.389 663.772 783.751 665.155 C 784.112 666.538 783.933 667.076 783.251 666.655 C 782.569 666.234 782.389 666.772 782.751 668.155 C 783.112 669.538 782.933 670.076 782.251 669.655 C 781.569 669.234 781.389 669.772 781.751 671.155 C 782.135 672.623 781.949 673.086 781.169 672.604 C 780.467 672.171 780.221 672.412 780.534 673.227 C 780.815 673.959 780.134 677.203 779.022 680.436 C 777.910 683.668 777.000 686.468 777.000 686.657 C 777.000 686.845 779.925 687.000 783.500 687.000 C 787.408 687.000 790.000 686.578 790.000 685.941 C 790.000 685.359 790.520 685.203 791.155 685.595 C 791.862 686.033 792.038 685.870 791.608 685.175 C 790.712 683.726 793.018 675.893 794.137 676.585 C 794.599 676.870 794.709 676.406 794.382 675.552 C 794.053 674.696 794.309 674.000 794.952 674.000 C 795.593 674.000 795.872 673.602 795.571 673.115 C 795.270 672.628 795.507 670.844 796.098 669.150 L 797.171 666.070 814.836 666.285 C 828.343 666.449 832.441 666.794 832.250 667.750 C 832.113 668.438 832.498 669.000 833.107 669.000 C 833.716 669.000 833.955 669.675 833.638 670.500 C 833.322 671.325 833.547 672.000 834.138 672.000 C 834.730 672.000 834.946 672.698 834.618 673.552 C 834.232 674.558 834.426 674.855 835.169 674.396 C 835.949 673.914 836.135 674.377 835.751 675.845 C 835.440 677.032 835.595 677.751 836.093 677.442 C 836.939 676.920 837.138 677.662 837.398 682.325 C 837.456 683.355 837.896 683.791 838.409 683.325 C 838.940 682.843 839.057 683.228 838.691 684.250 C 838.342 685.221 838.541 686.000 839.138 686.000 C 839.730 686.000 839.955 686.675 839.638 687.500 C 839.155 688.761 840.415 689.000 847.531 689.000 C 852.825 689.000 856.000 688.603 856.000 687.941 C 856.000 687.359 855.474 687.207 854.830 687.605 C 854.043 688.091 853.869 687.783 854.299 686.664 C 854.650 685.748 854.454 685.000 853.862 685.000 C 853.270 685.000 853.045 684.325 853.362 683.500 C 853.678 682.675 853.515 682.000 853.000 682.000 C 852.485 682.000 852.350 681.251 852.701 680.336 C 853.168 679.120 852.979 678.895 852.000 679.500 C 851.021 680.105 850.832 679.880 851.299 678.664 C 851.650 677.748 851.454 677.000 850.862 677.000 C 850.270 677.000 850.045 676.325 850.362 675.500 C 850.678 674.675 850.453 674.000 849.862 674.000 C 849.270 674.000 849.045 673.325 849.362 672.500 C 849.678 671.675 849.515 671.000 849.000 671.000 C 848.485 671.000 848.322 670.325 848.638 669.500 C 848.955 668.675 848.689 668.000 848.048 668.000 C 847.407 668.000 847.160 667.550 847.500 667.000 C 847.840 666.450 847.593 666.000 846.952 666.000 C 846.311 666.000 846.045 665.325 846.362 664.500 C 846.678 663.675 846.453 663.000 845.862 663.000 C 845.270 663.000 845.045 662.325 845.362 661.500 C 845.678 660.675 845.453 660.000 844.862 660.000 C 844.270 660.000 844.054 659.302 844.382 658.448 C 844.771 657.434 844.575 657.144 843.819 657.612 C 843.045 658.090 842.872 657.775 843.299 656.664 C 843.650 655.748 843.454 655.000 842.862 655.000 C 842.270 655.000 842.045 654.325 842.362 653.500 C 842.678 652.675 842.453 652.000 841.862 652.000 C 841.270 652.000 841.040 651.339 841.349 650.532 C 841.659 649.725 841.475 648.794 840.940 648.463 C 840.405 648.132 840.226 647.443 840.543 646.931 C 840.859 646.419 840.593 646.000 839.952 646.000 C 839.309 646.000 839.053 645.304 839.382 644.448 C 839.723 643.558 839.555 643.157 838.989 643.507 C 838.085 644.065 837.612 642.462 837.731 639.250 C 837.757 638.563 837.330 638.000 836.782 638.000 C 836.234 638.000 836.045 637.325 836.362 636.500 C 836.678 635.675 836.453 635.000 835.862 635.000 C 835.270 635.000 835.054 634.302 835.382 633.448 C 835.723 632.558 835.555 632.157 834.989 632.507 C 834.147 633.027 833.493 630.214 833.882 627.750 C 833.947 627.338 833.502 627.000 832.893 627.000 C 832.284 627.000 832.054 626.302 832.382 625.448 C 832.768 624.442 832.574 624.145 831.831 624.604 C 831.051 625.086 830.865 624.623 831.249 623.155 C 831.611 621.772 831.431 621.234 830.749 621.655 C 830.067 622.076 829.888 621.538 830.249 620.155 C 830.611 618.772 830.431 618.234 829.749 618.655 C 829.067 619.076 828.888 618.538 829.249 617.155 C 829.614 615.759 829.434 615.232 828.737 615.663 C 828.056 616.084 827.895 615.717 828.299 614.664 C 828.650 613.748 828.454 613.000 827.862 613.000 C 827.270 613.000 827.045 612.325 827.362 611.500 C 827.678 610.675 827.453 610.000 826.862 610.000 C 826.270 610.000 826.054 609.302 826.382 608.448 C 826.723 607.558 826.555 607.157 825.989 607.507 C 825.085 608.065 824.612 606.462 824.731 603.250 C 824.757 602.563 824.358 602.000 823.845 602.000 C 823.332 602.000 823.043 601.438 823.202 600.750 C 823.420 599.810 821.437 599.572 815.199 599.791 M 814.878 617.904 C 815.636 618.384 815.947 619.277 815.569 619.888 C 815.191 620.500 815.407 621.000 816.048 621.000 C 816.691 621.000 816.947 621.696 816.618 622.552 C 816.232 623.558 816.426 623.855 817.169 623.396 C 817.949 622.914 818.135 623.377 817.751 624.845 C 817.389 626.228 817.569 626.766 818.251 626.345 C 818.933 625.924 819.112 626.462 818.751 627.845 C 818.389 629.228 818.569 629.766 819.251 629.345 C 819.933 628.924 820.112 629.462 819.751 630.845 C 819.389 632.228 819.569 632.766 820.251 632.345 C 820.927 631.927 821.117 632.446 820.771 633.769 C 820.347 635.388 820.590 635.714 821.863 635.238 C 823.285 634.706 823.320 634.847 822.128 636.313 C 821.105 637.570 821.068 638.000 821.985 638.000 C 822.667 638.000 822.958 638.668 822.638 639.500 C 822.275 640.446 822.650 641.000 823.654 641.000 C 825.022 641.000 825.053 641.237 823.872 642.692 C 822.703 644.134 822.708 644.258 823.908 643.536 C 824.995 642.880 825.187 643.178 824.751 644.845 C 824.405 646.169 824.579 646.760 825.200 646.376 C 825.843 645.979 825.953 646.573 825.500 648.000 C 824.965 649.686 825.106 650.053 826.063 649.461 C 826.971 648.900 827.155 649.153 826.701 650.336 C 826.350 651.251 826.514 652.000 827.067 652.000 C 827.716 652.000 827.693 652.706 827.000 654.000 C 826.025 655.823 824.906 656.000 814.393 656.000 C 805.739 656.000 802.501 655.644 801.431 654.574 C 800.000 653.143 800.509 649.578 802.012 650.507 C 802.453 650.780 802.560 650.032 802.249 648.845 C 801.888 647.462 802.067 646.924 802.749 647.345 C 803.431 647.766 803.611 647.228 803.249 645.845 C 802.888 644.462 803.067 643.924 803.749 644.345 C 804.431 644.766 804.611 644.228 804.249 642.845 C 803.888 641.462 804.067 640.924 804.749 641.345 C 805.431 641.766 805.611 641.228 805.249 639.845 C 804.888 638.462 805.067 637.924 805.749 638.345 C 806.431 638.766 806.611 638.228 806.249 636.845 C 805.888 635.462 806.067 634.924 806.749 635.345 C 807.431 635.766 807.611 635.228 807.249 633.845 C 806.888 632.462 807.067 631.924 807.749 632.345 C 808.431 632.766 808.611 632.228 808.249 630.845 C 807.888 629.462 808.067 628.924 808.749 629.345 C 809.431 629.766 809.611 629.228 809.249 627.845 C 808.888 626.462 809.067 625.924 809.749 626.345 C 810.431 626.766 810.611 626.228 810.249 624.845 C 809.888 623.462 810.067 622.924 810.749 623.345 C 811.431 623.766 811.611 623.228 811.249 621.845 C 810.888 620.462 811.067 619.924 811.749 620.345 C 812.419 620.759 812.620 620.262 812.290 619.001 C 811.732 616.868 812.637 616.484 814.878 617.904 "/></g>
<g fill="#0070ACFD">
<path d="M 580.615 431.671 C 578.184 434.067 577.154 434.682 577.865 433.316 C 579.273 430.606 579.287 430.000 577.941 430.000 C 577.359 430.000 577.152 430.437 577.482 430.971 C 577.812 431.505 576.896 432.239 575.446 432.603 C 573.503 433.091 573.163 433.489 574.155 434.117 C 574.895 434.586 575.085 434.976 574.579 434.985 C 574.072 434.993 572.815 434.238 571.786 433.306 C 570.020 431.708 569.953 431.714 570.608 433.421 C 571.164 434.869 570.922 435.112 569.401 434.638 C 568.356 434.312 566.854 434.451 566.064 434.947 C 564.874 435.693 564.853 436.117 565.937 437.424 C 567.017 438.725 567.011 439.000 565.904 439.000 C 565.167 439.000 563.537 437.805 562.282 436.344 C 561.027 434.884 560.000 434.177 560.000 434.773 C 560.000 435.369 560.675 436.532 561.500 437.357 C 563.138 438.996 563.537 440.450 562.105 439.565 C 561.612 439.260 560.952 439.684 560.636 440.506 C 559.947 442.302 561.136 442.464 562.800 440.800 C 563.733 439.867 564.267 439.867 565.200 440.800 C 566.133 441.733 566.078 442.026 564.950 442.118 C 564.153 442.184 563.163 442.184 562.750 442.118 C 562.338 442.053 562.000 442.424 562.000 442.943 C 562.000 443.461 561.136 443.719 560.079 443.515 C 559.003 443.308 557.899 443.822 557.568 444.684 C 557.151 445.771 557.428 446.050 558.512 445.634 C 559.795 445.141 559.860 445.393 558.907 447.174 C 557.962 448.940 558.022 449.206 559.262 448.730 C 561.233 447.973 563.004 449.827 562.232 451.839 C 561.863 452.799 562.789 452.384 564.560 450.795 C 567.121 448.496 567.341 448.436 566.269 450.328 C 564.487 453.473 564.720 454.188 567.061 452.758 C 568.811 451.690 569.329 451.779 570.494 453.350 C 571.311 454.451 572.368 454.891 573.103 454.436 C 573.985 453.891 574.141 454.190 573.647 455.477 C 573.061 457.004 573.190 457.087 574.477 456.019 C 575.748 454.964 576.003 455.064 576.015 456.628 C 576.028 458.202 576.185 458.262 577.000 457.000 C 577.815 455.738 577.972 455.798 577.985 457.372 C 577.998 459.005 578.217 459.069 579.687 457.872 C 581.170 456.667 581.292 456.719 580.699 458.302 C 580.318 459.317 580.427 459.854 580.948 459.532 C 582.292 458.701 593.005 464.183 592.292 465.337 C 591.952 465.887 592.211 465.987 592.889 465.568 C 593.548 465.161 594.829 465.429 595.736 466.164 C 597.143 467.305 597.257 467.281 596.519 466.000 C 596.044 465.175 596.919 465.738 598.464 467.250 C 600.009 468.763 601.688 470.000 602.195 470.000 C 602.703 470.000 602.797 470.520 602.405 471.155 C 601.956 471.880 602.131 472.037 602.876 471.577 C 604.381 470.646 620.177 481.904 619.318 483.295 C 618.973 483.853 619.134 484.036 619.674 483.701 C 620.844 482.978 628.388 488.945 627.468 489.865 C 627.119 490.214 627.235 490.500 627.725 490.500 C 629.074 490.500 635.148 495.847 635.406 497.261 C 635.531 497.943 636.238 498.637 636.978 498.804 C 637.719 498.971 640.077 500.996 642.218 503.304 C 645.674 507.027 645.597 506.845 641.536 501.687 C 639.020 498.489 637.221 495.452 637.539 494.937 C 637.858 494.422 637.641 494.000 637.059 494.000 C 636.477 494.000 636.000 493.495 636.000 492.878 C 636.000 492.098 636.455 492.133 637.489 492.991 C 638.308 493.671 638.731 494.626 638.430 495.113 C 638.129 495.601 638.359 496.000 638.941 496.000 C 640.458 496.000 640.247 493.798 638.489 491.288 C 637.376 489.699 637.285 488.942 638.144 488.411 C 638.843 487.979 639.041 488.125 638.638 488.776 C 637.539 490.554 639.664 491.110 641.072 489.413 C 642.145 488.121 642.121 487.689 640.936 486.939 C 639.787 486.212 639.900 486.004 641.500 485.897 C 642.600 485.823 643.871 485.828 644.325 485.907 C 644.779 485.986 644.841 485.026 644.462 483.775 L 643.773 481.500 645.897 483.719 C 647.065 484.940 647.903 486.492 647.760 487.169 C 647.617 487.845 648.097 487.374 648.828 486.120 C 651.717 481.162 655.000 478.469 655.000 481.059 C 655.000 481.641 654.480 481.797 653.845 481.405 C 653.130 480.962 652.962 481.130 653.405 481.845 C 654.401 483.459 656.000 483.287 656.000 481.567 C 656.000 480.779 656.900 479.849 658.000 479.500 C 659.100 479.151 660.000 478.390 660.000 477.810 C 660.000 477.195 659.296 477.328 658.313 478.128 C 656.828 479.336 656.708 479.281 657.313 477.668 C 657.691 476.661 658.000 475.622 658.000 475.359 C 658.000 475.097 658.520 475.203 659.155 475.595 C 659.870 476.038 660.038 475.870 659.595 475.155 C 658.578 473.509 659.869 473.726 661.643 475.500 C 662.468 476.325 662.773 477.034 662.321 477.077 C 661.870 477.119 662.336 477.311 663.358 477.504 C 664.380 477.697 666.204 478.675 667.411 479.677 C 668.618 480.680 667.782 479.764 665.553 477.643 C 659.245 471.640 657.107 469.811 651.612 465.711 C 648.801 463.613 646.500 461.432 646.500 460.865 C 646.500 460.298 646.165 460.168 645.756 460.577 C 645.347 460.986 644.222 460.610 643.256 459.742 C 642.290 458.873 637.494 455.651 632.597 452.581 C 627.701 449.512 624.101 446.967 624.597 446.926 C 625.094 446.885 624.557 446.673 623.405 446.456 C 621.289 446.056 612.074 441.133 613.000 440.897 C 613.275 440.827 613.050 440.665 612.500 440.537 C 611.950 440.409 611.725 440.199 612.000 440.069 C 612.511 439.828 610.276 439.299 606.232 438.703 C 604.985 438.519 604.232 438.102 604.558 437.776 C 604.884 437.449 604.217 436.886 603.075 436.524 C 601.934 436.162 601.000 435.518 601.000 435.093 C 601.000 434.669 599.693 434.399 598.095 434.494 C 595.825 434.629 595.320 434.321 595.782 433.084 C 596.313 431.665 596.178 431.657 594.495 433.000 C 593.015 434.182 592.796 434.201 593.464 433.092 C 594.115 432.013 593.828 431.812 592.231 432.229 C 590.622 432.650 590.280 432.402 590.722 431.137 C 591.188 429.805 591.043 429.733 589.947 430.750 C 588.029 432.530 586.961 432.296 587.666 430.250 C 588.156 428.829 587.968 428.876 586.666 430.500 C 585.785 431.600 584.997 432.050 584.916 431.500 C 584.836 430.950 584.709 429.902 584.635 429.171 C 584.558 428.417 582.821 429.498 580.615 431.671 "/></g>
<g fill="#083854FD">
<path d="M 191.888 598.445 C 191.643 598.690 187.856 599.124 183.472 599.411 C 179.087 599.697 175.950 599.957 176.500 599.988 C 177.050 600.019 175.559 600.925 173.187 602.001 C 170.815 603.078 168.565 603.914 168.187 603.861 C 167.809 603.807 167.673 603.816 167.885 603.882 C 168.097 603.947 167.084 604.933 165.635 606.073 C 164.186 607.212 162.944 607.887 162.875 607.573 C 162.806 607.258 162.657 607.338 162.544 607.750 C 162.065 609.490 157.014 619.435 156.957 618.750 C 156.923 618.338 156.871 621.122 156.842 624.939 C 156.813 628.755 157.010 631.657 157.279 631.388 C 157.548 631.118 158.247 632.271 158.832 633.949 C 159.417 635.627 159.694 637.056 159.448 637.125 C 159.202 637.194 159.348 637.306 159.773 637.375 C 160.919 637.560 165.492 641.979 164.689 642.125 C 163.967 642.256 165.249 642.661 167.059 642.875 C 167.641 642.944 167.797 643.520 167.405 644.155 C 166.984 644.835 167.128 645.039 167.755 644.651 C 169.098 643.821 172.158 644.935 171.493 646.012 C 171.220 646.453 171.968 646.560 173.155 646.249 C 174.538 645.888 175.076 646.067 174.655 646.749 C 174.234 647.431 174.772 647.611 176.155 647.249 C 177.762 646.829 178.106 647.020 177.502 647.997 C 176.959 648.876 177.080 649.068 177.870 648.580 C 179.329 647.678 185.197 648.872 184.539 649.937 C 184.276 650.363 185.239 650.486 186.679 650.211 C 188.469 649.868 189.076 650.069 188.597 650.844 C 188.156 651.556 188.436 651.770 189.351 651.419 C 191.372 650.643 198.380 654.397 200.905 657.607 C 203.116 660.417 203.872 668.000 201.941 668.000 C 201.359 668.000 201.115 668.377 201.399 668.837 C 202.868 671.214 194.396 677.750 191.358 676.584 C 190.539 676.270 190.165 676.458 190.507 677.011 C 190.881 677.616 189.056 677.994 185.809 677.985 C 181.812 677.973 180.871 677.710 182.000 676.919 C 183.182 676.092 183.033 676.000 181.300 676.486 C 176.403 677.860 168.307 670.205 169.482 665.311 C 169.771 664.107 169.486 662.800 168.849 662.407 C 168.130 661.962 167.962 662.129 168.405 662.845 C 168.918 663.677 167.140 664.000 162.059 664.000 C 156.518 664.000 154.968 664.322 154.850 665.500 C 154.625 667.748 154.669 669.174 154.920 667.750 C 155.040 667.063 155.795 668.631 156.596 671.235 C 157.425 673.931 159.697 677.700 161.871 679.985 C 163.972 682.193 165.648 684.052 165.595 684.115 C 165.543 684.179 165.950 684.339 166.500 684.472 C 169.851 685.279 171.912 686.333 171.487 687.020 C 171.218 687.457 172.010 687.564 173.249 687.259 C 174.487 686.954 175.198 687.036 174.828 687.441 C 174.458 687.846 177.608 688.366 181.828 688.596 C 186.048 688.826 190.550 689.254 191.834 689.547 C 193.470 689.921 193.949 689.726 193.435 688.895 C 192.917 688.057 193.469 687.856 195.316 688.210 C 196.754 688.484 198.065 688.305 198.229 687.812 C 198.394 687.318 199.759 686.783 201.263 686.622 C 202.767 686.462 203.660 685.960 203.249 685.506 C 202.837 685.052 203.311 684.973 204.302 685.329 C 205.376 685.716 205.857 685.578 205.493 684.989 C 205.157 684.445 205.359 683.944 205.941 683.875 C 207.699 683.667 209.039 683.258 208.394 683.125 C 208.061 683.056 209.186 681.694 210.894 680.099 C 212.602 678.503 214.034 677.491 214.077 677.849 C 214.119 678.207 214.321 677.825 214.527 677.000 C 215.518 673.029 217.885 666.613 218.032 667.500 C 218.123 668.050 218.204 666.162 218.211 663.304 C 218.219 660.446 217.888 658.421 217.476 658.804 C 217.064 659.187 216.948 658.278 217.218 656.785 C 217.488 655.292 217.300 653.933 216.800 653.767 C 216.300 653.600 215.725 652.572 215.522 651.482 C 215.319 650.392 215.119 649.803 215.077 650.173 C 214.998 650.864 209.108 645.292 209.038 644.462 C 209.017 644.208 209.000 644.203 209.000 644.451 C 209.000 644.699 207.088 644.034 204.750 642.973 C 202.413 641.912 200.725 640.982 201.000 640.907 C 201.275 640.831 200.663 640.858 199.641 640.966 C 198.618 641.074 198.056 640.718 198.392 640.175 C 198.757 639.583 198.136 639.413 196.845 639.751 C 195.238 640.171 194.894 639.980 195.498 639.003 C 196.041 638.124 195.920 637.932 195.130 638.420 C 193.415 639.479 187.846 638.058 188.646 636.764 C 189.034 636.136 188.840 635.981 188.178 636.390 C 186.638 637.342 178.793 635.144 179.522 633.965 C 179.842 633.447 179.472 633.265 178.700 633.562 C 177.884 633.875 175.976 632.597 174.148 630.515 C 171.745 627.779 171.000 625.988 171.000 622.951 C 171.000 617.624 175.724 612.426 181.742 611.130 C 184.198 610.601 185.752 610.592 185.433 611.108 C 185.130 611.599 185.610 612.000 186.500 612.000 C 187.390 612.000 187.844 611.557 187.509 611.015 C 186.738 609.767 192.556 610.812 196.002 612.540 C 199.571 614.330 202.332 617.654 201.443 619.091 C 200.963 619.868 201.109 620.051 201.845 619.595 C 202.530 619.173 203.000 619.517 203.000 620.441 C 203.000 621.693 204.280 622.000 209.500 622.000 C 216.835 622.000 217.366 621.205 214.543 614.450 C 213.742 612.532 213.067 610.747 213.043 610.482 C 213.020 610.217 213.000 610.180 213.000 610.400 C 213.000 610.620 211.470 609.270 209.600 607.400 C 207.730 605.530 206.380 603.944 206.600 603.875 C 206.820 603.806 206.663 603.665 206.250 603.560 C 201.781 602.431 197.149 600.568 197.480 600.032 C 197.708 599.664 196.456 599.537 194.697 599.752 C 192.239 600.052 191.847 599.898 193.000 599.086 C 193.825 598.506 194.013 598.024 193.417 598.015 C 192.821 598.007 192.133 598.200 191.888 598.445 "/></g>
<g fill="#083854FD">
<path d="M 707.750 626.408 C 708.060 626.907 707.342 627.061 706.155 626.751 C 704.968 626.440 704.217 626.542 704.486 626.977 C 704.897 627.642 700.228 630.162 697.750 630.613 C 697.338 630.689 697.303 630.806 697.674 630.875 C 698.045 630.944 697.293 632.123 696.004 633.496 C 694.714 634.869 693.398 635.731 693.079 635.413 C 692.761 635.094 692.444 635.321 692.375 635.917 C 692.306 636.513 692.194 637.477 692.125 638.059 C 692.056 638.641 691.555 638.843 691.011 638.507 C 690.422 638.143 690.284 638.624 690.671 639.698 C 691.047 640.745 690.941 641.154 690.417 640.674 C 689.921 640.220 689.468 640.445 689.410 641.174 C 689.352 641.903 689.236 643.588 689.152 644.917 C 689.069 646.246 688.744 647.078 688.432 646.765 C 688.119 646.452 687.675 649.380 687.445 653.270 C 687.214 657.160 686.766 661.279 686.447 662.422 C 685.970 664.136 686.067 664.237 686.999 663.000 C 687.891 661.817 688.053 662.288 687.767 665.234 C 687.568 667.288 687.783 669.094 688.246 669.249 C 688.708 669.403 689.217 670.759 689.378 672.263 C 689.538 673.767 690.040 674.660 690.494 674.249 C 690.948 673.837 691.027 674.311 690.671 675.302 C 690.284 676.376 690.422 676.857 691.011 676.493 C 691.555 676.157 692.056 676.359 692.125 676.941 C 692.334 678.710 692.742 680.038 692.875 679.378 C 692.944 679.035 693.661 679.303 694.468 679.973 C 695.275 680.644 695.838 681.691 695.718 682.300 C 695.598 682.910 696.063 683.486 696.750 683.580 C 697.438 683.673 698.477 683.806 699.059 683.875 C 699.641 683.944 699.797 684.520 699.405 685.155 C 698.984 685.835 699.128 686.039 699.755 685.651 C 701.098 684.821 704.158 685.935 703.493 687.012 C 703.220 687.453 703.968 687.560 705.155 687.249 C 706.431 686.916 707.066 687.084 706.709 687.662 C 706.345 688.251 707.374 688.461 709.303 688.191 C 711.061 687.946 712.191 688.074 711.812 688.477 C 711.434 688.879 713.909 689.243 717.312 689.286 C 720.716 689.329 722.825 689.092 722.000 688.761 C 720.627 688.209 722.202 687.907 728.307 687.553 C 729.301 687.495 729.789 687.122 729.391 686.724 C 728.992 686.326 729.336 686.000 730.153 686.000 C 730.971 686.000 733.521 684.390 735.820 682.422 C 738.119 680.454 740.056 679.104 740.125 679.422 C 740.259 680.040 740.670 678.681 740.875 676.941 C 740.944 676.359 741.445 676.157 741.989 676.493 C 742.576 676.856 742.710 676.407 742.319 675.388 C 741.875 674.231 742.038 673.905 742.819 674.388 C 743.575 674.856 743.771 674.566 743.382 673.552 C 742.934 672.385 741.278 672.000 736.698 672.000 C 731.475 672.000 730.216 672.377 727.846 674.648 C 725.478 676.916 724.089 677.333 718.154 677.556 C 712.783 677.758 710.526 677.390 708.104 675.917 C 703.937 673.383 700.803 668.195 701.509 665.000 C 701.930 663.093 701.820 662.856 701.046 664.000 C 700.162 665.306 700.029 665.287 700.015 663.857 C 700.007 662.953 700.712 661.941 701.582 661.607 C 702.452 661.273 712.366 661.000 723.613 661.000 C 739.102 661.000 744.156 660.697 744.446 659.750 C 744.657 659.063 745.090 656.250 745.408 653.500 C 745.825 649.896 745.698 648.919 744.952 650.000 C 744.172 651.130 743.984 650.560 744.189 647.686 C 744.339 645.589 744.132 644.201 743.730 644.603 C 743.329 645.005 742.931 644.471 742.848 643.417 C 742.764 642.363 742.648 640.903 742.590 640.174 C 742.532 639.445 742.079 639.220 741.583 639.674 C 741.059 640.154 740.953 639.745 741.329 638.698 C 741.716 637.624 741.578 637.143 740.989 637.507 C 740.445 637.843 739.944 637.641 739.875 637.059 C 739.664 635.270 739.257 633.965 739.125 634.655 C 738.969 635.475 735.050 631.994 735.158 631.131 C 735.201 630.784 735.184 630.664 735.118 630.865 C 735.053 631.066 733.988 630.571 732.750 629.767 C 731.513 628.962 728.849 627.762 726.831 627.101 C 722.440 625.662 706.939 625.099 707.750 626.408 M 719.507 635.989 C 719.161 636.548 719.547 636.727 720.396 636.401 C 724.082 634.987 731.768 642.954 730.691 647.072 C 730.414 648.134 730.595 648.751 731.093 648.442 C 731.592 648.134 732.000 648.760 732.000 649.834 C 732.000 652.672 730.284 653.000 715.418 653.000 C 703.932 653.000 702.000 652.776 702.000 651.441 C 702.000 650.584 701.599 650.130 701.108 650.433 C 700.618 650.736 700.677 649.173 701.239 646.958 C 702.354 642.563 707.329 636.467 708.972 637.483 C 709.538 637.832 710.000 637.593 710.000 636.952 C 710.000 636.311 710.675 636.045 711.500 636.362 C 712.325 636.678 713.000 636.501 713.000 635.969 C 713.000 635.436 714.602 635.000 716.559 635.000 C 718.650 635.000 719.866 635.408 719.507 635.989 "/></g>
<g fill="#083854FD">
<path d="M 231.000 643.500 L 231.000 687.000 237.500 687.000 L 244.000 687.000 244.000 672.559 C 244.000 663.568 244.396 657.874 245.048 657.470 C 246.423 656.621 253.216 663.841 252.355 665.235 C 251.972 665.854 252.159 666.020 252.795 665.627 C 253.799 665.006 256.379 668.315 256.465 670.333 C 256.484 670.792 256.801 670.866 257.169 670.498 C 257.759 669.907 260.160 673.243 260.590 675.250 C 260.913 676.761 261.254 676.969 261.410 675.750 C 261.570 674.505 264.397 678.747 264.465 680.333 C 264.484 680.792 264.801 680.866 265.169 680.498 C 265.759 679.907 268.160 683.243 268.590 685.250 C 268.678 685.663 268.806 685.685 268.875 685.300 C 268.944 684.915 269.540 685.140 270.200 685.800 C 271.587 687.187 286.000 687.481 286.000 686.122 C 286.000 685.640 285.330 684.689 284.511 684.009 C 283.692 683.329 283.312 682.305 283.666 681.732 C 284.019 681.160 283.856 680.971 283.301 681.314 C 282.747 681.656 280.850 679.926 279.085 677.468 C 277.320 675.011 276.129 672.944 276.438 672.875 C 276.747 672.806 276.534 672.694 275.964 672.625 C 274.512 672.450 273.013 669.789 273.720 668.643 C 274.044 668.119 273.812 667.998 273.205 668.373 C 272.201 668.994 269.621 665.685 269.535 663.667 C 269.516 663.208 269.199 663.134 268.831 663.502 C 268.195 664.139 266.422 661.634 265.999 659.500 C 265.889 658.950 265.408 658.608 264.930 658.740 C 263.892 659.026 261.681 655.207 261.481 652.782 C 261.403 651.837 262.946 649.587 264.910 647.782 C 268.394 644.580 268.420 644.573 265.991 647.500 L 263.500 650.500 266.246 648.079 C 267.756 646.748 268.785 645.452 268.533 645.199 C 268.280 644.947 271.648 640.861 276.016 636.120 L 283.959 627.500 276.657 627.211 L 269.355 626.922 262.091 634.967 C 258.090 639.398 254.348 642.715 253.759 642.351 C 253.172 641.988 252.970 642.142 253.310 642.692 C 253.650 643.243 252.595 644.972 250.964 646.534 C 249.334 648.096 247.944 649.065 247.875 648.687 C 247.806 648.309 247.694 648.450 247.625 649.000 C 247.556 649.550 247.163 650.000 246.750 650.000 C 246.338 650.000 245.550 650.000 245.000 650.000 C 244.360 650.000 244.000 641.000 244.000 625.000 L 244.000 600.000 237.500 600.000 L 231.000 600.000 231.000 643.500 "/></g>
<g fill="#0094D1FD">
<path d="M 616.500 358.028 C 615.400 358.425 613.107 358.533 611.405 358.269 C 607.632 357.683 602.804 359.972 597.891 364.676 L 594.282 368.131 588.168 365.646 C 584.562 364.181 582.145 363.634 582.277 364.312 C 582.400 364.945 583.175 365.526 584.000 365.603 C 584.825 365.680 587.075 366.457 589.000 367.330 C 591.735 368.570 591.922 368.799 589.859 368.378 C 588.407 368.081 586.955 368.264 586.633 368.785 C 585.841 370.067 589.604 373.363 590.926 372.546 C 591.570 372.147 591.739 372.517 591.361 373.502 C 590.813 374.930 590.509 374.893 588.622 373.173 C 587.342 372.006 585.508 371.388 584.000 371.615 L 581.500 371.993 583.985 370.065 C 585.352 369.005 586.101 367.769 585.649 367.318 C 585.197 366.868 584.006 367.514 583.002 368.752 C 581.822 370.207 580.525 370.802 579.338 370.433 C 578.319 370.117 578.614 370.545 580.000 371.395 C 581.375 372.239 583.262 372.945 584.193 372.965 C 585.124 372.984 587.514 373.961 589.504 375.135 C 592.314 376.793 593.085 377.854 592.955 379.885 C 592.863 381.323 592.840 382.275 592.904 382.000 C 592.967 381.725 594.100 383.820 595.420 386.655 C 597.215 390.510 598.937 392.465 602.248 394.405 C 604.683 395.832 607.675 397.000 608.897 397.000 C 610.123 397.000 610.841 397.448 610.500 398.000 C 610.155 398.558 610.903 398.993 612.191 398.985 C 614.049 398.972 614.207 398.780 613.000 398.000 C 611.833 397.246 612.118 397.027 614.282 397.015 C 615.812 397.007 618.625 396.348 620.532 395.551 C 622.439 394.754 624.053 394.192 624.118 394.301 C 624.184 394.410 624.184 394.163 624.118 393.750 C 624.053 393.338 624.788 393.005 625.750 393.011 C 627.961 393.024 653.500 411.273 653.500 412.839 C 653.500 413.478 653.825 413.888 654.221 413.750 C 655.311 413.372 670.018 426.162 669.485 427.024 C 669.230 427.436 669.692 428.329 670.511 429.009 C 671.330 429.689 672.000 429.910 672.000 429.500 C 672.000 429.090 672.670 429.311 673.489 429.991 C 674.308 430.671 674.688 431.695 674.334 432.268 C 673.981 432.840 674.150 433.025 674.712 432.678 C 675.273 432.331 676.580 433.041 677.616 434.256 C 679.477 436.438 679.475 436.447 677.500 434.983 C 675.651 433.612 675.603 433.631 676.863 435.239 C 677.613 436.195 678.585 436.757 679.022 436.486 C 679.460 436.216 680.984 437.380 682.409 439.074 C 684.907 442.043 685.000 442.070 685.006 439.827 C 685.010 438.547 685.716 436.151 686.576 434.501 L 688.139 431.503 680.320 423.951 C 676.019 419.798 672.388 416.085 672.250 415.700 C 672.113 415.315 672.000 415.272 672.000 415.604 C 672.000 415.936 670.409 414.811 668.465 413.104 C 666.521 411.397 665.171 409.944 665.465 409.875 C 665.759 409.806 665.636 409.694 665.192 409.625 C 663.870 409.421 646.671 396.007 647.625 395.923 C 648.106 395.881 647.724 395.698 646.775 395.516 C 644.782 395.133 639.290 391.038 640.615 390.923 C 641.102 390.881 640.690 390.693 639.701 390.505 C 637.388 390.065 631.000 385.209 631.000 383.890 C 631.000 383.336 630.624 383.114 630.164 383.398 C 629.705 383.682 629.653 382.247 630.049 380.207 C 630.472 378.032 630.818 377.430 630.885 378.750 C 630.948 379.988 631.368 381.000 631.817 381.000 C 632.267 381.000 632.323 379.088 631.942 376.750 C 631.562 374.413 631.106 373.175 630.930 374.000 C 630.754 374.825 630.557 374.347 630.491 372.938 C 630.425 371.529 629.875 370.542 629.268 370.744 C 628.607 370.964 628.279 370.065 628.450 368.504 C 628.608 367.067 627.912 364.909 626.901 363.698 C 625.695 362.252 625.055 361.978 625.033 362.896 C 625.013 363.760 624.045 363.262 622.496 361.590 C 621.118 360.103 619.513 359.183 618.929 359.544 C 618.330 359.914 618.005 359.568 618.183 358.753 C 618.415 357.695 617.962 357.500 616.500 358.028 "/></g>
<g fill="#005889FD">
<path d="M 660.000 473.000 C 661.090 473.704 661.142 473.974 660.191 473.985 C 659.458 473.993 659.196 474.508 659.595 475.155 C 660.012 475.829 659.872 476.039 659.259 475.660 C 658.682 475.303 657.937 475.721 657.605 476.588 C 656.668 479.028 656.873 479.350 658.500 478.000 C 659.432 477.226 660.000 477.154 660.000 477.810 C 660.000 478.390 659.100 479.151 658.000 479.500 C 656.900 479.849 656.000 480.779 656.000 481.567 C 656.000 483.287 654.401 483.459 653.405 481.845 C 652.962 481.130 653.130 480.962 653.845 481.405 C 654.480 481.797 655.000 481.641 655.000 481.059 C 655.000 478.469 651.717 481.162 648.828 486.120 C 648.097 487.374 647.617 487.845 647.760 487.169 C 647.903 486.492 647.065 484.940 645.897 483.719 L 643.773 481.500 644.462 483.775 C 644.841 485.026 644.779 485.986 644.325 485.907 C 643.871 485.828 642.600 485.823 641.500 485.897 C 639.900 486.004 639.787 486.212 640.936 486.939 C 642.121 487.689 642.145 488.121 641.072 489.413 C 639.664 491.110 637.539 490.554 638.638 488.776 C 639.041 488.125 638.843 487.979 638.144 488.411 C 637.285 488.942 637.376 489.699 638.489 491.288 C 640.247 493.798 640.458 496.000 638.941 496.000 C 638.359 496.000 638.129 495.601 638.430 495.113 C 638.731 494.626 638.308 493.671 637.489 492.991 C 636.455 492.133 636.000 492.098 636.000 492.878 C 636.000 493.495 636.375 494.000 636.833 494.000 C 637.292 494.000 637.736 494.563 637.820 495.250 C 638.673 502.189 638.969 503.106 639.375 500.062 C 639.444 499.546 641.075 500.999 642.999 503.291 C 644.924 505.583 645.707 507.018 644.740 506.479 C 643.772 505.941 644.341 506.547 646.002 507.826 C 647.664 509.106 648.781 510.546 648.484 511.026 C 648.187 511.507 648.857 512.388 649.972 512.985 C 651.087 513.582 652.000 514.730 652.000 515.535 C 652.000 516.341 652.461 517.000 653.025 517.000 C 653.588 517.000 654.488 518.152 655.023 519.560 C 655.558 520.968 656.416 521.861 656.929 521.544 C 657.442 521.227 658.187 521.494 658.585 522.138 C 659.037 522.869 658.876 523.041 658.155 522.595 C 657.520 522.203 657.000 522.332 657.000 522.882 C 657.000 524.107 658.883 525.346 661.319 525.725 C 662.726 525.944 662.994 525.556 662.503 524.011 C 662.017 522.478 662.233 522.152 663.429 522.611 C 664.287 522.940 664.740 523.612 664.435 524.105 C 663.550 525.537 665.004 525.138 666.643 523.500 C 668.308 521.834 671.474 521.424 670.500 523.000 C 670.160 523.550 670.407 524.000 671.048 524.000 C 671.689 524.000 671.972 523.369 671.676 522.599 C 671.356 521.765 671.921 520.992 673.069 520.692 C 674.131 520.414 675.000 519.444 675.000 518.535 C 675.000 517.540 674.540 517.166 673.845 517.595 C 673.114 518.048 672.963 517.869 673.435 517.106 C 673.879 516.387 674.645 516.249 675.339 516.763 C 675.978 517.236 677.063 517.539 677.750 517.436 C 678.438 517.334 678.663 517.187 678.250 517.110 C 677.838 517.033 678.160 516.552 678.966 516.042 C 679.915 515.442 680.974 515.536 681.966 516.307 C 683.310 517.352 683.330 517.283 682.128 515.750 C 681.189 514.553 681.120 514.000 681.910 514.000 C 682.545 514.000 683.471 515.013 683.969 516.250 C 684.600 517.819 684.892 515.380 684.937 508.184 C 684.971 502.511 684.556 497.039 684.014 496.026 C 682.445 493.094 667.826 478.601 666.082 478.247 C 665.212 478.071 663.928 477.803 663.228 477.652 C 662.529 477.500 662.267 477.067 662.645 476.688 C 663.024 476.310 662.808 476.000 662.167 476.000 C 661.525 476.000 661.000 475.523 661.000 474.941 C 661.000 474.359 661.563 474.220 662.250 474.633 C 663.099 475.143 663.060 474.842 662.128 473.692 C 661.373 472.761 660.248 472.007 659.628 472.015 C 659.007 472.024 659.175 472.467 660.000 473.000 "/></g>
<g fill="#25B5ADFD">
<path d="M 866.417 599.917 C 866.188 600.146 866.000 620.283 866.000 644.667 L 866.000 689.000 873.500 689.000 L 881.000 689.000 881.000 644.441 C 881.000 614.990 880.661 600.092 880.000 600.500 C 879.450 600.840 879.000 600.754 879.000 600.309 C 879.000 599.499 867.202 599.131 866.417 599.917 "/></g>
<g fill="#00000CFD">
<path d="M 357.000 643.500 L 357.000 688.000 364.500 688.000 L 372.000 688.000 372.000 643.500 L 372.000 599.000 364.500 599.000 L 357.000 599.000 357.000 643.500 M 371.000 643.500 L 371.000 687.000 364.500 687.000 L 358.000 687.000 358.000 643.500 L 358.000 600.000 364.500 600.000 L 371.000 600.000 371.000 643.500 "/></g>
<g fill="#00000CFD">
<path d="M 327.000 643.500 L 327.000 688.000 334.500 688.000 L 342.000 688.000 342.000 643.500 L 342.000 599.000 334.500 599.000 L 327.000 599.000 327.000 643.500 M 341.000 643.500 L 341.000 687.000 334.500 687.000 L 328.000 687.000 328.000 643.500 L 328.000 600.000 334.500 600.000 L 341.000 600.000 341.000 643.500 "/></g>
<g fill="#083854FD">
<path d="M 358.000 643.500 L 358.000 687.000 364.500 687.000 L 371.000 687.000 371.000 643.500 L 371.000 600.000 364.500 600.000 L 358.000 600.000 358.000 643.500 "/></g>
<g fill="#083854FD">
<path d="M 328.000 643.500 L 328.000 687.000 334.500 687.000 L 341.000 687.000 341.000 643.500 L 341.000 600.000 334.500 600.000 L 328.000 600.000 328.000 643.500 "/></g>
<g fill="#083854FD">
<path d="M 495.903 625.540 C 489.339 626.856 485.712 629.112 482.936 633.603 C 480.395 637.716 479.034 637.934 478.900 634.250 L 478.801 631.500 478.000 634.000 C 477.347 636.038 477.181 635.621 477.100 631.750 L 477.000 627.000 471.500 627.000 L 466.000 627.000 466.000 657.000 L 466.000 687.000 472.500 687.000 L 479.000 687.000 479.000 668.441 C 479.000 654.667 479.298 650.066 480.155 650.595 C 480.841 651.020 481.039 650.872 480.642 650.229 C 478.761 647.186 485.851 639.936 491.113 639.523 C 492.682 639.399 493.673 639.006 493.316 638.649 C 492.959 638.292 494.511 638.000 496.766 638.000 L 500.866 638.000 501.085 631.229 L 501.305 624.457 495.903 625.540 "/></g>
<g fill="#00000CFD">
<path d="M 512.000 657.000 L 512.000 688.000 520.000 688.000 L 528.000 688.000 528.000 657.000 L 528.000 626.000 520.000 626.000 L 512.000 626.000 512.000 657.000 M 527.000 657.000 L 527.000 687.000 519.970 687.000 L 512.939 687.000 513.056 657.000 L 513.174 627.000 520.087 627.000 L 527.000 627.000 527.000 657.000 "/></g>
<g fill="#00000CFD">
<path d="M 297.000 657.000 L 297.000 688.000 304.500 688.000 L 312.000 688.000 312.000 657.000 L 312.000 626.000 304.500 626.000 L 297.000 626.000 297.000 657.000 M 311.000 657.000 L 311.000 687.000 304.500 687.000 L 298.000 687.000 298.000 657.000 L 298.000 627.000 304.500 627.000 L 311.000 627.000 311.000 657.000 "/></g>
<g fill="#083854FD">
<path d="M 513.319 657.001 L 513.138 687.000 520.069 687.000 L 527.000 687.000 527.000 657.000 L 527.000 627.000 520.250 627.001 L 513.500 627.003 513.319 657.001 "/></g>
<g fill="#083854FD">
<path d="M 298.000 657.000 L 298.000 687.000 304.500 687.000 L 311.000 687.000 311.000 657.000 L 311.000 627.000 304.500 627.000 L 298.000 627.000 298.000 657.000 "/></g>
<g fill="#0070ACFD">
<path d="M 336.227 534.000 C 336.097 547.530 336.360 553.990 337.000 553.000 C 337.695 551.924 337.974 551.867 337.985 552.799 C 337.995 553.715 339.430 554.034 342.844 553.878 C 347.268 553.676 347.665 553.455 347.432 551.328 C 347.256 549.727 347.695 548.995 348.838 548.985 C 350.286 548.971 350.307 548.833 349.000 547.909 C 347.865 547.106 347.806 546.724 348.756 546.338 C 349.447 546.058 349.758 545.418 349.447 544.915 C 349.136 544.412 349.297 544.000 349.803 544.000 C 351.019 544.000 350.448 539.048 349.074 537.674 C 348.483 537.083 348.014 536.128 348.030 535.550 C 348.047 534.973 348.519 535.288 349.080 536.250 C 349.641 537.213 350.554 538.000 351.109 538.000 C 351.664 538.000 351.840 537.550 351.500 537.000 C 351.160 536.450 351.610 536.000 352.500 536.000 C 353.390 536.000 353.859 536.419 353.543 536.931 C 353.226 537.443 353.494 538.187 354.138 538.585 C 354.869 539.037 355.041 538.876 354.595 538.155 C 354.197 537.510 354.460 536.984 355.191 536.965 C 355.911 536.945 355.507 536.377 354.294 535.703 C 352.828 534.888 352.362 534.032 352.906 533.153 C 353.355 532.425 353.898 531.829 354.112 531.830 C 354.325 531.830 353.927 531.354 353.226 530.772 C 352.525 530.191 351.663 530.004 351.309 530.357 C 350.956 530.711 351.247 531.000 351.956 531.000 C 352.988 531.000 352.997 531.299 352.000 532.500 C 350.619 534.164 347.515 534.594 348.510 532.984 C 348.856 532.425 349.635 532.274 350.242 532.650 C 350.849 533.025 350.705 532.457 349.923 531.387 C 348.521 529.472 347.720 529.248 345.248 530.079 C 344.559 530.311 345.073 528.925 346.391 527.000 L 348.786 523.500 345.893 525.878 C 343.250 528.051 342.700 527.900 342.700 525.000 C 342.700 524.450 342.781 524.563 342.880 525.250 C 342.997 526.056 343.405 525.910 344.031 524.838 C 344.796 523.527 344.632 523.247 343.250 523.512 C 342.288 523.696 341.147 523.881 340.715 523.923 C 340.283 523.966 340.406 524.890 340.988 525.977 C 341.864 527.614 341.771 527.849 340.449 527.342 C 339.407 526.942 339.037 525.990 339.384 524.606 C 339.677 523.439 339.492 521.812 338.974 520.992 C 338.349 520.004 337.954 523.888 337.804 532.500 L 337.577 545.500 337.000 529.500 L 336.423 513.500 336.227 534.000 "/></g>
<g fill="#00000CFD">
<path d="M 300.500 600.208 C 297.216 602.091 296.065 604.268 296.032 608.661 C 296.005 612.133 296.529 613.267 299.195 615.510 C 308.162 623.056 319.381 610.227 311.077 601.923 C 307.955 598.802 304.055 598.169 300.500 600.208 M 310.545 602.455 C 312.961 604.870 313.714 608.976 312.379 612.455 C 311.624 614.423 306.875 617.000 304.004 617.000 C 300.447 617.000 297.000 612.629 297.000 608.118 C 297.000 600.816 305.396 597.305 310.545 602.455 "/></g>
<g fill="#083854FD">
<path d="M 516.409 600.958 C 514.308 601.822 512.236 605.776 511.933 609.500 C 511.843 610.600 511.822 611.327 511.885 611.115 C 511.948 610.903 512.933 611.916 514.073 613.365 C 515.212 614.814 516.000 616.052 515.823 616.115 C 515.645 616.179 515.950 616.335 516.500 616.463 C 517.050 616.591 517.500 616.808 517.500 616.946 C 517.500 617.629 522.581 617.390 523.100 616.684 C 523.430 616.234 524.555 615.742 525.600 615.588 C 526.645 615.435 527.556 614.790 527.625 614.155 C 527.694 613.520 527.806 612.250 527.875 611.333 C 527.944 610.417 528.303 609.970 528.673 610.340 C 529.044 610.710 529.396 609.885 529.456 608.507 C 529.517 607.128 529.166 606.000 528.676 606.000 C 528.187 606.000 528.054 605.302 528.382 604.448 C 528.709 603.594 528.583 603.140 528.102 603.437 C 527.620 603.735 526.671 603.308 525.991 602.489 C 525.311 601.670 525.148 600.965 525.628 600.923 C 526.107 600.881 524.700 600.678 522.500 600.472 C 520.300 600.266 517.559 600.485 516.409 600.958 "/></g>
<g fill="#083854FD">
<path d="M 301.691 600.309 C 302.079 600.937 301.682 601.092 300.676 600.706 C 299.767 600.357 299.114 600.393 299.224 600.786 C 299.335 601.179 298.852 602.534 298.151 603.799 C 296.489 606.799 297.147 615.227 299.076 615.626 C 299.859 615.789 302.184 616.341 304.243 616.854 C 306.383 617.387 307.750 617.404 307.434 616.893 C 307.130 616.402 307.341 616.000 307.902 616.000 C 308.463 616.000 309.840 615.015 310.961 613.811 C 312.082 612.608 313.032 611.933 313.071 612.311 C 313.111 612.690 313.175 610.986 313.214 608.524 C 313.254 606.062 312.996 604.337 312.643 604.690 C 312.289 605.044 312.000 604.808 312.000 604.167 C 312.000 602.357 311.588 601.566 310.500 601.291 C 304.575 599.792 301.134 599.408 301.691 600.309 "/></g>
<g fill="#25B5ADFD">
<path d="M 754.572 672.117 C 754.795 672.478 754.308 673.329 753.489 674.009 C 752.670 674.689 751.958 675.077 751.906 674.872 C 751.855 674.668 751.818 676.472 751.824 678.882 C 751.830 681.467 752.462 683.890 753.364 684.792 C 755.068 686.496 762.275 689.254 761.423 687.876 C 761.126 687.394 761.584 686.944 762.441 686.875 C 763.298 686.806 764.563 686.694 765.250 686.625 C 766.711 686.479 767.352 673.500 765.898 673.500 C 765.404 673.500 764.888 673.069 764.750 672.543 C 764.613 672.017 762.175 671.558 759.333 671.523 C 756.492 671.489 754.349 671.756 754.572 672.117 "/></g>
<g fill="#00000CFD">
<path d="M 388.770 643.565 L 388.500 688.129 411.500 687.815 C 433.425 687.515 434.710 687.390 439.000 685.137 C 448.098 680.360 452.008 674.432 452.565 664.572 L 452.907 658.500 452.025 664.649 C 450.789 673.269 447.844 678.509 442.238 682.064 C 435.196 686.530 432.220 686.988 410.250 686.994 L 390.000 687.000 390.000 643.589 L 390.000 600.178 404.700 600.055 C 412.786 599.988 419.611 599.723 419.867 599.466 C 420.124 599.210 413.292 599.000 404.687 599.000 L 389.041 599.000 388.770 643.565 "/></g>
<g fill="#00000CFD">
<path d="M 230.000 643.500 L 230.000 688.000 237.500 688.000 L 245.000 688.000 244.779 672.750 L 244.558 657.500 244.252 672.250 L 243.947 687.000 237.473 687.000 L 231.000 687.000 231.000 643.500 L 231.000 600.000 237.483 600.000 L 243.966 600.000 244.251 625.250 L 244.536 650.500 244.768 624.750 L 245.000 599.000 237.500 599.000 L 230.000 599.000 230.000 643.500 "/></g>
<g fill="#00000CFD">
<path d="M 465.000 657.000 L 465.000 688.000 472.500 688.000 L 480.000 688.000 480.000 669.148 C 480.000 651.247 480.114 650.124 482.258 646.898 C 485.340 642.260 492.295 638.806 497.750 639.204 L 502.000 639.514 501.811 633.007 L 501.622 626.500 501.261 632.250 L 500.900 638.000 497.200 638.076 C 490.234 638.219 484.574 641.364 481.140 647.000 C 479.169 650.234 479.007 651.886 479.004 668.750 L 479.000 687.000 472.500 687.000 L 466.000 687.000 466.000 657.000 L 466.000 627.000 471.440 627.000 L 476.879 627.000 477.272 630.750 L 477.664 634.500 477.832 630.250 L 478.000 626.000 471.500 626.000 L 465.000 626.000 465.000 657.000 "/></g>
<g fill="#00000CFD">
<path d="M 287.242 494.250 L 287.000 555.000 311.750 554.769 L 336.500 554.537 312.258 554.251 L 288.016 553.964 287.750 493.732 L 287.484 433.500 287.242 494.250 "/></g>
<g fill="#00000CFD">
<path d="M 587.224 616.250 L 587.448 633.500 587.748 616.750 L 588.048 600.000 594.524 600.000 L 601.000 600.000 601.000 643.500 L 601.000 687.000 595.066 687.000 C 589.361 687.000 589.117 686.894 588.716 684.250 C 588.329 681.690 588.289 681.725 588.150 684.750 L 588.000 688.000 595.000 688.000 L 602.000 688.000 602.000 643.500 L 602.000 599.000 594.500 599.000 L 587.000 599.000 587.224 616.250 "/></g>
<g fill="#00000CFD">
<path d="M 661.168 630.250 L 661.336 634.500 661.728 630.750 L 662.121 627.000 668.133 627.000 L 674.145 627.000 673.823 659.750 C 673.510 691.476 673.428 692.656 671.196 697.500 C 668.179 704.050 664.626 707.721 658.500 710.617 C 655.750 711.917 654.195 712.985 655.044 712.990 C 655.894 712.996 659.039 711.536 662.034 709.746 C 666.638 706.995 668.021 705.428 670.990 699.600 L 674.500 692.708 674.822 659.354 L 675.144 626.000 668.072 626.000 L 661.000 626.000 661.168 630.250 "/></g>
<g fill="#009D85FD">
<path d="M 805.494 600.211 C 799.588 616.315 782.097 668.292 782.857 667.482 C 783.363 666.942 788.389 653.000 794.025 636.500 C 799.661 620.000 804.863 605.038 805.585 603.250 L 806.898 600.000 814.949 600.000 C 819.550 600.000 823.064 600.429 823.150 601.000 C 823.233 601.550 823.345 601.438 823.400 600.750 C 823.545 598.932 806.155 598.409 805.494 600.211 "/></g>
<g fill="#0070ACFD">
<path d="M 621.500 395.068 C 617.794 397.442 619.112 397.638 623.068 395.301 L 625.944 393.602 634.722 399.548 C 648.201 408.678 661.680 419.864 673.806 431.983 C 679.868 438.043 685.092 443.000 685.414 443.000 C 685.736 443.000 685.933 441.538 685.850 439.750 C 685.720 436.922 685.648 436.840 685.296 439.119 C 684.905 441.655 684.711 441.547 679.196 435.716 C 665.595 421.335 629.985 392.855 625.877 393.073 C 625.120 393.113 623.150 394.011 621.500 395.068 "/></g>
<g fill="#009D85FD">
<path d="M 865.230 644.250 L 865.460 689.500 865.980 644.250 C 866.266 619.362 866.163 598.999 865.750 599.000 C 865.338 599.000 865.103 619.363 865.230 644.250 "/></g>
<g fill="#00000CFD">
<path d="M 267.441 662.537 C 271.258 667.467 276.995 674.758 280.191 678.740 C 283.386 682.722 286.000 686.210 286.000 686.490 C 286.000 686.771 282.644 687.000 278.542 687.000 L 271.084 687.000 259.292 672.390 C 252.806 664.354 247.585 658.167 247.689 658.640 C 247.793 659.113 252.968 665.905 259.189 673.734 L 270.500 687.969 279.821 687.984 C 288.323 687.999 289.004 687.861 287.560 686.418 C 286.690 685.547 280.745 678.110 274.348 669.890 C 267.952 661.670 262.220 654.636 261.610 654.259 C 261.000 653.882 263.624 657.607 267.441 662.537 "/></g>
<g fill="#00000CFD">
<path d="M 257.832 638.250 L 246.500 650.500 258.029 638.702 L 269.558 626.903 276.931 627.202 L 284.303 627.500 272.756 639.500 C 266.406 646.100 261.424 651.724 261.687 651.998 C 261.949 652.273 262.817 651.604 263.615 650.512 C 264.413 649.421 270.072 643.459 276.190 637.264 L 287.314 626.000 278.239 626.000 L 269.164 626.000 257.832 638.250 "/></g>
<g fill="#00000CFD">
<path d="M 726.814 674.119 C 725.336 675.703 724.470 677.000 724.889 677.000 C 725.309 677.000 726.708 675.875 728.000 674.500 C 730.025 672.344 731.220 672.000 736.674 672.000 C 740.153 672.000 743.000 672.383 743.000 672.852 C 743.000 674.514 738.450 680.355 735.000 683.120 C 730.384 686.821 720.237 689.389 713.036 688.680 C 708.538 688.236 708.062 688.318 710.500 689.117 C 714.245 690.345 723.113 689.577 728.941 687.521 C 735.262 685.291 739.146 681.986 742.338 676.120 L 745.125 671.000 737.312 671.119 C 730.064 671.229 729.306 671.445 726.814 674.119 "/></g>
<g fill="#0070ACFD">
<path d="M 632.000 385.366 C 632.000 385.633 636.311 388.856 641.580 392.530 C 654.550 401.573 668.756 412.981 679.003 422.584 C 683.676 426.964 685.700 428.556 683.500 426.122 C 677.373 419.342 658.801 403.711 646.000 394.559 C 633.491 385.616 632.000 384.637 632.000 385.366 "/></g>
<g fill="#009D85FD">
<path d="M 474.500 362.960 C 459.376 365.678 432.366 373.301 430.206 375.461 C 429.314 376.353 430.143 376.127 439.508 372.931 C 451.112 368.970 466.652 365.194 480.500 362.970 C 486.550 361.999 489.925 361.195 488.000 361.184 C 486.075 361.173 480.000 361.972 474.500 362.960 "/></g>
<g fill="#00000CFD">
<path d="M 614.096 666.261 C 613.928 669.342 618.274 677.268 622.240 681.117 C 631.621 690.221 650.390 690.246 656.901 681.163 L 658.809 678.500 656.655 680.740 C 650.839 686.787 640.296 688.683 630.690 685.410 C 624.806 683.405 618.053 676.130 615.813 669.383 C 614.921 666.697 614.148 665.292 614.096 666.261 "/></g>
<g fill="#00000CFD">
<path d="M 156.764 618.000 C 154.105 627.025 157.432 637.117 164.837 642.490 C 169.039 645.540 186.450 651.883 187.563 650.770 C 187.819 650.514 185.159 649.528 181.651 648.578 C 162.906 643.504 156.523 636.703 157.177 622.500 C 157.365 618.441 157.191 616.550 156.764 618.000 "/></g>
<g fill="#00000CFD">
<path d="M 655.525 696.801 C 652.075 700.847 647.551 703.000 642.500 703.000 C 638.012 703.000 632.085 700.567 630.273 697.980 C 629.072 696.264 627.859 696.027 621.193 696.199 L 613.500 696.397 620.987 696.747 C 626.433 697.002 628.711 697.519 629.340 698.644 C 630.653 700.990 638.002 703.956 642.500 703.956 C 647.870 703.956 654.196 700.939 656.958 697.059 C 660.059 692.704 659.156 692.542 655.525 696.801 "/></g>
<g fill="#58CDC4FD">
<path d="M 480.238 669.500 L 480.000 688.000 472.500 688.222 L 465.000 688.444 472.750 688.472 L 480.500 688.500 480.488 669.750 L 480.475 651.000 480.238 669.500 "/></g>
<g fill="#D1E9F5FD">
<path d="M 683.782 443.141 C 684.752 444.383 685.040 450.753 684.966 469.291 C 684.912 482.770 685.123 493.544 685.434 493.233 C 685.745 492.921 686.000 481.772 686.000 468.456 C 686.000 446.587 685.831 444.112 684.250 442.872 C 682.689 441.648 682.639 441.677 683.782 443.141 "/></g>
<g fill="#0070ACFD">
<path d="M 489.664 444.587 C 483.705 445.275 478.530 446.142 478.164 446.513 C 477.799 446.884 479.525 446.895 482.000 446.539 C 493.928 444.819 502.426 444.248 512.500 444.487 C 518.990 444.641 522.680 444.409 521.500 443.921 C 518.701 442.763 502.542 443.101 489.664 444.587 "/></g>
<g fill="#D1E9F5FD">
<path d="M 245.216 624.191 C 245.097 637.771 245.338 649.091 245.750 649.347 C 246.163 649.603 246.260 638.492 245.966 624.656 L 245.432 599.500 245.216 624.191 "/></g>
<g fill="#00000CFD">
<path d="M 561.326 625.027 C 555.234 626.257 551.732 628.361 547.190 633.522 C 542.860 638.441 539.927 645.451 540.118 650.428 C 540.206 652.740 540.435 652.312 541.042 648.702 C 541.938 643.369 545.054 636.732 548.343 633.151 C 551.364 629.861 558.593 626.414 564.500 625.446 C 567.250 624.995 568.600 624.527 567.500 624.405 C 566.400 624.283 563.622 624.563 561.326 625.027 "/></g>
<g fill="#00000CFD">
<path d="M 690.441 430.555 C 688.566 432.057 688.574 432.074 690.684 431.055 C 693.907 429.498 729.017 429.679 731.211 431.264 C 732.775 432.393 732.791 432.349 731.390 430.750 C 730.032 429.200 727.714 429.000 711.120 429.000 C 695.668 429.000 692.042 429.273 690.441 430.555 "/></g>
<g fill="#00000CFD">
<path d="M 564.500 637.362 C 558.725 640.046 553.850 647.061 554.107 652.315 C 554.166 653.517 554.645 652.576 555.171 650.225 C 556.446 644.529 562.238 638.421 567.259 637.479 C 575.079 636.012 581.349 638.971 584.978 645.840 C 586.042 647.853 586.931 649.004 586.956 648.398 C 587.025 646.667 582.773 640.886 579.824 638.702 C 576.439 636.195 568.504 635.501 564.500 637.362 "/></g>
<g fill="#00000CFD">
<path d="M 513.923 601.923 C 510.872 604.974 510.299 608.025 511.957 612.387 C 512.975 615.066 517.715 618.059 520.700 617.910 C 521.690 617.860 521.066 617.405 519.313 616.898 C 515.744 615.865 512.000 611.727 512.000 608.815 C 512.000 605.643 514.772 601.294 517.210 600.641 C 521.410 599.516 523.130 599.977 526.203 603.049 C 527.879 604.726 528.970 605.364 528.626 604.467 C 528.282 603.570 528.000 602.660 528.000 602.444 C 528.000 602.228 526.672 601.365 525.050 600.526 C 520.569 598.209 517.216 598.630 513.923 601.923 "/></g>
<g fill="#00000CFD">
<path d="M 540.220 666.212 C 542.476 678.625 550.507 687.206 561.000 688.415 C 565.448 688.928 565.138 688.783 557.693 686.870 C 553.034 685.673 546.540 679.978 543.872 674.750 C 542.782 672.612 541.627 668.644 541.305 665.932 C 540.984 663.219 540.396 661.000 539.997 661.000 C 539.599 661.000 539.699 663.345 540.220 666.212 "/></g>
<g fill="#00000CFD">
<path d="M 289.405 431.250 C 287.506 433.493 287.507 433.494 289.552 431.774 C 291.296 430.307 294.300 430.003 309.552 429.749 L 327.500 429.451 309.405 429.225 C 291.736 429.005 291.265 429.053 289.405 431.250 "/></g>
<g fill="#083854FD">
<path d="M 682.260 501.567 C 681.578 502.297 681.425 503.145 681.921 503.451 C 683.166 504.221 682.569 507.472 681.155 507.625 C 678.475 507.915 679.004 508.526 682.250 508.890 C 683.160 508.992 683.117 509.273 682.091 509.923 C 681.316 510.413 680.000 510.553 679.167 510.234 C 678.073 509.814 677.828 510.110 678.284 511.297 C 678.637 512.217 678.220 513.637 677.338 514.519 C 674.788 517.069 676.451 517.238 679.183 514.706 C 680.556 513.434 682.171 512.557 682.773 512.758 C 683.501 513.000 683.805 510.969 683.683 506.680 C 683.536 501.502 683.257 500.499 682.260 501.567 "/></g>
<g fill="#009D85FD">
<path d="M 806.482 634.797 C 800.914 651.378 799.596 655.969 801.115 653.500 C 802.234 651.681 813.216 617.882 812.817 617.484 C 812.602 617.269 809.751 625.060 806.482 634.797 "/></g>
<g fill="#00000CFD">
<path d="M 434.114 627.500 C 433.946 629.620 431.741 632.636 428.599 635.043 C 427.328 636.017 423.016 636.691 415.599 637.077 L 404.500 637.654 414.282 637.827 C 420.697 637.940 425.200 637.525 427.364 636.621 C 431.492 634.897 435.220 630.278 434.681 627.559 C 434.285 625.565 434.267 625.563 434.114 627.500 "/></g>
<g fill="#00000CFD">
<path d="M 628.168 627.603 C 625.295 629.035 621.854 631.636 620.522 633.382 C 617.439 637.424 614.031 644.904 614.089 647.500 C 614.114 648.600 614.703 647.700 615.399 645.500 C 618.981 634.174 625.359 628.183 636.500 625.681 C 638.085 625.325 637.970 625.208 635.946 625.116 C 634.542 625.052 631.042 626.172 628.168 627.603 "/></g>
<g fill="#00000CFD">
<path d="M 196.266 613.837 C 199.729 616.121 201.927 618.978 201.968 621.250 C 201.996 622.758 203.036 623.000 209.500 623.000 L 217.000 623.000 216.985 620.250 C 216.976 618.738 216.539 616.825 216.013 616.000 C 215.357 614.971 215.246 615.677 215.659 618.250 L 216.262 622.000 209.631 622.000 C 204.219 622.000 203.000 621.706 203.000 620.400 C 203.000 618.454 196.731 611.997 194.850 612.007 C 194.108 612.010 194.745 612.834 196.266 613.837 "/></g>
<g fill="#009D85FD">
<path d="M 792.168 680.250 L 789.837 687.000 783.351 687.000 C 777.193 687.000 776.899 686.893 777.540 684.875 C 777.994 683.445 777.852 682.973 777.107 683.434 C 776.498 683.810 776.000 684.991 776.000 686.059 C 776.000 687.781 776.733 688.000 782.500 688.000 C 786.075 688.000 789.309 688.033 789.687 688.073 C 790.623 688.173 793.825 679.845 794.198 676.340 C 794.364 674.778 793.451 676.538 792.168 680.250 "/></g>
<g fill="#00000CFD">
<path d="M 637.325 637.612 C 635.578 638.473 633.328 640.121 632.325 641.273 C 631.079 642.705 631.703 642.470 634.292 640.534 C 643.695 633.503 655.534 637.191 659.863 648.500 L 661.012 651.500 660.428 648.500 C 658.553 638.866 646.397 633.137 637.325 637.612 "/></g>
<g fill="#00000CFD">
<path d="M 155.079 669.290 C 154.726 677.284 169.346 689.299 178.928 688.890 C 180.593 688.820 179.959 688.478 177.132 687.922 C 167.039 685.939 159.597 680.002 156.591 671.537 C 155.803 669.317 155.122 668.305 155.079 669.290 "/></g>
<g fill="#00000CFD">
<path d="M 729.463 628.056 C 737.146 631.889 742.243 638.670 743.959 647.344 C 744.660 650.887 744.796 651.058 744.881 648.500 C 744.986 645.326 741.364 636.962 738.316 633.343 C 735.833 630.394 729.077 625.991 727.110 626.040 C 726.225 626.062 727.283 626.969 729.463 628.056 "/></g>
<g fill="#00000CFD">
<path d="M 449.243 622.800 C 448.868 630.981 445.309 636.234 437.993 639.407 C 436.072 640.240 435.080 640.939 435.790 640.961 C 438.419 641.041 444.905 636.942 447.166 633.773 C 449.039 631.147 449.499 629.216 449.493 624.000 C 449.488 619.220 449.422 618.903 449.243 622.800 "/></g>
<g fill="#00000CFD">
<path d="M 200.021 671.335 C 198.243 674.094 191.088 676.953 185.899 676.978 C 182.875 676.992 179.683 676.141 176.587 674.495 C 173.996 673.118 172.184 672.489 172.561 673.099 C 173.852 675.188 181.498 677.956 186.038 677.978 C 191.307 678.004 199.011 674.511 200.329 671.500 C 201.132 669.663 201.107 669.650 200.021 671.335 "/></g>
<g fill="#00000CFD">
<path d="M 427.649 600.975 C 437.432 602.378 443.515 606.248 447.338 613.500 C 448.208 615.150 448.938 616.090 448.960 615.588 C 448.982 615.086 447.909 612.814 446.575 610.538 C 443.234 604.837 435.888 600.913 427.679 600.445 L 421.500 600.093 427.649 600.975 "/></g>
<g fill="#009D85FD">
<path d="M 451.500 357.715 C 447.807 358.606 427.511 365.223 426.500 365.865 C 424.456 367.163 427.700 366.354 439.500 362.622 C 455.913 357.432 456.711 357.153 455.000 357.195 C 454.175 357.215 452.600 357.449 451.500 357.715 "/></g>
<g fill="#00000CFD">
<path d="M 696.298 631.750 C 691.292 636.404 688.111 642.534 687.480 648.747 L 686.997 653.500 688.302 648.000 C 690.099 640.423 692.155 636.913 697.607 632.115 C 700.178 629.852 701.843 628.000 701.307 628.000 C 700.771 628.000 698.517 629.688 696.298 631.750 "/></g>
<g fill="#0070ACFD">
<path d="M 346.151 484.109 C 340.460 489.549 336.207 494.000 336.700 494.000 C 337.193 494.000 341.850 489.549 347.048 484.109 L 356.500 474.217 346.151 484.109 "/></g>
<g fill="#D1E9F5FD">
<path d="M 245.613 658.720 C 245.276 659.057 245.091 666.121 245.203 674.417 L 245.406 689.500 245.816 673.803 C 246.042 665.170 245.951 658.383 245.613 658.720 "/></g>
<g fill="#009D85FD">
<path d="M 501.121 334.169 C 496.741 336.337 490.975 343.632 491.022 346.946 C 491.034 347.801 491.863 346.696 492.865 344.491 C 493.867 342.287 496.322 339.046 498.322 337.291 C 501.790 334.245 504.123 333.457 512.000 332.670 C 514.634 332.407 514.263 332.281 510.500 332.161 C 507.124 332.053 504.078 332.706 501.121 334.169 "/></g>
<g fill="#0070ACFD">
<path d="M 509.316 416.120 C 509.967 416.461 515.900 416.978 522.500 417.269 C 529.100 417.560 533.561 417.436 532.414 416.992 C 529.974 416.049 507.562 415.202 509.316 416.120 "/></g>
<g fill="#00000CFD">
<path d="M 628.001 663.882 C 627.999 666.367 632.032 671.858 635.300 673.821 C 640.047 676.672 643.585 677.206 648.287 675.778 C 650.604 675.075 651.600 674.641 650.500 674.813 C 640.084 676.444 633.640 673.890 630.093 666.726 C 628.943 664.401 628.001 663.122 628.001 663.882 "/></g>
<g fill="#00000CFD">
<path d="M 587.189 656.434 C 586.962 664.773 584.306 670.966 579.690 673.923 C 577.935 675.047 577.048 675.974 577.717 675.983 C 579.896 676.013 585.886 669.113 587.027 665.260 C 587.639 663.192 587.968 658.800 587.759 655.500 L 587.378 649.500 587.189 656.434 "/></g>
<g fill="#009D85FD">
<path d="M 467.000 354.340 C 461.225 355.528 457.850 356.449 459.500 356.387 C 464.252 356.208 484.892 352.160 481.000 352.171 C 479.075 352.176 472.775 353.152 467.000 354.340 "/></g>
<g fill="#00000CFD">
<path d="M 688.010 669.865 C 688.004 670.615 689.174 673.387 690.609 676.024 C 693.422 681.192 699.866 686.489 704.576 687.505 C 706.703 687.964 706.273 687.556 703.000 686.009 C 696.897 683.125 693.201 679.459 690.383 673.500 C 689.083 670.750 688.015 669.114 688.010 669.865 "/></g>
<g fill="#00000CFD">
<path d="M 198.306 640.443 C 207.268 643.687 211.532 646.418 214.533 650.834 C 215.890 652.831 217.000 653.898 217.000 653.206 C 217.000 652.514 215.046 649.993 212.657 647.604 C 208.530 643.478 201.213 639.858 194.291 638.519 C 192.756 638.222 194.563 639.087 198.306 640.443 "/></g>
<g fill="#00000CFD">
<path d="M 171.125 623.215 C 170.938 628.757 175.350 633.288 183.609 636.036 C 187.194 637.229 190.314 638.020 190.541 637.792 C 190.768 637.565 187.892 636.393 184.149 635.187 C 176.129 632.604 172.890 629.567 171.941 623.740 L 171.250 619.500 171.125 623.215 "/></g>
<g fill="#00000CFD">
<path d="M 173.027 600.737 C 168.522 602.327 158.000 611.673 158.000 614.085 C 158.000 614.753 159.348 613.440 160.995 611.166 C 164.654 606.115 170.329 602.410 177.271 600.540 C 180.147 599.765 181.375 599.138 180.000 599.145 C 178.625 599.152 175.487 599.868 173.027 600.737 "/></g>
</svg>
